<?xml version="1.0" encoding="UTF-8" standalone="no"?>
<!DOCTYPE svg PUBLIC "-//W3C//DTD SVG 1.1//EN"
 "http://www.w3.org/Graphics/SVG/1.1/DTD/svg11.dtd">
<!-- Generated by graphviz version 14.0.5 (20251129.0259)
 -->
<!-- Title: PROV&#45;O render Pages: 1 -->
<svg width="1742pt" height="1211pt"
 viewBox="0.00 0.00 1742.00 1211.00" xmlns="http://www.w3.org/2000/svg" xmlns:xlink="http://www.w3.org/1999/xlink">
<g id="graph0" class="graph" transform="scale(1 1) rotate(0) translate(4 1207.35)">
<title>PROV&#45;O render</title>
<polygon fill="white" stroke="none" points="-4,4 -4,-1207.35 1737.5,-1207.35 1737.5,4 -4,4"/>
<!-- _dd5a57dfae6dee60ab4c34519524220cc391143b0756a5d20f3f9b9380dd22aa -->
<g id="node1" class="node">
<title>_dd5a57dfae6dee60ab4c34519524220cc391143b0756a5d20f3f9b9380dd22aa</title>
<g id="a_node1"><a xlink:title="ID &#45; http://example.org/kb/Analysis&#45;313d688e&#45;0bb9&#45;4504&#45;a474&#45;d390b0a27010">
<polygon fill="#9fb1fc" stroke="#0000ff" points="464.5,-348 121.5,-348 121.5,-291 464.5,-291 464.5,-348"/>
<text xml:space="preserve" text-anchor="middle" x="293" y="-330.7" font-family="Times,serif" font-size="14.00">ID &#45; kb:Analysis&#45;313d688e&#45;0bb9&#45;4504&#45;a474&#45;d390b0a27010</text>
<text xml:space="preserve" text-anchor="middle" x="293" y="-298.2" font-family="Times,serif" font-size="14.00">Compare recovered partition against original</text>
</a>
</g>
</g>
<!-- _37f9eebc20c9872e39164cbd24a7a771782ee6a5ce23602db491b59167a6d23f -->
<g id="node7" class="node">
<title>_37f9eebc20c9872e39164cbd24a7a771782ee6a5ce23602db491b59167a6d23f</title>
<g id="a_node7"><a xlink:title="ID &#45; http://example.org/kb/InvestigativeAction&#45;8ab415cd&#45;6156&#45;4e86&#45;b5f5&#45;34d9cb583075">
<polygon fill="#9fb1fc" stroke="#0000ff" points="622.62,-833.5 223.37,-833.5 223.37,-776.5 622.62,-776.5 622.62,-833.5"/>
<text xml:space="preserve" text-anchor="middle" x="423" y="-816.2" font-family="Times,serif" font-size="14.00">ID &#45; kb:InvestigativeAction&#45;8ab415cd&#45;6156&#45;4e86&#45;b5f5&#45;34d9cb583075</text>
<text xml:space="preserve" text-anchor="middle" x="423" y="-783.7" font-family="Times,serif" font-size="14.00">Run preparation script 3: Manual deletion of partition</text>
</a>
</g>
</g>
<!-- _dd5a57dfae6dee60ab4c34519524220cc391143b0756a5d20f3f9b9380dd22aa&#45;&gt;_37f9eebc20c9872e39164cbd24a7a771782ee6a5ce23602db491b59167a6d23f -->
<g id="edge1" class="edge">
<title>_dd5a57dfae6dee60ab4c34519524220cc391143b0756a5d20f3f9b9380dd22aa&#45;&gt;_37f9eebc20c9872e39164cbd24a7a771782ee6a5ce23602db491b59167a6d23f</title>
<path fill="none" stroke="#0000cd" d="M314.11,-348.12C329.62,-371.19 348,-405.62 348,-439.25 348,-439.25 348,-439.25 348,-685.25 348,-716.33 366.59,-745.89 385.25,-767.75"/>
<polygon fill="#0000cd" stroke="#0000cd" points="382.64,-770.08 391.92,-775.2 387.86,-765.41 382.64,-770.08"/>
<text xml:space="preserve" text-anchor="middle" x="380.25" y="-553.25" font-family="Times,serif" font-size="10.00">wasInformedBy</text>
</g>
<!-- _9bbdd46e8d2673525110cd4217bbb24851e8d0894dd69c67befc0d2cf831f46b -->
<g id="node10" class="node">
<title>_9bbdd46e8d2673525110cd4217bbb24851e8d0894dd69c67befc0d2cf831f46b</title>
<g id="a_node10"><a xlink:title="ID &#45; http://example.org/kb/InvestigativeAction&#45;db5f7449&#45;256e&#45;4d16&#45;9486&#45;6c7f3524c070">
<polygon fill="#9fb1fc" stroke="#0000ff" points="1076.88,-485.25 679.12,-485.25 679.12,-395.25 1076.88,-395.25 1076.88,-485.25"/>
<text xml:space="preserve" text-anchor="middle" x="878" y="-467.95" font-family="Times,serif" font-size="14.00">ID &#45; kb:InvestigativeAction&#45;db5f7449&#45;256e&#45;4d16&#45;9486&#45;6c7f3524c070</text>
<text xml:space="preserve" text-anchor="middle" x="878" y="-451.45" font-family="Times,serif" font-size="14.00">[2023&#45;08&#45;31T09:32:54+00:00, 2023&#45;08&#45;31T09:35:13+00:00]</text>
<text xml:space="preserve" text-anchor="middle" x="878" y="-434.95" font-family="Times,serif" font-size="14.00">forensic recovery</text>
<text xml:space="preserve" text-anchor="middle" x="878" y="-402.45" font-family="Times,serif" font-size="14.00">Partition recovery using Tool 1</text>
</a>
</g>
</g>
<!-- _dd5a57dfae6dee60ab4c34519524220cc391143b0756a5d20f3f9b9380dd22aa&#45;&gt;_9bbdd46e8d2673525110cd4217bbb24851e8d0894dd69c67befc0d2cf831f46b -->
<g id="edge2" class="edge">
<title>_dd5a57dfae6dee60ab4c34519524220cc391143b0756a5d20f3f9b9380dd22aa&#45;&gt;_9bbdd46e8d2673525110cd4217bbb24851e8d0894dd69c67befc0d2cf831f46b</title>
<path fill="none" stroke="#0000cd" d="M430.9,-348.49C501.47,-362.82 588.89,-380.56 667.67,-396.55"/>
<polygon fill="#0000cd" stroke="#0000cd" points="666.74,-399.94 677.24,-398.5 668.13,-393.08 666.74,-399.94"/>
<text xml:space="preserve" text-anchor="middle" x="600.21" y="-367.75" font-family="Times,serif" font-size="10.00">wasInformedBy</text>
</g>
<!-- _3609617dd7157e9cd54b13e3a4d0754c90e7641bfbb993ecf87e01224a526780 -->
<g id="node15" class="node">
<title>_3609617dd7157e9cd54b13e3a4d0754c90e7641bfbb993ecf87e01224a526780</title>
<g id="a_node15"><a xlink:title="ID &#45; http://example.org/kb/Start&#45;19522c70&#45;0824&#45;5ab8&#45;8447&#45;bbe0147903d8&#10;&#10;Start of http://example.org/kb/Analysis&#45;313d688e&#45;0bb9&#45;4504&#45;a474&#45;d390b0a27010">
<ellipse fill="lightgray" stroke="dimgray" cx="293" cy="-440.25" rx="1.8" ry="1.8"/>
</a>
</g>
</g>
<!-- _dd5a57dfae6dee60ab4c34519524220cc391143b0756a5d20f3f9b9380dd22aa&#45;&gt;_3609617dd7157e9cd54b13e3a4d0754c90e7641bfbb993ecf87e01224a526780 -->
<g id="edge26" class="edge">
<title>_dd5a57dfae6dee60ab4c34519524220cc391143b0756a5d20f3f9b9380dd22aa&#45;&gt;_3609617dd7157e9cd54b13e3a4d0754c90e7641bfbb993ecf87e01224a526780</title>
<path fill="none" stroke="dimgray" stroke-dasharray="1,5" d="M293,-348.34C293,-376.65 293,-418.44 293,-433.54"/>
<polygon fill="dimgray" stroke="dimgray" points="298,-437.26 288,-437.26 288,-435.26 298,-435.26 298,-437.26"/>
<polyline fill="none" stroke="dimgray" points="293,-438.26 293,-433.26"/>
</g>
<!-- _fbd4a3ac6f657a70e7e1efd4073946618e1593b13ed517be9c7d15107ba3db66 -->
<g id="node2" class="node">
<title>_fbd4a3ac6f657a70e7e1efd4073946618e1593b13ed517be9c7d15107ba3db66</title>
<g id="a_node2"><a xlink:title="ID &#45; http://example.org/kb/Analysis&#45;32be09b3&#45;89cd&#45;4461&#45;9098&#45;c5204220abd5">
<polygon fill="#9fb1fc" stroke="#0000ff" points="655.12,-243.75 312.88,-243.75 312.88,-137.25 655.12,-137.25 655.12,-243.75"/>
<text xml:space="preserve" text-anchor="middle" x="484" y="-226.45" font-family="Times,serif" font-size="14.00">ID &#45; kb:Analysis&#45;32be09b3&#45;89cd&#45;4461&#45;9098&#45;c5204220abd5</text>
<text xml:space="preserve" text-anchor="middle" x="484" y="-193.95" font-family="Times,serif" font-size="14.00">Using belief of correspondence between parsed extended </text>
<text xml:space="preserve" text-anchor="middle" x="484" y="-177.45" font-family="Times,serif" font-size="14.00">partition with original extended partition; and recovered </text>
<text xml:space="preserve" text-anchor="middle" x="484" y="-160.95" font-family="Times,serif" font-size="14.00">partition with original last partition; compare recovered </text>
<text xml:space="preserve" text-anchor="middle" x="484" y="-144.45" font-family="Times,serif" font-size="14.00">file system against original file system in last partition</text>
</a>
</g>
</g>
<!-- _fbd4a3ac6f657a70e7e1efd4073946618e1593b13ed517be9c7d15107ba3db66&#45;&gt;_dd5a57dfae6dee60ab4c34519524220cc391143b0756a5d20f3f9b9380dd22aa -->
<g id="edge3" class="edge">
<title>_fbd4a3ac6f657a70e7e1efd4073946618e1593b13ed517be9c7d15107ba3db66&#45;&gt;_dd5a57dfae6dee60ab4c34519524220cc391143b0756a5d20f3f9b9380dd22aa</title>
<path fill="none" stroke="#0000cd" d="M404.93,-244.07C384.48,-257.67 363,-271.96 344.38,-284.34"/>
<polygon fill="#0000cd" stroke="#0000cd" points="342.57,-281.33 336.18,-289.79 346.45,-287.16 342.57,-281.33"/>
<text xml:space="preserve" text-anchor="middle" x="409.31" y="-263.5" font-family="Times,serif" font-size="10.00">wasInformedBy</text>
</g>
<!-- _0a32387cdbdf644e633f61a6f56a00d318db5511d7864d0850d56b4dac30e1d8 -->
<g id="node3" class="node">
<title>_0a32387cdbdf644e633f61a6f56a00d318db5511d7864d0850d56b4dac30e1d8</title>
<g id="a_node3"><a xlink:title="ID &#45; http://example.org/kb/Analysis&#45;39dcec1b&#45;caa0&#45;41c9&#45;ab12&#45;e45a39d73233">
<polygon fill="#9fb1fc" stroke="#0000ff" points="841.88,-348 504.12,-348 504.12,-291 841.88,-291 841.88,-348"/>
<text xml:space="preserve" text-anchor="middle" x="673" y="-330.7" font-family="Times,serif" font-size="14.00">ID &#45; kb:Analysis&#45;39dcec1b&#45;caa0&#45;41c9&#45;ab12&#45;e45a39d73233</text>
<text xml:space="preserve" text-anchor="middle" x="673" y="-298.2" font-family="Times,serif" font-size="14.00">Compare parsed partition against original</text>
</a>
</g>
</g>
<!-- _fbd4a3ac6f657a70e7e1efd4073946618e1593b13ed517be9c7d15107ba3db66&#45;&gt;_0a32387cdbdf644e633f61a6f56a00d318db5511d7864d0850d56b4dac30e1d8 -->
<g id="edge4" class="edge">
<title>_fbd4a3ac6f657a70e7e1efd4073946618e1593b13ed517be9c7d15107ba3db66&#45;&gt;_0a32387cdbdf644e633f61a6f56a00d318db5511d7864d0850d56b4dac30e1d8</title>
<path fill="none" stroke="#0000cd" d="M562.24,-244.07C582.47,-257.67 603.74,-271.96 622.16,-284.34"/>
<polygon fill="#0000cd" stroke="#0000cd" points="620.01,-287.11 630.26,-289.78 623.91,-281.3 620.01,-287.11"/>
<text xml:space="preserve" text-anchor="middle" x="633.24" y="-263.5" font-family="Times,serif" font-size="10.00">wasInformedBy</text>
</g>
<!-- _688af5bd4e4445fad25da74f4319b656233652dc8a871ed782d9120fd29d889f -->
<g id="node6" class="node">
<title>_688af5bd4e4445fad25da74f4319b656233652dc8a871ed782d9120fd29d889f</title>
<g id="a_node6"><a xlink:title="ID &#45; http://example.org/kb/InvestigativeAction&#45;83a8b184&#45;075b&#45;4973&#45;9c51&#45;fe3fe2f7c3f8">
<polygon fill="#9fb1fc" stroke="#0000ff" points="732.88,-1058.5 341.12,-1058.5 341.12,-985 732.88,-985 732.88,-1058.5"/>
<text xml:space="preserve" text-anchor="middle" x="537" y="-1041.2" font-family="Times,serif" font-size="14.00">ID &#45; kb:InvestigativeAction&#45;83a8b184&#45;075b&#45;4973&#45;9c51&#45;fe3fe2f7c3f8</text>
<text xml:space="preserve" text-anchor="middle" x="537" y="-1008.7" font-family="Times,serif" font-size="14.00">Run preparation script 1: Creation of partition system and </text>
<text xml:space="preserve" text-anchor="middle" x="537" y="-992.2" font-family="Times,serif" font-size="14.00">file systems</text>
</a>
</g>
</g>
<!-- _fbd4a3ac6f657a70e7e1efd4073946618e1593b13ed517be9c7d15107ba3db66&#45;&gt;_688af5bd4e4445fad25da74f4319b656233652dc8a871ed782d9120fd29d889f -->
<g id="edge5" class="edge">
<title>_fbd4a3ac6f657a70e7e1efd4073946618e1593b13ed517be9c7d15107ba3db66&#45;&gt;_688af5bd4e4445fad25da74f4319b656233652dc8a871ed782d9120fd29d889f</title>
<path fill="none" stroke="#0000cd" d="M312.68,-204.28C173.45,-219.55 0,-251.93 0,-318.5 0,-318.5 0,-318.5 0,-910.25 0,-980.47 178.41,-1006.46 329.56,-1015.87"/>
<polygon fill="#0000cd" stroke="#0000cd" points="329.15,-1019.35 339.34,-1016.45 329.57,-1012.36 329.15,-1019.35"/>
<text xml:space="preserve" text-anchor="middle" x="32.25" y="-582.5" font-family="Times,serif" font-size="10.00">wasInformedBy</text>
</g>
<!-- _fbd4a3ac6f657a70e7e1efd4073946618e1593b13ed517be9c7d15107ba3db66&#45;&gt;_37f9eebc20c9872e39164cbd24a7a771782ee6a5ce23602db491b59167a6d23f -->
<g id="edge6" class="edge">
<title>_fbd4a3ac6f657a70e7e1efd4073946618e1593b13ed517be9c7d15107ba3db66&#45;&gt;_37f9eebc20c9872e39164cbd24a7a771782ee6a5ce23602db491b59167a6d23f</title>
<path fill="none" stroke="#0000cd" d="M312.5,-215.97C207.44,-235.96 93,-269.07 93,-318.5 93,-318.5 93,-318.5 93,-685.25 93,-723.93 174.27,-753.46 256.16,-773.4"/>
<polygon fill="#0000cd" stroke="#0000cd" points="255.17,-776.77 265.71,-775.68 256.79,-769.96 255.17,-776.77"/>
<text xml:space="preserve" text-anchor="middle" x="125.25" y="-524" font-family="Times,serif" font-size="10.00">wasInformedBy</text>
</g>
<!-- _fbd4a3ac6f657a70e7e1efd4073946618e1593b13ed517be9c7d15107ba3db66&#45;&gt;_9bbdd46e8d2673525110cd4217bbb24851e8d0894dd69c67befc0d2cf831f46b -->
<g id="edge7" class="edge">
<title>_fbd4a3ac6f657a70e7e1efd4073946618e1593b13ed517be9c7d15107ba3db66&#45;&gt;_9bbdd46e8d2673525110cd4217bbb24851e8d0894dd69c67befc0d2cf831f46b</title>
<path fill="none" stroke="#0000cd" d="M655.51,-219.85C737.39,-236.87 823.48,-261.04 851,-291 873.6,-315.6 880.37,-352.54 881.48,-383.39"/>
<polygon fill="#0000cd" stroke="#0000cd" points="877.98,-383.42 881.63,-393.37 884.98,-383.32 877.98,-383.42"/>
<text xml:space="preserve" text-anchor="middle" x="909.53" y="-315.62" font-family="Times,serif" font-size="10.00">wasInformedBy</text>
</g>
<!-- _6507f986d551a0c821629dd7e8c2edfa5cc37c9f02304f855f7f1ef959d6b775 -->
<g id="node21" class="node">
<title>_6507f986d551a0c821629dd7e8c2edfa5cc37c9f02304f855f7f1ef959d6b775</title>
<g id="a_node21"><a xlink:title="ID &#45; http://example.org/kb/Start&#45;7c41473b&#45;3bd4&#45;5f68&#45;872f&#45;835b7b8662f6&#10;&#10;Start of http://example.org/kb/Analysis&#45;32be09b3&#45;89cd&#45;4461&#45;9098&#45;c5204220abd5">
<ellipse fill="lightgray" stroke="dimgray" cx="484" cy="-319.5" rx="1.8" ry="1.8"/>
</a>
</g>
</g>
<!-- _fbd4a3ac6f657a70e7e1efd4073946618e1593b13ed517be9c7d15107ba3db66&#45;&gt;_6507f986d551a0c821629dd7e8c2edfa5cc37c9f02304f855f7f1ef959d6b775 -->
<g id="edge36" class="edge">
<title>_fbd4a3ac6f657a70e7e1efd4073946618e1593b13ed517be9c7d15107ba3db66&#45;&gt;_6507f986d551a0c821629dd7e8c2edfa5cc37c9f02304f855f7f1ef959d6b775</title>
<path fill="none" stroke="dimgray" stroke-dasharray="1,5" d="M484,-243.89C484,-270.64 484,-300.1 484,-312.49"/>
<polygon fill="dimgray" stroke="dimgray" points="489,-316.49 479,-316.49 479,-314.49 489,-314.49 489,-316.49"/>
<polyline fill="none" stroke="dimgray" points="484,-317.49 484,-312.49"/>
</g>
<!-- _0a32387cdbdf644e633f61a6f56a00d318db5511d7864d0850d56b4dac30e1d8&#45;&gt;_688af5bd4e4445fad25da74f4319b656233652dc8a871ed782d9120fd29d889f -->
<g id="edge8" class="edge">
<title>_0a32387cdbdf644e633f61a6f56a00d318db5511d7864d0850d56b4dac30e1d8&#45;&gt;_688af5bd4e4445fad25da74f4319b656233652dc8a871ed782d9120fd29d889f</title>
<path fill="none" stroke="#0000cd" d="M664.93,-348.07C658.65,-371.96 651,-407.59 651,-439.25 651,-439.25 651,-439.25 651,-910.25 651,-937.5 633.99,-960.19 613.12,-977.77"/>
<polygon fill="#0000cd" stroke="#0000cd" points="611.16,-974.85 605.49,-983.8 615.5,-980.34 611.16,-974.85"/>
<text xml:space="preserve" text-anchor="middle" x="683.25" y="-611.75" font-family="Times,serif" font-size="10.00">wasInformedBy</text>
</g>
<!-- _0a32387cdbdf644e633f61a6f56a00d318db5511d7864d0850d56b4dac30e1d8&#45;&gt;_37f9eebc20c9872e39164cbd24a7a771782ee6a5ce23602db491b59167a6d23f -->
<g id="edge9" class="edge">
<title>_0a32387cdbdf644e633f61a6f56a00d318db5511d7864d0850d56b4dac30e1d8&#45;&gt;_37f9eebc20c9872e39164cbd24a7a771782ee6a5ce23602db491b59167a6d23f</title>
<path fill="none" stroke="#0000cd" d="M563.88,-348.45C521.97,-366.32 484,-394.78 484,-439.25 484,-439.25 484,-439.25 484,-685.25 484,-715.06 468.6,-744.89 453.28,-767.2"/>
<polygon fill="#0000cd" stroke="#0000cd" points="450.63,-764.88 447.64,-775.05 456.32,-768.97 450.63,-764.88"/>
<text xml:space="preserve" text-anchor="middle" x="516.25" y="-553.25" font-family="Times,serif" font-size="10.00">wasInformedBy</text>
</g>
<!-- _4e438e9fb00fe1ad3daefb49c7a4c04de96d25d5fae889a5c340b9f810153a4b -->
<g id="node8" class="node">
<title>_4e438e9fb00fe1ad3daefb49c7a4c04de96d25d5fae889a5c340b9f810153a4b</title>
<g id="a_node8"><a xlink:title="ID &#45; http://example.org/kb/InvestigativeAction&#45;a5c03fc1&#45;092d&#45;4c1a&#45;9142&#45;adf22966ba93">
<polygon fill="#9fb1fc" stroke="#0000ff" points="1527.38,-485.25 1132.62,-485.25 1132.62,-395.25 1527.38,-395.25 1527.38,-485.25"/>
<text xml:space="preserve" text-anchor="middle" x="1330" y="-467.95" font-family="Times,serif" font-size="14.00">ID &#45; kb:InvestigativeAction&#45;a5c03fc1&#45;092d&#45;4c1a&#45;9142&#45;adf22966ba93</text>
<text xml:space="preserve" text-anchor="middle" x="1330" y="-451.45" font-family="Times,serif" font-size="14.00">[2023&#45;08&#45;31T09:32:54+00:00, 2023&#45;08&#45;31T09:35:13+00:00]</text>
<text xml:space="preserve" text-anchor="middle" x="1330" y="-434.95" font-family="Times,serif" font-size="14.00">forensic recovery</text>
<text xml:space="preserve" text-anchor="middle" x="1330" y="-402.45" font-family="Times,serif" font-size="14.00">Partition recovery using Tool 4</text>
</a>
</g>
</g>
<!-- _0a32387cdbdf644e633f61a6f56a00d318db5511d7864d0850d56b4dac30e1d8&#45;&gt;_4e438e9fb00fe1ad3daefb49c7a4c04de96d25d5fae889a5c340b9f810153a4b -->
<g id="edge10" class="edge">
<title>_0a32387cdbdf644e633f61a6f56a00d318db5511d7864d0850d56b4dac30e1d8&#45;&gt;_4e438e9fb00fe1ad3daefb49c7a4c04de96d25d5fae889a5c340b9f810153a4b</title>
<path fill="none" stroke="#0000cd" d="M827.87,-348.49C915.36,-364.31 1025.91,-384.29 1120.99,-401.47"/>
<polygon fill="#0000cd" stroke="#0000cd" points="1120.26,-404.9 1130.72,-403.23 1121.5,-398.01 1120.26,-404.9"/>
<text xml:space="preserve" text-anchor="middle" x="1014.05" y="-367.75" font-family="Times,serif" font-size="10.00">wasInformedBy</text>
</g>
<!-- _bb20051b08bf8682e5561a0568ab89b87dfef9c56bc3462144720486bcd14bbe -->
<g id="node23" class="node">
<title>_bb20051b08bf8682e5561a0568ab89b87dfef9c56bc3462144720486bcd14bbe</title>
<g id="a_node23"><a xlink:title="ID &#45; http://example.org/kb/Start&#45;b02cc11c&#45;19fb&#45;5a2c&#45;9471&#45;3d6cde7e5f5c&#10;&#10;Start of http://example.org/kb/Analysis&#45;39dcec1b&#45;caa0&#45;41c9&#45;ab12&#45;e45a39d73233">
<ellipse fill="lightgray" stroke="dimgray" cx="538" cy="-440.25" rx="1.8" ry="1.8"/>
</a>
</g>
</g>
<!-- _0a32387cdbdf644e633f61a6f56a00d318db5511d7864d0850d56b4dac30e1d8&#45;&gt;_bb20051b08bf8682e5561a0568ab89b87dfef9c56bc3462144720486bcd14bbe -->
<g id="edge39" class="edge">
<title>_0a32387cdbdf644e633f61a6f56a00d318db5511d7864d0850d56b4dac30e1d8&#45;&gt;_bb20051b08bf8682e5561a0568ab89b87dfef9c56bc3462144720486bcd14bbe</title>
<path fill="none" stroke="dimgray" stroke-dasharray="1,5" d="M572.29,-348.35C564.71,-353.3 557.78,-359.13 552,-366 535.22,-385.92 536.17,-419.77 537.34,-433.35"/>
<polygon fill="dimgray" stroke="dimgray" points="542.7,-436.53 532.76,-437.57 532.55,-435.58 542.49,-434.54 542.7,-436.53"/>
<polyline fill="none" stroke="dimgray" points="537.84,-438.05 537.31,-433.07"/>
</g>
<!-- _eec847fb65f1d67b95e4c40dce408f5c6d7289ea5167c38ea3b6a56688416dea -->
<g id="node4" class="node">
<title>_eec847fb65f1d67b95e4c40dce408f5c6d7289ea5167c38ea3b6a56688416dea</title>
<g id="a_node4"><a xlink:title="ID &#45; http://example.org/kb/Analysis&#45;9dbfb955&#45;d739&#45;42cf&#45;9fcf&#45;7df99a9edc4b">
<polygon fill="#9fb1fc" stroke="#0000ff" points="1499,-90 1141,-90 1141,0 1499,0 1499,-90"/>
<text xml:space="preserve" text-anchor="middle" x="1320" y="-72.7" font-family="Times,serif" font-size="14.00">ID &#45; kb:Analysis&#45;9dbfb955&#45;d739&#45;42cf&#45;9fcf&#45;7df99a9edc4b</text>
<text xml:space="preserve" text-anchor="middle" x="1320" y="-40.2" font-family="Times,serif" font-size="14.00">Using belief of correspondence between recovered file system</text>
<text xml:space="preserve" text-anchor="middle" x="1320" y="-23.7" font-family="Times,serif" font-size="14.00"> and original file system in last partition, compared </text>
<text xml:space="preserve" text-anchor="middle" x="1320" y="-7.2" font-family="Times,serif" font-size="14.00">recovered file SECOND.TXT with original file of same name.</text>
</a>
</g>
</g>
<!-- _eec847fb65f1d67b95e4c40dce408f5c6d7289ea5167c38ea3b6a56688416dea&#45;&gt;_fbd4a3ac6f657a70e7e1efd4073946618e1593b13ed517be9c7d15107ba3db66 -->
<g id="edge11" class="edge">
<title>_eec847fb65f1d67b95e4c40dce408f5c6d7289ea5167c38ea3b6a56688416dea&#45;&gt;_fbd4a3ac6f657a70e7e1efd4073946618e1593b13ed517be9c7d15107ba3db66</title>
<path fill="none" stroke="#0000cd" d="M1140.53,-69.88C1063.96,-80.62 973.71,-94.02 892.5,-108 818.42,-120.75 737.16,-136.58 666.75,-150.89"/>
<polygon fill="#0000cd" stroke="#0000cd" points="666.13,-147.45 657.03,-152.87 667.53,-154.31 666.13,-147.45"/>
<text xml:space="preserve" text-anchor="middle" x="924.75" y="-109.75" font-family="Times,serif" font-size="10.00">wasInformedBy</text>
</g>
<!-- _41036093d033c792181ff16bd65f20c3621b121bc5eaaee8705bbcbfa8b61c9b -->
<g id="node5" class="node">
<title>_41036093d033c792181ff16bd65f20c3621b121bc5eaaee8705bbcbfa8b61c9b</title>
<g id="a_node5"><a xlink:title="ID &#45; http://example.org/kb/InvestigativeAction&#45;37881b8a&#45;edad&#45;41e3&#45;ae0c&#45;4c205cf2d8d1">
<polygon fill="#9fb1fc" stroke="#0000ff" points="1074.75,-937.75 679.25,-937.75 679.25,-880.75 1074.75,-880.75 1074.75,-937.75"/>
<text xml:space="preserve" text-anchor="middle" x="877" y="-920.45" font-family="Times,serif" font-size="14.00">ID &#45; kb:InvestigativeAction&#45;37881b8a&#45;edad&#45;41e3&#45;ae0c&#45;4c205cf2d8d1</text>
<text xml:space="preserve" text-anchor="middle" x="877" y="-887.95" font-family="Times,serif" font-size="14.00">Run preparation script 2: Placing overwritten file</text>
</a>
</g>
</g>
<!-- _eec847fb65f1d67b95e4c40dce408f5c6d7289ea5167c38ea3b6a56688416dea&#45;&gt;_41036093d033c792181ff16bd65f20c3621b121bc5eaaee8705bbcbfa8b61c9b -->
<g id="edge12" class="edge">
<title>_eec847fb65f1d67b95e4c40dce408f5c6d7289ea5167c38ea3b6a56688416dea&#45;&gt;_41036093d033c792181ff16bd65f20c3621b121bc5eaaee8705bbcbfa8b61c9b</title>
<path fill="none" stroke="#0000cd" d="M1499.36,-87.73C1584.96,-113.03 1669,-148.35 1669,-189.5 1669,-189.5 1669,-189.5 1669,-806 1669,-864.8 1321.14,-890.58 1086.5,-901.27"/>
<polygon fill="#0000cd" stroke="#0000cd" points="1086.41,-897.77 1076.58,-901.72 1086.73,-904.76 1086.41,-897.77"/>
<text xml:space="preserve" text-anchor="middle" x="1701.25" y="-524" font-family="Times,serif" font-size="10.00">wasInformedBy</text>
</g>
<!-- _eec847fb65f1d67b95e4c40dce408f5c6d7289ea5167c38ea3b6a56688416dea&#45;&gt;_9bbdd46e8d2673525110cd4217bbb24851e8d0894dd69c67befc0d2cf831f46b -->
<g id="edge13" class="edge">
<title>_eec847fb65f1d67b95e4c40dce408f5c6d7289ea5167c38ea3b6a56688416dea&#45;&gt;_9bbdd46e8d2673525110cd4217bbb24851e8d0894dd69c67befc0d2cf831f46b</title>
<path fill="none" stroke="#0000cd" d="M1270.16,-90.35C1187.89,-163.54 1024.11,-309.26 936.49,-387.21"/>
<polygon fill="#0000cd" stroke="#0000cd" points="934.28,-384.5 929.13,-393.76 938.93,-389.73 934.28,-384.5"/>
<text xml:space="preserve" text-anchor="middle" x="1105.8" y="-263.5" font-family="Times,serif" font-size="10.00">wasInformedBy</text>
</g>
<!-- _d16e29d94baf4a1b1d3008daf4ea8a9df596e38564a38b6ef694b1730c721668 -->
<g id="node24" class="node">
<title>_d16e29d94baf4a1b1d3008daf4ea8a9df596e38564a38b6ef694b1730c721668</title>
<g id="a_node24"><a xlink:title="ID &#45; http://example.org/kb/Start&#45;b0bad645&#45;fcb8&#45;528e&#45;9959&#45;5fea2cd1b858&#10;&#10;Start of http://example.org/kb/Analysis&#45;9dbfb955&#45;d739&#45;42cf&#45;9fcf&#45;7df99a9edc4b">
<ellipse fill="lightgray" stroke="dimgray" cx="1699" cy="-190.5" rx="1.8" ry="1.8"/>
</a>
</g>
</g>
<!-- _eec847fb65f1d67b95e4c40dce408f5c6d7289ea5167c38ea3b6a56688416dea&#45;&gt;_d16e29d94baf4a1b1d3008daf4ea8a9df596e38564a38b6ef694b1730c721668 -->
<g id="edge40" class="edge">
<title>_eec847fb65f1d67b95e4c40dce408f5c6d7289ea5167c38ea3b6a56688416dea&#45;&gt;_d16e29d94baf4a1b1d3008daf4ea8a9df596e38564a38b6ef694b1730c721668</title>
<path fill="none" stroke="dimgray" stroke-dasharray="1,5" d="M1499.19,-57.66C1576.77,-66.43 1656,-81.66 1683,-108 1704.31,-128.79 1701.65,-169.07 1699.83,-183.87"/>
<polygon fill="dimgray" stroke="dimgray" points="1704.26,-188.23 1694.36,-186.83 1694.64,-184.85 1704.54,-186.25 1704.26,-188.23"/>
<polyline fill="none" stroke="dimgray" points="1699.17,-188.52 1699.87,-183.57"/>
</g>
<!-- _41036093d033c792181ff16bd65f20c3621b121bc5eaaee8705bbcbfa8b61c9b&#45;&gt;_688af5bd4e4445fad25da74f4319b656233652dc8a871ed782d9120fd29d889f -->
<g id="edge14" class="edge">
<title>_41036093d033c792181ff16bd65f20c3621b121bc5eaaee8705bbcbfa8b61c9b&#45;&gt;_688af5bd4e4445fad25da74f4319b656233652dc8a871ed782d9120fd29d889f</title>
<path fill="none" stroke="#0000cd" d="M791.2,-938.13C751.22,-951.13 702.93,-966.82 659.22,-981.03"/>
<polygon fill="#0000cd" stroke="#0000cd" points="658.37,-977.62 649.94,-984.04 660.54,-984.28 658.37,-977.62"/>
<text xml:space="preserve" text-anchor="middle" x="759.61" y="-957.5" font-family="Times,serif" font-size="10.00">wasInformedBy</text>
</g>
<!-- _b5940503decba8d533439694a25e3dae8cad1142db49cf29866ac212a59c9deb -->
<g id="node25" class="node">
<title>_b5940503decba8d533439694a25e3dae8cad1142db49cf29866ac212a59c9deb</title>
<g id="a_node25"><a xlink:title="ID &#45; http://example.org/kb/Start&#45;bdb6c3c2&#45;89e0&#45;5ba8&#45;ae0d&#45;263439a4cb14&#10;&#10;Start of http://example.org/kb/InvestigativeAction&#45;37881b8a&#45;edad&#45;41e3&#45;ae0c&#45;4c205cf2d8d1">
<ellipse fill="lightgray" stroke="dimgray" cx="877" cy="-1021.75" rx="1.8" ry="1.8"/>
</a>
</g>
</g>
<!-- _41036093d033c792181ff16bd65f20c3621b121bc5eaaee8705bbcbfa8b61c9b&#45;&gt;_b5940503decba8d533439694a25e3dae8cad1142db49cf29866ac212a59c9deb -->
<g id="edge41" class="edge">
<title>_41036093d033c792181ff16bd65f20c3621b121bc5eaaee8705bbcbfa8b61c9b&#45;&gt;_b5940503decba8d533439694a25e3dae8cad1142db49cf29866ac212a59c9deb</title>
<path fill="none" stroke="dimgray" stroke-dasharray="1,5" d="M877,-938.13C877,-963.86 877,-1000.18 877,-1014.55"/>
<polygon fill="dimgray" stroke="dimgray" points="882,-1018.49 872,-1018.49 872,-1016.49 882,-1016.49 882,-1018.49"/>
<polyline fill="none" stroke="dimgray" points="877,-1019.49 877,-1014.49"/>
</g>
<!-- _c890de67645138a75567e563b66a77cacd3a98ccd8441aca3289b14884768a0e -->
<g id="node9" class="node">
<title>_c890de67645138a75567e563b66a77cacd3a98ccd8441aca3289b14884768a0e</title>
<g id="a_node9"><a xlink:title="ID &#45; http://example.org/kb/InvestigativeAction&#45;c08691b3&#45;852c&#45;4d3f&#45;a8d7&#45;cc09ed916090">
<polygon fill="#9fb1fc" stroke="#0000ff" points="625.88,-1162.75 228.12,-1162.75 228.12,-1105.75 625.88,-1105.75 625.88,-1162.75"/>
<text xml:space="preserve" text-anchor="middle" x="427" y="-1145.45" font-family="Times,serif" font-size="14.00">ID &#45; kb:InvestigativeAction&#45;c08691b3&#45;852c&#45;4d3f&#45;a8d7&#45;cc09ed916090</text>
<text xml:space="preserve" text-anchor="middle" x="427" y="-1112.95" font-family="Times,serif" font-size="14.00">Enter USB Disk into chain of custody</text>
</a>
</g>
</g>
<!-- _688af5bd4e4445fad25da74f4319b656233652dc8a871ed782d9120fd29d889f&#45;&gt;_c890de67645138a75567e563b66a77cacd3a98ccd8441aca3289b14884768a0e -->
<g id="edge15" class="edge">
<title>_688af5bd4e4445fad25da74f4319b656233652dc8a871ed782d9120fd29d889f&#45;&gt;_c890de67645138a75567e563b66a77cacd3a98ccd8441aca3289b14884768a0e</title>
<path fill="none" stroke="#0000cd" d="M500.98,-1058.93C488.65,-1071.32 474.86,-1085.17 462.56,-1097.53"/>
<polygon fill="#0000cd" stroke="#0000cd" points="460.36,-1094.77 455.79,-1104.33 465.33,-1099.71 460.36,-1094.77"/>
<text xml:space="preserve" text-anchor="middle" x="514.25" y="-1078.25" font-family="Times,serif" font-size="10.00">wasInformedBy</text>
</g>
<!-- _ef8791098c15fd8074b29477e51caa070fb3ec06e106401a2238fe9cfc57c92a -->
<g id="node19" class="node">
<title>_ef8791098c15fd8074b29477e51caa070fb3ec06e106401a2238fe9cfc57c92a</title>
<g id="a_node19"><a xlink:title="ID &#45; http://example.org/kb/Start&#45;4d84489d&#45;5cd6&#45;54da&#45;ba4e&#45;b47ad9baf75c&#10;&#10;Start of http://example.org/kb/InvestigativeAction&#45;83a8b184&#45;075b&#45;4973&#45;9c51&#45;fe3fe2f7c3f8">
<ellipse fill="lightgray" stroke="dimgray" cx="646" cy="-1134.25" rx="1.8" ry="1.8"/>
</a>
</g>
</g>
<!-- _688af5bd4e4445fad25da74f4319b656233652dc8a871ed782d9120fd29d889f&#45;&gt;_ef8791098c15fd8074b29477e51caa070fb3ec06e106401a2238fe9cfc57c92a -->
<g id="edge34" class="edge">
<title>_688af5bd4e4445fad25da74f4319b656233652dc8a871ed782d9120fd29d889f&#45;&gt;_ef8791098c15fd8074b29477e51caa070fb3ec06e106401a2238fe9cfc57c92a</title>
<path fill="none" stroke="dimgray" stroke-dasharray="1,5" d="M589.08,-1058.93C605.4,-1072.2 622.42,-1088.29 635,-1105.75 639.87,-1112.51 642.98,-1121.73 644.61,-1127.58"/>
<polygon fill="dimgray" stroke="dimgray" points="650.36,-1129.91 640.66,-1132.36 640.17,-1130.42 649.86,-1127.97 650.36,-1129.91"/>
<polyline fill="none" stroke="dimgray" points="645.75,-1132.11 644.53,-1127.26"/>
</g>
<!-- _37f9eebc20c9872e39164cbd24a7a771782ee6a5ce23602db491b59167a6d23f&#45;&gt;_41036093d033c792181ff16bd65f20c3621b121bc5eaaee8705bbcbfa8b61c9b -->
<g id="edge16" class="edge">
<title>_37f9eebc20c9872e39164cbd24a7a771782ee6a5ce23602db491b59167a6d23f&#45;&gt;_41036093d033c792181ff16bd65f20c3621b121bc5eaaee8705bbcbfa8b61c9b</title>
<path fill="none" stroke="#0000cd" d="M547.06,-833.94C607.37,-847.52 679.97,-863.88 741.7,-877.78"/>
<polygon fill="#0000cd" stroke="#0000cd" points="740.7,-881.14 751.22,-879.92 742.24,-874.31 740.7,-881.14"/>
<text xml:space="preserve" text-anchor="middle" x="695.86" y="-853.25" font-family="Times,serif" font-size="10.00">wasInformedBy</text>
</g>
<!-- _37f9eebc20c9872e39164cbd24a7a771782ee6a5ce23602db491b59167a6d23f&#45;&gt;_688af5bd4e4445fad25da74f4319b656233652dc8a871ed782d9120fd29d889f -->
<g id="edge17" class="edge">
<title>_37f9eebc20c9872e39164cbd24a7a771782ee6a5ce23602db491b59167a6d23f&#45;&gt;_688af5bd4e4445fad25da74f4319b656233652dc8a871ed782d9120fd29d889f</title>
<path fill="none" stroke="#0000cd" d="M418.49,-833.99C415.37,-861.94 414.42,-905.29 431.5,-937.75 439.47,-952.89 451.54,-966.18 464.71,-977.42"/>
<polygon fill="#0000cd" stroke="#0000cd" points="462.34,-980 472.32,-983.56 466.74,-974.56 462.34,-980"/>
<text xml:space="preserve" text-anchor="middle" x="463.75" y="-905.37" font-family="Times,serif" font-size="10.00">wasInformedBy</text>
</g>
<!-- _7332a632076c01a8f32caaeaab9866674c75514e3f7d35ee6605dd96466efbb4 -->
<g id="node20" class="node">
<title>_7332a632076c01a8f32caaeaab9866674c75514e3f7d35ee6605dd96466efbb4</title>
<g id="a_node20"><a xlink:title="ID &#45; http://example.org/kb/Start&#45;4e9189e7&#45;55c4&#45;56a8&#45;b415&#45;ba8d03fa5bae&#10;&#10;Start of http://example.org/kb/InvestigativeAction&#45;8ab415cd&#45;6156&#45;4e86&#45;b5f5&#45;34d9cb583075">
<ellipse fill="lightgray" stroke="dimgray" cx="507" cy="-909.25" rx="1.8" ry="1.8"/>
</a>
</g>
</g>
<!-- _37f9eebc20c9872e39164cbd24a7a771782ee6a5ce23602db491b59167a6d23f&#45;&gt;_7332a632076c01a8f32caaeaab9866674c75514e3f7d35ee6605dd96466efbb4 -->
<g id="edge35" class="edge">
<title>_37f9eebc20c9872e39164cbd24a7a771782ee6a5ce23602db491b59167a6d23f&#45;&gt;_7332a632076c01a8f32caaeaab9866674c75514e3f7d35ee6605dd96466efbb4</title>
<path fill="none" stroke="dimgray" stroke-dasharray="1,5" d="M451.62,-833.68C464.77,-847.2 480.06,-864.1 492,-880.75 497.14,-887.91 501.78,-897.02 504.5,-902.74"/>
<polygon fill="dimgray" stroke="dimgray" points="510.64,-904.15 501.56,-908.32 500.72,-906.51 509.81,-902.33 510.64,-904.15"/>
<polyline fill="none" stroke="dimgray" points="506.52,-907.14 504.43,-902.6"/>
</g>
<!-- _9422c072d1b0597237569648ef6218ccefad24310c6cc04cf6b6d3eecd95d31d -->
<g id="node11" class="node">
<title>_9422c072d1b0597237569648ef6218ccefad24310c6cc04cf6b6d3eecd95d31d</title>
<g id="a_node11"><a xlink:title="ID &#45; http://example.org/kb/InvestigativeAction&#45;e55a3d16&#45;a516&#45;4ebe&#45;bba2&#45;cf7aa9a6b8ba">
<polygon fill="#9fb1fc" stroke="#0000ff" points="1160,-729.25 766,-729.25 766,-639.25 1160,-639.25 1160,-729.25"/>
<text xml:space="preserve" text-anchor="middle" x="963" y="-711.95" font-family="Times,serif" font-size="14.00">ID &#45; kb:InvestigativeAction&#45;e55a3d16&#45;a516&#45;4ebe&#45;bba2&#45;cf7aa9a6b8ba</text>
<text xml:space="preserve" text-anchor="middle" x="963" y="-695.45" font-family="Times,serif" font-size="14.00">[2023&#45;08&#45;16T16:44:02+00:00, 2023&#45;08&#45;16T16:45:38+00:00]</text>
<text xml:space="preserve" text-anchor="middle" x="963" y="-678.95" font-family="Times,serif" font-size="14.00">disk image</text>
<text xml:space="preserve" text-anchor="middle" x="963" y="-646.45" font-family="Times,serif" font-size="14.00">Acquisition of USB</text>
</a>
</g>
</g>
<!-- _4e438e9fb00fe1ad3daefb49c7a4c04de96d25d5fae889a5c340b9f810153a4b&#45;&gt;_9422c072d1b0597237569648ef6218ccefad24310c6cc04cf6b6d3eecd95d31d -->
<g id="edge18" class="edge">
<title>_4e438e9fb00fe1ad3daefb49c7a4c04de96d25d5fae889a5c340b9f810153a4b&#45;&gt;_9422c072d1b0597237569648ef6218ccefad24310c6cc04cf6b6d3eecd95d31d</title>
<path fill="none" stroke="#0000cd" d="M1262.69,-485.64C1199.67,-527.19 1105.6,-589.22 1039.71,-632.67"/>
<polygon fill="#0000cd" stroke="#0000cd" points="1037.88,-629.68 1031.46,-638.11 1041.74,-635.52 1037.88,-629.68"/>
<text xml:space="preserve" text-anchor="middle" x="1194.61" y="-553.25" font-family="Times,serif" font-size="10.00">wasInformedBy</text>
</g>
<!-- _e9594b10ebe9d9595f26eba472d4f3b3493e165ea3d70825ebd590e1638dd080 -->
<g id="node18" class="node">
<title>_e9594b10ebe9d9595f26eba472d4f3b3493e165ea3d70825ebd590e1638dd080</title>
<g id="a_node18"><a xlink:title="ID &#45; http://example.org/kb/Start&#45;35459f24&#45;ed50&#45;5ec8&#45;9418&#45;cca432efc9a2&#10;&#10;2023&#45;08&#45;31T09:32:54+00:00&#10;&#10;Start of http://example.org/kb/InvestigativeAction&#45;a5c03fc1&#45;092d&#45;4c1a&#45;9142&#45;adf22966ba93">
<ellipse fill="lightgray" stroke="dimgray" cx="1493" cy="-527.87" rx="1.8" ry="1.8"/>
</a>
</g>
</g>
<!-- _4e438e9fb00fe1ad3daefb49c7a4c04de96d25d5fae889a5c340b9f810153a4b&#45;&gt;_e9594b10ebe9d9595f26eba472d4f3b3493e165ea3d70825ebd590e1638dd080 -->
<g id="edge33" class="edge">
<title>_4e438e9fb00fe1ad3daefb49c7a4c04de96d25d5fae889a5c340b9f810153a4b&#45;&gt;_e9594b10ebe9d9595f26eba472d4f3b3493e165ea3d70825ebd590e1638dd080</title>
<path fill="none" stroke="dimgray" stroke-dasharray="1,5" d="M1414.36,-485.57C1445.08,-501.7 1475.26,-517.55 1487.41,-523.94"/>
<polygon fill="dimgray" stroke="dimgray" points="1493.09,-521.28 1488.44,-530.13 1486.67,-529.2 1491.32,-520.35 1493.09,-521.28"/>
<polyline fill="none" stroke="dimgray" points="1491.65,-526.17 1487.23,-523.84"/>
</g>
<!-- _367ac2d9a56ab1d62061500c33ed9088a7c789507dc9fa79bbb7be6c3b7c1419 -->
<g id="node17" class="node">
<title>_367ac2d9a56ab1d62061500c33ed9088a7c789507dc9fa79bbb7be6c3b7c1419</title>
<g id="a_node17"><a xlink:title="ID &#45; http://example.org/kb/Start&#45;34cf42fd&#45;b263&#45;59a2&#45;9d65&#45;35b1195efe95&#10;&#10;Start of http://example.org/kb/InvestigativeAction&#45;c08691b3&#45;852c&#45;4d3f&#45;a8d7&#45;cc09ed916090">
<ellipse fill="lightgray" stroke="dimgray" cx="427" cy="-1201.55" rx="1.8" ry="1.8"/>
</a>
</g>
</g>
<!-- _c890de67645138a75567e563b66a77cacd3a98ccd8441aca3289b14884768a0e&#45;&gt;_367ac2d9a56ab1d62061500c33ed9088a7c789507dc9fa79bbb7be6c3b7c1419 -->
<g id="edge30" class="edge">
<title>_c890de67645138a75567e563b66a77cacd3a98ccd8441aca3289b14884768a0e&#45;&gt;_367ac2d9a56ab1d62061500c33ed9088a7c789507dc9fa79bbb7be6c3b7c1419</title>
<path fill="none" stroke="dimgray" stroke-dasharray="1,5" d="M427,-1162.94C427,-1174.65 427,-1187.23 427,-1194.47"/>
<polygon fill="dimgray" stroke="dimgray" points="432,-1198.44 422,-1198.44 422,-1196.44 432,-1196.44 432,-1198.44"/>
<polyline fill="none" stroke="dimgray" points="427,-1199.44 427,-1194.44"/>
</g>
<!-- _9bbdd46e8d2673525110cd4217bbb24851e8d0894dd69c67befc0d2cf831f46b&#45;&gt;_9422c072d1b0597237569648ef6218ccefad24310c6cc04cf6b6d3eecd95d31d -->
<g id="edge19" class="edge">
<title>_9bbdd46e8d2673525110cd4217bbb24851e8d0894dd69c67befc0d2cf831f46b&#45;&gt;_9422c072d1b0597237569648ef6218ccefad24310c6cc04cf6b6d3eecd95d31d</title>
<path fill="none" stroke="#0000cd" d="M893.59,-485.64C907.73,-525.89 928.62,-585.36 943.78,-628.54"/>
<polygon fill="#0000cd" stroke="#0000cd" points="940.39,-629.44 947.01,-637.72 947,-627.12 940.39,-629.44"/>
<text xml:space="preserve" text-anchor="middle" x="952.75" y="-553.25" font-family="Times,serif" font-size="10.00">wasInformedBy</text>
</g>
<!-- _c479d892cd7c410117d698c8abd08309eaf8ef51fccba834aad7070d84cf3f98 -->
<g id="node16" class="node">
<title>_c479d892cd7c410117d698c8abd08309eaf8ef51fccba834aad7070d84cf3f98</title>
<g id="a_node16"><a xlink:title="ID &#45; http://example.org/kb/Start&#45;2c7faeee&#45;59ae&#45;5ceb&#45;a4aa&#45;af7f9ebd7a47&#10;&#10;2023&#45;08&#45;31T09:32:54+00:00&#10;&#10;Start of http://example.org/kb/InvestigativeAction&#45;db5f7449&#45;256e&#45;4d16&#45;9486&#45;6c7f3524c070">
<ellipse fill="lightgray" stroke="dimgray" cx="1105" cy="-527.87" rx="1.8" ry="1.8"/>
</a>
</g>
</g>
<!-- _9bbdd46e8d2673525110cd4217bbb24851e8d0894dd69c67befc0d2cf831f46b&#45;&gt;_c479d892cd7c410117d698c8abd08309eaf8ef51fccba834aad7070d84cf3f98 -->
<g id="edge29" class="edge">
<title>_9bbdd46e8d2673525110cd4217bbb24851e8d0894dd69c67befc0d2cf831f46b&#45;&gt;_c479d892cd7c410117d698c8abd08309eaf8ef51fccba834aad7070d84cf3f98</title>
<path fill="none" stroke="dimgray" stroke-dasharray="1,5" d="M995.82,-485.69C1040.04,-502.37 1083.39,-518.72 1098.95,-524.59"/>
<polygon fill="dimgray" stroke="dimgray" points="1104.45,-521.32 1100.92,-530.68 1099.05,-529.97 1102.58,-520.62 1104.45,-521.32"/>
<polyline fill="none" stroke="dimgray" points="1103.62,-526.36 1098.94,-524.59"/>
</g>
<!-- _9422c072d1b0597237569648ef6218ccefad24310c6cc04cf6b6d3eecd95d31d&#45;&gt;_37f9eebc20c9872e39164cbd24a7a771782ee6a5ce23602db491b59167a6d23f -->
<g id="edge20" class="edge">
<title>_9422c072d1b0597237569648ef6218ccefad24310c6cc04cf6b6d3eecd95d31d&#45;&gt;_37f9eebc20c9872e39164cbd24a7a771782ee6a5ce23602db491b59167a6d23f</title>
<path fill="none" stroke="#0000cd" d="M765.76,-728.63C697.83,-743.56 623.26,-759.96 561.07,-773.64"/>
<polygon fill="#0000cd" stroke="#0000cd" points="560.5,-770.18 551.49,-775.75 562,-777.02 560.5,-770.18"/>
<text xml:space="preserve" text-anchor="middle" x="709.06" y="-749" font-family="Times,serif" font-size="10.00">wasInformedBy</text>
</g>
<!-- _ec1e1f85b73d17101e886dffedb1365a634fa0cb4571c2a53c5d8ebd6a5f6652 -->
<g id="node22" class="node">
<title>_ec1e1f85b73d17101e886dffedb1365a634fa0cb4571c2a53c5d8ebd6a5f6652</title>
<g id="a_node22"><a xlink:title="ID &#45; http://example.org/kb/Start&#45;abb5ef21&#45;39c3&#45;52aa&#45;bf4b&#45;eff16dd0d6c5&#10;&#10;2023&#45;08&#45;16T16:44:02+00:00&#10;&#10;Start of http://example.org/kb/InvestigativeAction&#45;e55a3d16&#45;a516&#45;4ebe&#45;bba2&#45;cf7aa9a6b8ba">
<ellipse fill="lightgray" stroke="dimgray" cx="1146" cy="-805" rx="1.8" ry="1.8"/>
</a>
</g>
</g>
<!-- _9422c072d1b0597237569648ef6218ccefad24310c6cc04cf6b6d3eecd95d31d&#45;&gt;_ec1e1f85b73d17101e886dffedb1365a634fa0cb4571c2a53c5d8ebd6a5f6652 -->
<g id="edge38" class="edge">
<title>_9422c072d1b0597237569648ef6218ccefad24310c6cc04cf6b6d3eecd95d31d&#45;&gt;_ec1e1f85b73d17101e886dffedb1365a634fa0cb4571c2a53c5d8ebd6a5f6652</title>
<path fill="none" stroke="dimgray" stroke-dasharray="1,5" d="M1031.4,-729.64C1074.45,-757.57 1124.8,-790.25 1140.83,-800.64"/>
<polygon fill="dimgray" stroke="dimgray" points="1146.77,-798.54 1141.33,-806.93 1139.65,-805.84 1145.09,-797.45 1146.77,-798.54"/>
<polyline fill="none" stroke="dimgray" points="1144.89,-803.28 1140.69,-800.56"/>
</g>
<!-- _1a1861dacbd91e3c59f82601e4db857773d94396b76177b91d7236035ea313a9 -->
<g id="node12" class="node">
<title>_1a1861dacbd91e3c59f82601e4db857773d94396b76177b91d7236035ea313a9</title>
<g id="a_node12"><a xlink:title="ID &#45; http://example.org/kb/End&#45;1ef8669b&#45;8baf&#45;5dea&#45;8a44&#45;bdc3e3900e36&#10;&#10;2023&#45;08&#45;31T09:35:13+00:00&#10;&#10;End of http://example.org/kb/InvestigativeAction&#45;db5f7449&#45;256e&#45;4d16&#45;9486&#45;6c7f3524c070">
<ellipse fill="lightgray" stroke="dimgray" cx="1105" cy="-319.5" rx="1.8" ry="1.8"/>
</a>
</g>
</g>
<!-- _1a1861dacbd91e3c59f82601e4db857773d94396b76177b91d7236035ea313a9&#45;&gt;_9bbdd46e8d2673525110cd4217bbb24851e8d0894dd69c67befc0d2cf831f46b -->
<g id="edge24" class="edge">
<title>_1a1861dacbd91e3c59f82601e4db857773d94396b76177b91d7236035ea313a9&#45;&gt;_9bbdd46e8d2673525110cd4217bbb24851e8d0894dd69c67befc0d2cf831f46b</title>
<path fill="none" stroke="dimgray" stroke-dasharray="1,5" d="M1102.78,-325.81C1097.85,-336.98 1084.89,-363.08 1066,-377.25 1057.34,-383.75 1047.96,-389.58 1038.18,-394.82"/>
<polygon fill="dimgray" stroke="dimgray" points="1099.63,-320.44 1108.84,-324.33 1108.06,-326.17 1098.85,-322.28 1099.63,-320.44"/>
<polyline fill="none" stroke="dimgray" points="1104.62,-321.46 1102.67,-326.07"/>
</g>
<!-- _1a1861dacbd91e3c59f82601e4db857773d94396b76177b91d7236035ea313a9&#45;&gt;_c479d892cd7c410117d698c8abd08309eaf8ef51fccba834aad7070d84cf3f98 -->
<g id="edge27" class="edge">
<title>_1a1861dacbd91e3c59f82601e4db857773d94396b76177b91d7236035ea313a9&#45;&gt;_c479d892cd7c410117d698c8abd08309eaf8ef51fccba834aad7070d84cf3f98</title>
<path fill="none" stroke="dimgray" stroke-dasharray="1,5" d="M1105,-321.42C1105,-333.98 1105,-471.46 1105,-514.24"/>
<polygon fill="dimgray" stroke="dimgray" points="1101.5,-514.14 1105,-524.14 1108.5,-514.14 1101.5,-514.14"/>
</g>
<!-- _1a1861dacbd91e3c59f82601e4db857773d94396b76177b91d7236035ea313a9&#45;&gt;_e9594b10ebe9d9595f26eba472d4f3b3493e165ea3d70825ebd590e1638dd080 -->
<g id="edge31" class="edge">
<title>_1a1861dacbd91e3c59f82601e4db857773d94396b76177b91d7236035ea313a9&#45;&gt;_e9594b10ebe9d9595f26eba472d4f3b3493e165ea3d70825ebd590e1638dd080</title>
<path fill="none" stroke="dimgray" stroke-dasharray="1,5" d="M1106.99,-320.51C1136.1,-320.67 1476.1,-324.07 1536,-395.25 1561.75,-425.86 1551.61,-448.42 1536,-485.25 1529.54,-500.48 1514.48,-512.87 1504.02,-520.06"/>
<polygon fill="dimgray" stroke="dimgray" points="1502.31,-517 1495.7,-525.29 1506.03,-522.93 1502.31,-517"/>
</g>
<!-- _941cedffd714375aa75fe1003745a62c9cebc33d2375904406e302259d479812 -->
<g id="node13" class="node">
<title>_941cedffd714375aa75fe1003745a62c9cebc33d2375904406e302259d479812</title>
<g id="a_node13"><a xlink:title="ID &#45; http://example.org/kb/End&#45;316a5875&#45;8738&#45;5291&#45;9f98&#45;479a5a80f34a&#10;&#10;2023&#45;08&#45;31T09:35:13+00:00&#10;&#10;End of http://example.org/kb/InvestigativeAction&#45;a5c03fc1&#45;092d&#45;4c1a&#45;9142&#45;adf22966ba93">
<ellipse fill="lightgray" stroke="dimgray" cx="1593" cy="-319.5" rx="1.8" ry="1.8"/>
</a>
</g>
</g>
<!-- _941cedffd714375aa75fe1003745a62c9cebc33d2375904406e302259d479812&#45;&gt;_4e438e9fb00fe1ad3daefb49c7a4c04de96d25d5fae889a5c340b9f810153a4b -->
<g id="edge23" class="edge">
<title>_941cedffd714375aa75fe1003745a62c9cebc33d2375904406e302259d479812&#45;&gt;_4e438e9fb00fe1ad3daefb49c7a4c04de96d25d5fae889a5c340b9f810153a4b</title>
<path fill="none" stroke="dimgray" stroke-dasharray="1,5" d="M1587.05,-323.19C1565.8,-332.78 1491.55,-366.31 1428.28,-394.88"/>
<polygon fill="dimgray" stroke="dimgray" points="1588.62,-316.99 1592.73,-326.11 1590.91,-326.93 1586.79,-317.82 1588.62,-316.99"/>
<polyline fill="none" stroke="dimgray" points="1591.58,-321.14 1587.03,-323.2"/>
</g>
<!-- _941cedffd714375aa75fe1003745a62c9cebc33d2375904406e302259d479812&#45;&gt;_c479d892cd7c410117d698c8abd08309eaf8ef51fccba834aad7070d84cf3f98 -->
<g id="edge28" class="edge">
<title>_941cedffd714375aa75fe1003745a62c9cebc33d2375904406e302259d479812&#45;&gt;_c479d892cd7c410117d698c8abd08309eaf8ef51fccba834aad7070d84cf3f98</title>
<path fill="none" stroke="dimgray" stroke-dasharray="1,5" d="M1593.02,-321.25C1593.22,-331.3 1594.02,-439.57 1536,-485.25 1502.3,-511.78 1186.14,-524.09 1117.93,-526.45"/>
<polygon fill="dimgray" stroke="dimgray" points="1118.15,-522.94 1108.27,-526.77 1118.38,-529.94 1118.15,-522.94"/>
</g>
<!-- _941cedffd714375aa75fe1003745a62c9cebc33d2375904406e302259d479812&#45;&gt;_e9594b10ebe9d9595f26eba472d4f3b3493e165ea3d70825ebd590e1638dd080 -->
<g id="edge32" class="edge">
<title>_941cedffd714375aa75fe1003745a62c9cebc33d2375904406e302259d479812&#45;&gt;_e9594b10ebe9d9595f26eba472d4f3b3493e165ea3d70825ebd590e1638dd080</title>
<path fill="none" stroke="dimgray" stroke-dasharray="1,5" d="M1593.42,-321.28C1598.93,-331.67 1656.54,-443.92 1607,-504.25 1594.31,-519.7 1532.94,-524.79 1505.87,-526.3"/>
<polygon fill="dimgray" stroke="dimgray" points="1506.04,-522.79 1496.21,-526.75 1506.37,-529.78 1506.04,-522.79"/>
</g>
<!-- _eafda45e24c45b2a6968a3883eb777b5bd16123cdc32da16d107fb5ff0b646c9 -->
<g id="node14" class="node">
<title>_eafda45e24c45b2a6968a3883eb777b5bd16123cdc32da16d107fb5ff0b646c9</title>
<g id="a_node14"><a xlink:title="ID &#45; http://example.org/kb/End&#45;812f48a7&#45;e7d2&#45;536f&#45;b7ba&#45;43ca6323ce3a&#10;&#10;2023&#45;08&#45;16T16:45:38+00:00&#10;&#10;End of http://example.org/kb/InvestigativeAction&#45;e55a3d16&#45;a516&#45;4ebe&#45;bba2&#45;cf7aa9a6b8ba">
<ellipse fill="lightgray" stroke="dimgray" cx="1178" cy="-586.37" rx="1.8" ry="1.8"/>
</a>
</g>
</g>
<!-- _eafda45e24c45b2a6968a3883eb777b5bd16123cdc32da16d107fb5ff0b646c9&#45;&gt;_9422c072d1b0597237569648ef6218ccefad24310c6cc04cf6b6d3eecd95d31d -->
<g id="edge25" class="edge">
<title>_eafda45e24c45b2a6968a3883eb777b5bd16123cdc32da16d107fb5ff0b646c9&#45;&gt;_9422c072d1b0597237569648ef6218ccefad24310c6cc04cf6b6d3eecd95d31d</title>
<path fill="none" stroke="dimgray" stroke-dasharray="1,5" d="M1175.06,-592.26C1170.42,-599.58 1160.69,-613.38 1149,-621.25 1139.4,-627.71 1129.07,-633.55 1118.37,-638.82"/>
<polygon fill="dimgray" stroke="dimgray" points="1172.64,-586.63 1181.18,-591.83 1180.14,-593.54 1171.6,-588.34 1172.64,-586.63"/>
<polyline fill="none" stroke="dimgray" points="1177.43,-588.38 1174.83,-592.65"/>
</g>
<!-- _eafda45e24c45b2a6968a3883eb777b5bd16123cdc32da16d107fb5ff0b646c9&#45;&gt;_ec1e1f85b73d17101e886dffedb1365a634fa0cb4571c2a53c5d8ebd6a5f6652 -->
<g id="edge37" class="edge">
<title>_eafda45e24c45b2a6968a3883eb777b5bd16123cdc32da16d107fb5ff0b646c9&#45;&gt;_ec1e1f85b73d17101e886dffedb1365a634fa0cb4571c2a53c5d8ebd6a5f6652</title>
<path fill="none" stroke="dimgray" stroke-dasharray="1,5" d="M1178.03,-588.52C1178.27,-598.5 1179.57,-671.47 1169,-729.25 1164.79,-752.25 1155.84,-778.13 1150.43,-792.6"/>
<polygon fill="dimgray" stroke="dimgray" points="1147.31,-790.97 1146.97,-801.56 1153.84,-793.49 1147.31,-790.97"/>
</g>
<!-- _c479d892cd7c410117d698c8abd08309eaf8ef51fccba834aad7070d84cf3f98&#45;&gt;_eafda45e24c45b2a6968a3883eb777b5bd16123cdc32da16d107fb5ff0b646c9 -->
<g id="edge21" class="edge">
<title>_c479d892cd7c410117d698c8abd08309eaf8ef51fccba834aad7070d84cf3f98&#45;&gt;_eafda45e24c45b2a6968a3883eb777b5bd16123cdc32da16d107fb5ff0b646c9</title>
<path fill="none" stroke="dimgray" stroke-dasharray="1,5" d="M1105.16,-530.12C1105.84,-534.98 1108.97,-552.98 1119,-562.75 1131.79,-575.21 1152.16,-580.97 1165.31,-583.52"/>
<polygon fill="dimgray" stroke="dimgray" points="1164.38,-586.91 1174.79,-584.98 1165.44,-580 1164.38,-586.91"/>
</g>
<!-- _e9594b10ebe9d9595f26eba472d4f3b3493e165ea3d70825ebd590e1638dd080&#45;&gt;_eafda45e24c45b2a6968a3883eb777b5bd16123cdc32da16d107fb5ff0b646c9 -->
<g id="edge22" class="edge">
<title>_e9594b10ebe9d9595f26eba472d4f3b3493e165ea3d70825ebd590e1638dd080&#45;&gt;_eafda45e24c45b2a6968a3883eb777b5bd16123cdc32da16d107fb5ff0b646c9</title>
<path fill="none" stroke="dimgray" stroke-dasharray="1,5" d="M1491.31,-529.18C1469.7,-533.05 1247.94,-572.83 1191.18,-583.01"/>
<polygon fill="dimgray" stroke="dimgray" points="1190.56,-579.57 1181.33,-584.78 1191.8,-586.46 1190.56,-579.57"/>
</g>
</g>
</svg>
