<?xml version="1.0" encoding="UTF-8" standalone="no"?>
<!DOCTYPE svg PUBLIC "-//W3C//DTD SVG 1.1//EN"
 "http://www.w3.org/Graphics/SVG/1.1/DTD/svg11.dtd">
<!-- Generated by graphviz version 9.0.0 (20230911.1827)
 -->
<!-- Title: abstraction Pages: 1 -->
<svg width="1250pt" height="500pt"
 viewBox="0.00 0.00 1250.37 499.95" xmlns="http://www.w3.org/2000/svg" xmlns:xlink="http://www.w3.org/1999/xlink">
<g id="graph0" class="graph" transform="scale(1 1) rotate(0) translate(4 495.95)">
<title>abstraction</title>
<polygon fill="white" stroke="none" points="-4,4 -4,-495.95 1246.37,-495.95 1246.37,4 -4,4"/>
<!-- n_t -->
<g id="node1" class="node">
<title>n_t</title>
<ellipse fill="none" stroke="blue" cx="615.87" cy="-462.96" rx="129.05" ry="28.99"/>
<text text-anchor="middle" x="615.87" y="-466.16" font-family="Times,serif" font-size="14.00" fill="blue">T (object):</text>
<text text-anchor="middle" x="615.87" y="-449.66" font-family="Times,serif" font-size="14.00" fill="blue">A obo:BFO_0000001 (Entity).</text>
</g>
<!-- n_e -->
<g id="node2" class="node">
<title>n_e</title>
<ellipse fill="none" stroke="blue" cx="615.87" cy="-312.64" rx="155.03" ry="52.33"/>
<text text-anchor="middle" x="615.87" y="-332.34" font-family="Times,serif" font-size="14.00" fill="blue">E (object):</text>
<text text-anchor="middle" x="615.87" y="-315.84" font-family="Times,serif" font-size="14.00" fill="blue">The existence interval of T.</text>
<text text-anchor="middle" x="615.87" y="-299.34" font-family="Times,serif" font-size="14.00" fill="blue">obo:BFO_0000038 (one&#45;dimensional</text>
<text text-anchor="middle" x="615.87" y="-282.84" font-family="Times,serif" font-size="14.00" fill="blue">temporal region)</text>
</g>
<!-- n_t&#45;&gt;n_e -->
<g id="edge1" class="edge">
<title>n_t&#45;&gt;n_e</title>
<path fill="none" stroke="blue" d="M615.87,-433.71C615.87,-417.48 615.87,-396.4 615.87,-376.45"/>
<polygon fill="blue" stroke="blue" points="619.37,-376.71 615.87,-366.71 612.37,-376.71 619.37,-376.71"/>
<text text-anchor="middle" x="696.49" y="-402.67" font-family="Times,serif" font-size="14.00" fill="blue">T hasExistenceInterval E</text>
<text text-anchor="middle" x="696.49" y="-386.17" font-family="Times,serif" font-size="14.00" fill="blue">obo:BFO_0000108 (exists at)</text>
</g>
<!-- n_t0 -->
<g id="node3" class="node">
<title>n_t0</title>
<ellipse fill="none" stroke="blue" cx="187.87" cy="-134.16" rx="157.15" ry="40.66"/>
<text text-anchor="middle" x="187.87" y="-145.61" font-family="Times,serif" font-size="14.00" fill="blue">T0 (object):</text>
<text text-anchor="middle" x="187.87" y="-129.11" font-family="Times,serif" font-size="14.00" fill="blue">The instant that is the beginning of E.</text>
<text text-anchor="middle" x="187.87" y="-112.61" font-family="Times,serif" font-size="14.00" fill="blue">obo:BFO_0000203 (temporal instant)</text>
</g>
<!-- n_t&#45;&gt;n_t0 -->
<g id="edge2" class="edge">
<title>n_t&#45;&gt;n_t0</title>
<path fill="none" stroke="silver" d="M520.39,-443.17C460.84,-428.4 384.5,-403.71 325.12,-364.97 263.48,-324.76 248.33,-307.34 213.87,-242.32 204.77,-225.16 198.8,-204.77 194.91,-186.41"/>
<polygon fill="silver" stroke="silver" points="198.38,-185.92 193.03,-176.77 191.51,-187.25 198.38,-185.92"/>
<text text-anchor="middle" x="389.24" y="-307.59" font-family="Times,serif" font-size="14.00" fill="silver">T existsAtAndSince T0</text>
</g>
<!-- n_t1 -->
<g id="node4" class="node">
<title>n_t1</title>
<ellipse fill="none" stroke="blue" cx="723.87" cy="-134.16" rx="156.62" ry="40.66"/>
<text text-anchor="middle" x="723.87" y="-145.61" font-family="Times,serif" font-size="14.00" fill="blue">T1 (object):</text>
<text text-anchor="middle" x="723.87" y="-129.11" font-family="Times,serif" font-size="14.00" fill="blue">The instant that is the end of E.</text>
<text text-anchor="middle" x="723.87" y="-112.61" font-family="Times,serif" font-size="14.00" fill="blue">obo:BFO_0000203 (temporal instant)</text>
</g>
<!-- n_t&#45;&gt;n_t1 -->
<g id="edge3" class="edge">
<title>n_t&#45;&gt;n_t1</title>
<path fill="none" stroke="silver" d="M715.39,-444.13C744.74,-436.81 771.53,-427.35 780.87,-415.97 843.86,-339.15 836.26,-282.66 793.87,-192.82 791.95,-188.77 789.6,-184.91 786.94,-181.24"/>
<polygon fill="silver" stroke="silver" points="789.76,-179.17 780.68,-173.71 784.38,-183.64 789.76,-179.17"/>
<text text-anchor="middle" x="871.74" y="-307.59" font-family="Times,serif" font-size="14.00" fill="silver">T existsUntil T1</text>
</g>
<!-- l_ts0 -->
<g id="node5" class="node">
<title>l_ts0</title>
<polygon fill="none" stroke="silver" points="274.99,-41 100.74,-41 100.74,0 274.99,0 274.99,-41"/>
<text text-anchor="middle" x="187.87" y="-23.7" font-family="Times,serif" font-size="14.00" fill="silver">ts0 (literal):</text>
<text text-anchor="middle" x="187.87" y="-7.2" font-family="Times,serif" font-size="14.00" fill="silver">2020&#45;01&#45;02T03:04:05.6789Z</text>
</g>
<!-- n_t&#45;&gt;l_ts0 -->
<g id="edge4" class="edge">
<title>n_t&#45;&gt;l_ts0</title>
<path fill="none" stroke="silver" d="M491.13,-455.04C352.74,-439.85 135.74,-391.99 35.37,-242.32 -1.63,-187.16 -14.57,-149.02 21.87,-93.5 37.61,-69.5 63.27,-53.46 89.75,-42.76"/>
<polygon fill="silver" stroke="silver" points="90.78,-46.11 98.9,-39.31 88.31,-39.56 90.78,-46.11"/>
<text text-anchor="middle" x="114.62" y="-212.52" font-family="Times,serif" font-size="14.00" fill="silver">T hasCreationTimestamp ts0</text>
</g>
<!-- l_ts1 -->
<g id="node6" class="node">
<title>l_ts1</title>
<polygon fill="none" stroke="silver" points="1003.99,-41 829.74,-41 829.74,0 1003.99,0 1003.99,-41"/>
<text text-anchor="middle" x="916.87" y="-23.7" font-family="Times,serif" font-size="14.00" fill="silver">ts1 (literal):</text>
<text text-anchor="middle" x="916.87" y="-7.2" font-family="Times,serif" font-size="14.00" fill="silver">2021&#45;02&#45;03T04:05:06.7890Z</text>
</g>
<!-- n_t&#45;&gt;l_ts1 -->
<g id="edge5" class="edge">
<title>n_t&#45;&gt;l_ts1</title>
<path fill="none" stroke="silver" d="M710.13,-442.96C741.29,-435.7 775.89,-426.58 806.87,-415.97 957.2,-364.45 1018.53,-324.87 1070.87,-174.82 1082.77,-140.69 1090.27,-123.99 1070.87,-93.5 1057.06,-71.81 1034.82,-56.54 1011.49,-45.84"/>
<polygon fill="silver" stroke="silver" points="1013.04,-42.7 1002.47,-41.98 1010.28,-49.14 1013.04,-42.7"/>
<text text-anchor="middle" x="1153.12" y="-212.52" font-family="Times,serif" font-size="14.00" fill="silver">T hasTerminationTimestamp ts1</text>
</g>
<!-- n_e&#45;&gt;n_t0 -->
<g id="edge6" class="edge">
<title>n_e&#45;&gt;n_t0</title>
<path fill="none" stroke="blue" d="M479.57,-287.33C384.17,-269.92 272.1,-248.5 262.62,-242.32 241.04,-228.25 223.91,-205.59 211.51,-184.72"/>
<polygon fill="blue" stroke="blue" points="214.71,-183.27 206.73,-176.3 208.62,-186.72 214.71,-183.27"/>
<text text-anchor="middle" x="314.99" y="-229.02" font-family="Times,serif" font-size="14.00" fill="blue">E hasStart T0</text>
<text text-anchor="middle" x="314.99" y="-212.52" font-family="Times,serif" font-size="14.00" fill="blue">obo:BFO_0000222</text>
<text text-anchor="middle" x="314.99" y="-196.02" font-family="Times,serif" font-size="14.00" fill="blue">(has first instant)</text>
</g>
<!-- n_e&#45;&gt;n_t1 -->
<g id="edge7" class="edge">
<title>n_e&#45;&gt;n_t1</title>
<path fill="none" stroke="blue" d="M646.81,-261.07C661.55,-236.99 679.11,-208.3 693.74,-184.39"/>
<polygon fill="blue" stroke="blue" points="696.58,-186.45 698.81,-176.1 690.61,-182.8 696.58,-186.45"/>
<text text-anchor="middle" x="737.99" y="-229.02" font-family="Times,serif" font-size="14.00" fill="blue">E hasEnd T1</text>
<text text-anchor="middle" x="737.99" y="-212.52" font-family="Times,serif" font-size="14.00" fill="blue">obo:BFO_0000224</text>
<text text-anchor="middle" x="737.99" y="-196.02" font-family="Times,serif" font-size="14.00" fill="blue">(has last instant)</text>
</g>
<!-- n_e&#45;&gt;l_ts0 -->
<g id="edge8" class="edge">
<title>n_e&#45;&gt;l_ts0</title>
<path fill="none" stroke="silver" d="M521.1,-270.8C476.64,-247.83 425.69,-215.54 389.87,-174.82 363.76,-145.14 378.14,-124.69 353.87,-93.5 338.6,-73.89 331.89,-70.51 309.87,-59 300,-53.84 289.3,-49.26 278.49,-45.24"/>
<polygon fill="silver" stroke="silver" points="279.68,-41.95 269.08,-41.9 277.33,-48.54 279.68,-41.95"/>
<text text-anchor="middle" x="473.87" y="-129.11" font-family="Times,serif" font-size="14.00" fill="silver">E hasBeginningTimestamp ts0</text>
</g>
<!-- n_e&#45;&gt;l_ts1 -->
<g id="edge9" class="edge">
<title>n_e&#45;&gt;l_ts1</title>
<path fill="none" stroke="silver" d="M740.26,-281.13C795.88,-260.7 856.35,-227.55 889.87,-174.82 913.56,-137.54 918,-85.37 918.12,-52.52"/>
<polygon fill="silver" stroke="silver" points="921.62,-52.83 918.01,-42.87 914.63,-52.91 921.62,-52.83"/>
<text text-anchor="middle" x="991.24" y="-129.11" font-family="Times,serif" font-size="14.00" fill="silver">E hasEndingTimestamp ts1</text>
</g>
<!-- n_t0&#45;&gt;l_ts0 -->
<g id="edge10" class="edge">
<title>n_t0&#45;&gt;l_ts0</title>
<path fill="none" stroke="silver" d="M187.87,-93.16C187.87,-79.79 187.87,-65.1 187.87,-52.51"/>
<polygon fill="silver" stroke="silver" points="191.37,-52.72 187.87,-42.72 184.37,-52.72 191.37,-52.72"/>
<text text-anchor="middle" x="247.12" y="-62.2" font-family="Times,serif" font-size="14.00" fill="silver">T0 hasTimestamp ts0</text>
</g>
<!-- n_t1&#45;&gt;l_ts1 -->
<g id="edge11" class="edge">
<title>n_t1&#45;&gt;l_ts1</title>
<path fill="none" stroke="silver" d="M748.71,-93.88C758.45,-81.17 770.62,-68.03 784.37,-59 794.87,-52.1 806.66,-46.45 818.75,-41.83"/>
<polygon fill="silver" stroke="silver" points="819.76,-45.19 828,-38.54 817.41,-38.59 819.76,-45.19"/>
<text text-anchor="middle" x="844.12" y="-62.2" font-family="Times,serif" font-size="14.00" fill="silver">T1 hasTimestamp ts1</text>
</g>
</g>
</svg>
