<?xml version="1.0" encoding="UTF-8" standalone="no"?>
<!DOCTYPE svg PUBLIC "-//W3C//DTD SVG 1.1//EN"
 "http://www.w3.org/Graphics/SVG/1.1/DTD/svg11.dtd">
<!-- Generated by graphviz version 9.0.0 (20230911.1827)
 -->
<!-- Title: abstraction Pages: 1 -->
<svg width="1187pt" height="397pt"
 viewBox="0.00 0.00 1186.61 396.95" xmlns="http://www.w3.org/2000/svg" xmlns:xlink="http://www.w3.org/1999/xlink">
<g id="graph0" class="graph" transform="scale(1 1) rotate(0) translate(4 392.95)">
<title>abstraction</title>
<polygon fill="white" stroke="none" points="-4,4 -4,-392.95 1182.61,-392.95 1182.61,4 -4,4"/>
<!-- n_t -->
<g id="node1" class="node">
<title>n_t</title>
<ellipse fill="none" stroke="blue" cx="584.11" cy="-359.96" rx="104.65" ry="28.99"/>
<text text-anchor="middle" x="584.11" y="-363.16" font-family="Times,serif" font-size="14.00" fill="blue">T (object):</text>
<text text-anchor="middle" x="584.11" y="-346.66" font-family="Times,serif" font-size="14.00" fill="blue">A uco&#45;core:Relationship</text>
</g>
<!-- n_e -->
<g id="node2" class="node">
<title>n_e</title>
<ellipse fill="none" stroke="silver" cx="584.11" cy="-249.47" rx="116.85" ry="28.99"/>
<text text-anchor="middle" x="584.11" y="-252.67" font-family="Times,serif" font-size="14.00" fill="silver">E (object):</text>
<text text-anchor="middle" x="584.11" y="-236.17" font-family="Times,serif" font-size="14.00" fill="silver">The existence interval of T.</text>
</g>
<!-- n_t&#45;&gt;n_e -->
<g id="edge1" class="edge">
<title>n_t&#45;&gt;n_e</title>
<path fill="none" stroke="silver" d="M584.11,-330.74C584.11,-318.4 584.11,-303.72 584.11,-290.3"/>
<polygon fill="silver" stroke="silver" points="587.61,-290.44 584.11,-280.44 580.61,-290.44 587.61,-290.44"/>
<text text-anchor="middle" x="651.99" y="-299.67" font-family="Times,serif" font-size="14.00" fill="silver">T hasExistenceInterval E</text>
</g>
<!-- n_t0 -->
<g id="node3" class="node">
<title>n_t0</title>
<ellipse fill="none" stroke="silver" cx="179.11" cy="-122.49" rx="157.15" ry="28.99"/>
<text text-anchor="middle" x="179.11" y="-125.69" font-family="Times,serif" font-size="14.00" fill="silver">T0 (object):</text>
<text text-anchor="middle" x="179.11" y="-109.19" font-family="Times,serif" font-size="14.00" fill="silver">The instant that is the beginning of E.</text>
</g>
<!-- n_t&#45;&gt;n_t0 -->
<g id="edge2" class="edge">
<title>n_t&#45;&gt;n_t0</title>
<path fill="none" stroke="silver" d="M504.32,-340.79C453.2,-327.43 386.38,-306.67 331.36,-278.47 280.98,-252.64 267.63,-243.99 229.11,-202.48 217.74,-190.23 207.43,-175.05 199.16,-161.28"/>
<polygon fill="silver" stroke="silver" points="202.33,-159.76 194.28,-152.87 196.28,-163.28 202.33,-159.76"/>
<text text-anchor="middle" x="395.49" y="-244.42" font-family="Times,serif" font-size="14.00" fill="silver">T existsAtAndSince T0</text>
</g>
<!-- n_t1 -->
<g id="node4" class="node">
<title>n_t1</title>
<ellipse fill="none" stroke="silver" cx="691.11" cy="-122.49" rx="132.76" ry="28.99"/>
<text text-anchor="middle" x="691.11" y="-125.69" font-family="Times,serif" font-size="14.00" fill="silver">T1 (object):</text>
<text text-anchor="middle" x="691.11" y="-109.19" font-family="Times,serif" font-size="14.00" fill="silver">The instant that is the end of E.</text>
</g>
<!-- n_t&#45;&gt;n_t1 -->
<g id="edge3" class="edge">
<title>n_t&#45;&gt;n_t1</title>
<path fill="none" stroke="silver" d="M676.69,-346.27C695.19,-339.37 712.49,-328.87 724.11,-312.97 761.75,-261.48 745.07,-230.05 725.11,-169.48 724.17,-166.62 722.97,-163.79 721.59,-161.02"/>
<polygon fill="silver" stroke="silver" points="724.77,-159.52 716.71,-152.66 718.73,-163.06 724.77,-159.52"/>
<text text-anchor="middle" x="790.99" y="-244.42" font-family="Times,serif" font-size="14.00" fill="silver">T existsUntil T1</text>
</g>
<!-- l_ts0 -->
<g id="node5" class="node">
<title>l_ts0</title>
<polygon fill="none" stroke="blue" points="266.24,-41 91.99,-41 91.99,0 266.24,0 266.24,-41"/>
<text text-anchor="middle" x="179.11" y="-23.7" font-family="Times,serif" font-size="14.00" fill="blue">ts0 (literal):</text>
<text text-anchor="middle" x="179.11" y="-7.2" font-family="Times,serif" font-size="14.00" fill="blue">2020&#45;01&#45;02T03:04:05.6789Z</text>
</g>
<!-- n_t&#45;&gt;l_ts0 -->
<g id="edge4" class="edge">
<title>n_t&#45;&gt;l_ts0</title>
<path fill="none" stroke="blue" d="M481.53,-353.63C363.42,-342.48 169.55,-308.1 43.61,-202.48 5.08,-170.16 -14.48,-135.55 13.11,-93.5 28.86,-69.5 54.52,-53.46 81,-42.76"/>
<polygon fill="blue" stroke="blue" points="82.03,-46.11 90.15,-39.31 79.56,-39.56 82.03,-46.11"/>
<text text-anchor="middle" x="122.86" y="-189.18" font-family="Times,serif" font-size="14.00" fill="blue">T hasCreationTimestamp ts0</text>
<text text-anchor="middle" x="122.86" y="-172.68" font-family="Times,serif" font-size="14.00" fill="blue">uco&#45;core:startTime</text>
</g>
<!-- l_ts1 -->
<g id="node6" class="node">
<title>l_ts1</title>
<polygon fill="none" stroke="blue" points="947.24,-41 772.99,-41 772.99,0 947.24,0 947.24,-41"/>
<text text-anchor="middle" x="860.11" y="-23.7" font-family="Times,serif" font-size="14.00" fill="blue">ts1 (literal):</text>
<text text-anchor="middle" x="860.11" y="-7.2" font-family="Times,serif" font-size="14.00" fill="blue">2021&#45;02&#45;03T04:05:06.7890Z</text>
</g>
<!-- n_t&#45;&gt;l_ts1 -->
<g id="edge5" class="edge">
<title>n_t&#45;&gt;l_ts1</title>
<path fill="none" stroke="blue" d="M677.43,-346.4C783.23,-326.37 949.16,-275.79 1012.11,-151.48 1023.76,-128.49 1025.9,-115.28 1012.11,-93.5 998.45,-71.9 976.35,-56.65 953.19,-45.94"/>
<polygon fill="blue" stroke="blue" points="954.82,-42.83 944.25,-42.08 952.04,-49.26 954.82,-42.83"/>
<text text-anchor="middle" x="1089.36" y="-189.18" font-family="Times,serif" font-size="14.00" fill="blue">T hasTerminationTimestamp ts1</text>
<text text-anchor="middle" x="1089.36" y="-172.68" font-family="Times,serif" font-size="14.00" fill="blue">uco&#45;core:endTime</text>
</g>
<!-- n_e&#45;&gt;n_t0 -->
<g id="edge6" class="edge">
<title>n_e&#45;&gt;n_t0</title>
<path fill="none" stroke="silver" d="M468.91,-243.95C411.69,-238.46 342.58,-226.82 284.61,-202.48 259.85,-192.08 235.61,-174.61 216.62,-158.73"/>
<polygon fill="silver" stroke="silver" points="219.03,-156.19 209.16,-152.33 214.47,-161.5 219.03,-156.19"/>
<text text-anchor="middle" x="321.86" y="-180.93" font-family="Times,serif" font-size="14.00" fill="silver">E hasStart T0</text>
</g>
<!-- n_e&#45;&gt;n_t1 -->
<g id="edge7" class="edge">
<title>n_e&#45;&gt;n_t1</title>
<path fill="none" stroke="silver" d="M607.86,-220.74C623.24,-202.78 643.42,-179.2 660.07,-159.76"/>
<polygon fill="silver" stroke="silver" points="662.61,-162.17 666.45,-152.3 657.29,-157.62 662.61,-162.17"/>
<text text-anchor="middle" x="685.99" y="-180.93" font-family="Times,serif" font-size="14.00" fill="silver">E hasEnd T1</text>
</g>
<!-- n_e&#45;&gt;l_ts0 -->
<g id="edge8" class="edge">
<title>n_e&#45;&gt;l_ts0</title>
<path fill="none" stroke="silver" d="M513.44,-226.1C471.49,-210.22 419.23,-185.62 381.11,-151.48 358.52,-131.24 365.36,-116.09 345.11,-93.5 328.53,-74.99 323.14,-70.51 301.11,-59 291.25,-53.84 280.55,-49.26 269.74,-45.24"/>
<polygon fill="silver" stroke="silver" points="270.93,-41.95 260.33,-41.9 268.58,-48.54 270.93,-41.95"/>
<text text-anchor="middle" x="465.11" y="-117.44" font-family="Times,serif" font-size="14.00" fill="silver">E hasBeginningTimestamp ts0</text>
</g>
<!-- n_e&#45;&gt;l_ts1 -->
<g id="edge9" class="edge">
<title>n_e&#45;&gt;l_ts1</title>
<path fill="none" stroke="silver" d="M684.17,-234.21C736.54,-221.42 797.09,-197.22 833.11,-151.48 855.33,-123.28 860.51,-81.28 861.16,-52.71"/>
<polygon fill="silver" stroke="silver" points="864.65,-52.9 861.19,-42.89 857.65,-52.87 864.65,-52.9"/>
<text text-anchor="middle" x="932.49" y="-117.44" font-family="Times,serif" font-size="14.00" fill="silver">E hasEndingTimestamp ts1</text>
</g>
<!-- n_t0&#45;&gt;l_ts0 -->
<g id="edge10" class="edge">
<title>n_t0&#45;&gt;l_ts0</title>
<path fill="none" stroke="silver" d="M179.11,-93.11C179.11,-80.46 179.11,-65.54 179.11,-52.59"/>
<polygon fill="silver" stroke="silver" points="182.61,-52.9 179.11,-42.9 175.61,-52.9 182.61,-52.9"/>
<text text-anchor="middle" x="238.36" y="-62.2" font-family="Times,serif" font-size="14.00" fill="silver">T0 hasTimestamp ts0</text>
</g>
<!-- n_t1&#45;&gt;l_ts1 -->
<g id="edge11" class="edge">
<title>n_t1&#45;&gt;l_ts1</title>
<path fill="none" stroke="silver" d="M701.89,-93.24C707.81,-81.12 716.29,-67.77 727.61,-59 737.88,-51.05 749.75,-44.79 762.08,-39.85"/>
<polygon fill="silver" stroke="silver" points="762.93,-43.27 771.1,-36.53 760.51,-36.7 762.93,-43.27"/>
<text text-anchor="middle" x="787.36" y="-62.2" font-family="Times,serif" font-size="14.00" fill="silver">T1 hasTimestamp ts1</text>
</g>
</g>
</svg>
