<?xml version="1.0" encoding="UTF-8" standalone="no"?>
<!DOCTYPE svg PUBLIC "-//W3C//DTD SVG 1.1//EN"
 "http://www.w3.org/Graphics/SVG/1.1/DTD/svg11.dtd">
<!-- Generated by graphviz version 14.0.5 (20251129.0259)
 -->
<!-- Title: abstraction Pages: 1 -->
<svg width="1184pt" height="380pt"
 viewBox="0.00 0.00 1184.00 380.00" xmlns="http://www.w3.org/2000/svg" xmlns:xlink="http://www.w3.org/1999/xlink">
<g id="graph0" class="graph" transform="scale(1 1) rotate(0) translate(4 376.45)">
<title>abstraction</title>
<polygon fill="white" stroke="none" points="-4,4 -4,-376.45 1179.61,-376.45 1179.61,4 -4,4"/>
<!-- n_t -->
<g id="node1" class="node">
<title>n_t</title>
<ellipse fill="none" stroke="black" cx="580.77" cy="-343.46" rx="68.06" ry="28.99"/>
<text xml:space="preserve" text-anchor="middle" x="580.77" y="-346.66" font-family="Times,serif" font-size="14.00">T (object):</text>
<text xml:space="preserve" text-anchor="middle" x="580.77" y="-330.16" font-family="Times,serif" font-size="14.00">An owl:Thing.</text>
</g>
<!-- n_e -->
<g id="node2" class="node">
<title>n_e</title>
<ellipse fill="none" stroke="black" cx="580.77" cy="-232.97" rx="116.85" ry="28.99"/>
<text xml:space="preserve" text-anchor="middle" x="580.77" y="-236.17" font-family="Times,serif" font-size="14.00">E (object):</text>
<text xml:space="preserve" text-anchor="middle" x="580.77" y="-219.67" font-family="Times,serif" font-size="14.00">The existence interval of T.</text>
</g>
<!-- n_t&#45;&gt;n_e -->
<g id="edge1" class="edge">
<title>n_t&#45;&gt;n_e</title>
<path fill="none" stroke="black" d="M580.77,-314.24C580.77,-301.9 580.77,-287.22 580.77,-273.8"/>
<polygon fill="black" stroke="black" points="584.27,-273.94 580.77,-263.94 577.27,-273.94 584.27,-273.94"/>
<text xml:space="preserve" text-anchor="middle" x="648.64" y="-283.17" font-family="Times,serif" font-size="14.00">T hasExistenceInterval E</text>
</g>
<!-- n_t0 -->
<g id="node3" class="node">
<title>n_t0</title>
<ellipse fill="none" stroke="black" cx="175.77" cy="-122.49" rx="157.15" ry="28.99"/>
<text xml:space="preserve" text-anchor="middle" x="175.77" y="-125.69" font-family="Times,serif" font-size="14.00">T0 (object):</text>
<text xml:space="preserve" text-anchor="middle" x="175.77" y="-109.19" font-family="Times,serif" font-size="14.00">The instant that is the beginning of E.</text>
</g>
<!-- n_t&#45;&gt;n_t0 -->
<g id="edge2" class="edge">
<title>n_t&#45;&gt;n_t0</title>
<path fill="none" stroke="black" d="M519.32,-330.59C466.19,-318.58 388.63,-296.75 328.02,-261.97 280.86,-234.9 235.96,-191.07 207.31,-159.98"/>
<polygon fill="black" stroke="black" points="210,-157.74 200.68,-152.69 204.82,-162.45 210,-157.74"/>
<text xml:space="preserve" text-anchor="middle" x="391.39" y="-227.92" font-family="Times,serif" font-size="14.00">T existsAtAndSince T0</text>
</g>
<!-- n_t1 -->
<g id="node4" class="node">
<title>n_t1</title>
<ellipse fill="none" stroke="black" cx="687.77" cy="-122.49" rx="132.76" ry="28.99"/>
<text xml:space="preserve" text-anchor="middle" x="687.77" y="-125.69" font-family="Times,serif" font-size="14.00">T1 (object):</text>
<text xml:space="preserve" text-anchor="middle" x="687.77" y="-109.19" font-family="Times,serif" font-size="14.00">The instant that is the end of E.</text>
</g>
<!-- n_t&#45;&gt;n_t1 -->
<g id="edge3" class="edge">
<title>n_t&#45;&gt;n_t1</title>
<path fill="none" stroke="black" d="M647.51,-337.28C674.81,-331.48 703.89,-319.78 720.77,-296.47 731.89,-281.11 780.93,-389.16 714.77,-169.48 713.95,-166.77 712.94,-164.04 711.8,-161.35"/>
<polygon fill="black" stroke="black" points="715.05,-160.03 707.52,-152.58 708.76,-163.1 715.05,-160.03"/>
<text xml:space="preserve" text-anchor="middle" x="784.84" y="-227.92" font-family="Times,serif" font-size="14.00">T existsUntil T1</text>
</g>
<!-- l_ts0 -->
<g id="node5" class="node">
<title>l_ts0</title>
<polygon fill="none" stroke="black" points="262.89,-41 88.64,-41 88.64,0 262.89,0 262.89,-41"/>
<text xml:space="preserve" text-anchor="middle" x="175.77" y="-23.7" font-family="Times,serif" font-size="14.00">ts0 (literal):</text>
<text xml:space="preserve" text-anchor="middle" x="175.77" y="-7.2" font-family="Times,serif" font-size="14.00">2020&#45;01&#45;02T03:04:05.6789Z</text>
</g>
<!-- n_t&#45;&gt;l_ts0 -->
<g id="edge4" class="edge">
<title>n_t&#45;&gt;l_ts0</title>
<path fill="none" stroke="black" d="M517.43,-332.48C378.62,-309 56.27,-245.1 9.77,-151.48 -1.7,-128.4 -4.37,-115.04 9.77,-93.5 25.52,-69.5 51.17,-53.46 77.65,-42.76"/>
<polygon fill="black" stroke="black" points="78.68,-46.11 86.8,-39.31 76.21,-39.56 78.68,-46.11"/>
<text xml:space="preserve" text-anchor="middle" x="118.97" y="-172.68" font-family="Times,serif" font-size="14.00">T hasCreationTimestamp ts0</text>
</g>
<!-- l_ts1 -->
<g id="node6" class="node">
<title>l_ts1</title>
<polygon fill="none" stroke="black" points="943.89,-41 769.64,-41 769.64,0 943.89,0 943.89,-41"/>
<text xml:space="preserve" text-anchor="middle" x="856.77" y="-23.7" font-family="Times,serif" font-size="14.00">ts1 (literal):</text>
<text xml:space="preserve" text-anchor="middle" x="856.77" y="-7.2" font-family="Times,serif" font-size="14.00">2021&#45;02&#45;03T04:05:06.7890Z</text>
</g>
<!-- n_t&#45;&gt;l_ts1 -->
<g id="edge5" class="edge">
<title>n_t&#45;&gt;l_ts1</title>
<path fill="none" stroke="black" d="M647.04,-336.66C748.25,-323.7 937.21,-282.31 1009.77,-151.48 1022.27,-128.95 1023.58,-115.26 1009.77,-93.5 996,-71.8 973.75,-56.52 950.44,-45.81"/>
<polygon fill="black" stroke="black" points="952.01,-42.67 941.44,-41.95 949.24,-49.11 952.01,-42.67"/>
<text xml:space="preserve" text-anchor="middle" x="1086.36" y="-172.68" font-family="Times,serif" font-size="14.00">T hasTerminationTimestamp ts1</text>
</g>
<!-- n_e&#45;&gt;n_t0 -->
<g id="edge6" class="edge">
<title>n_e&#45;&gt;n_t0</title>
<path fill="none" stroke="black" d="M468.04,-224.91C410.81,-218.78 340.95,-207.34 281.27,-185.98 261.31,-178.84 240.92,-167.8 223.45,-156.98"/>
<polygon fill="black" stroke="black" points="225.66,-154.24 215.35,-151.83 221.91,-160.15 225.66,-154.24"/>
<text xml:space="preserve" text-anchor="middle" x="318.02" y="-172.68" font-family="Times,serif" font-size="14.00">E hasStart T0</text>
</g>
<!-- n_e&#45;&gt;n_t1 -->
<g id="edge7" class="edge">
<title>n_e&#45;&gt;n_t1</title>
<path fill="none" stroke="black" d="M608.05,-204.32C621.63,-190.55 638.21,-173.74 652.72,-159.02"/>
<polygon fill="black" stroke="black" points="654.95,-161.75 659.48,-152.17 649.96,-156.84 654.95,-161.75"/>
<text xml:space="preserve" text-anchor="middle" x="675.55" y="-172.68" font-family="Times,serif" font-size="14.00">E hasEnd T1</text>
</g>
<!-- n_e&#45;&gt;l_ts0 -->
<g id="edge8" class="edge">
<title>n_e&#45;&gt;l_ts0</title>
<path fill="none" stroke="black" d="M497.82,-212.2C458.29,-199.68 412.24,-180.3 377.77,-151.48 354.5,-132.03 362.01,-116.09 341.77,-93.5 325.18,-74.99 319.79,-70.51 297.77,-59 287.9,-53.84 277.21,-49.26 266.39,-45.24"/>
<polygon fill="black" stroke="black" points="267.58,-41.95 256.98,-41.9 265.24,-48.54 267.58,-41.95"/>
<text xml:space="preserve" text-anchor="middle" x="461.77" y="-117.44" font-family="Times,serif" font-size="14.00">E hasBeginningTimestamp ts0</text>
</g>
<!-- n_e&#45;&gt;l_ts1 -->
<g id="edge9" class="edge">
<title>n_e&#45;&gt;l_ts1</title>
<path fill="none" stroke="black" d="M668.53,-213.45C731.07,-198.48 807.8,-175.95 829.77,-151.48 853.99,-124.5 858.64,-81.59 858.62,-52.52"/>
<polygon fill="black" stroke="black" points="862.13,-52.81 858.42,-42.88 855.13,-52.96 862.13,-52.81"/>
<text xml:space="preserve" text-anchor="middle" x="930.42" y="-117.44" font-family="Times,serif" font-size="14.00">E hasEndingTimestamp ts1</text>
</g>
<!-- n_t0&#45;&gt;l_ts0 -->
<g id="edge10" class="edge">
<title>n_t0&#45;&gt;l_ts0</title>
<path fill="none" stroke="black" d="M175.77,-93.11C175.77,-80.46 175.77,-65.54 175.77,-52.59"/>
<polygon fill="black" stroke="black" points="179.27,-52.9 175.77,-42.9 172.27,-52.9 179.27,-52.9"/>
<text xml:space="preserve" text-anchor="middle" x="235.02" y="-62.2" font-family="Times,serif" font-size="14.00">T0 hasTimestamp ts0</text>
</g>
<!-- n_t1&#45;&gt;l_ts1 -->
<g id="edge11" class="edge">
<title>n_t1&#45;&gt;l_ts1</title>
<path fill="none" stroke="black" d="M698.55,-93.24C704.47,-81.12 712.94,-67.77 724.27,-59 734.53,-51.05 746.4,-44.79 758.73,-39.85"/>
<polygon fill="black" stroke="black" points="759.58,-43.27 767.76,-36.53 757.17,-36.7 759.58,-43.27"/>
<text xml:space="preserve" text-anchor="middle" x="783.52" y="-62.2" font-family="Times,serif" font-size="14.00">T1 hasTimestamp ts1</text>
</g>
</g>
</svg>
