<?xml version="1.0" encoding="UTF-8" standalone="no"?>
<!DOCTYPE svg PUBLIC "-//W3C//DTD SVG 1.1//EN"
 "http://www.w3.org/Graphics/SVG/1.1/DTD/svg11.dtd">
<!-- Generated by graphviz version 14.0.5 (20251129.0259)
 -->
<!-- Title: abstraction Pages: 1 -->
<svg width="1198pt" height="493pt"
 viewBox="0.00 0.00 1198.00 493.00" xmlns="http://www.w3.org/2000/svg" xmlns:xlink="http://www.w3.org/1999/xlink">
<g id="graph0" class="graph" transform="scale(1 1) rotate(0) translate(4 489.12)">
<title>abstraction</title>
<polygon fill="white" stroke="none" points="-4,4 -4,-489.12 1193.54,-489.12 1193.54,4 -4,4"/>
<!-- n_t -->
<g id="node1" class="node">
<title>n_t</title>
<ellipse fill="none" stroke="blue" cx="578.63" cy="-456.13" rx="68.06" ry="28.99"/>
<text xml:space="preserve" text-anchor="middle" x="578.63" y="-459.33" font-family="Times,serif" font-size="14.00" fill="blue">T (object):</text>
<text xml:space="preserve" text-anchor="middle" x="578.63" y="-442.83" font-family="Times,serif" font-size="14.00" fill="blue">An owl:Thing.</text>
</g>
<!-- n_e -->
<g id="node2" class="node">
<title>n_e</title>
<ellipse fill="none" stroke="blue" cx="578.63" cy="-317.48" rx="116.85" ry="40.66"/>
<text xml:space="preserve" text-anchor="middle" x="578.63" y="-328.93" font-family="Times,serif" font-size="14.00" fill="blue">E (object):</text>
<text xml:space="preserve" text-anchor="middle" x="578.63" y="-312.43" font-family="Times,serif" font-size="14.00" fill="blue">The existence interval of T.</text>
<text xml:space="preserve" text-anchor="middle" x="578.63" y="-295.93" font-family="Times,serif" font-size="14.00" fill="blue">time:Interval</text>
</g>
<!-- n_t&#45;&gt;n_e -->
<g id="edge1" class="edge">
<title>n_t&#45;&gt;n_e</title>
<path fill="none" stroke="blue" d="M578.63,-426.81C578.63,-410.36 578.63,-389.12 578.63,-369.81"/>
<polygon fill="blue" stroke="blue" points="582.13,-369.93 578.63,-359.93 575.13,-369.93 582.13,-369.93"/>
<text xml:space="preserve" text-anchor="middle" x="646.51" y="-395.83" font-family="Times,serif" font-size="14.00" fill="blue">T hasExistenceInterval E</text>
<text xml:space="preserve" text-anchor="middle" x="646.51" y="-379.33" font-family="Times,serif" font-size="14.00" fill="blue">time:hasTime</text>
</g>
<!-- n_t0 -->
<g id="node3" class="node">
<title>n_t0</title>
<ellipse fill="none" stroke="blue" cx="181.63" cy="-167.16" rx="157.15" ry="40.66"/>
<text xml:space="preserve" text-anchor="middle" x="181.63" y="-178.61" font-family="Times,serif" font-size="14.00" fill="blue">T0 (object):</text>
<text xml:space="preserve" text-anchor="middle" x="181.63" y="-162.11" font-family="Times,serif" font-size="14.00" fill="blue">The instant that is the beginning of E.</text>
<text xml:space="preserve" text-anchor="middle" x="181.63" y="-145.61" font-family="Times,serif" font-size="14.00" fill="blue">time:Instant</text>
</g>
<!-- n_t&#45;&gt;n_t0 -->
<g id="edge2" class="edge">
<title>n_t&#45;&gt;n_t0</title>
<path fill="none" stroke="silver" d="M521.6,-439.96C468.44,-424.31 388.22,-396.73 325.88,-358.13 270.37,-323.76 254.67,-312.59 217.63,-258.82 209.29,-246.71 202.47,-232.39 197.09,-218.75"/>
<polygon fill="silver" stroke="silver" points="200.39,-217.58 193.62,-209.44 193.83,-220.03 200.39,-217.58"/>
<text xml:space="preserve" text-anchor="middle" x="389.26" y="-312.43" font-family="Times,serif" font-size="14.00" fill="silver">T existsAtAndSince T0</text>
</g>
<!-- n_t1 -->
<g id="node4" class="node">
<title>n_t1</title>
<ellipse fill="none" stroke="blue" cx="693.63" cy="-167.16" rx="132.76" ry="40.66"/>
<text xml:space="preserve" text-anchor="middle" x="693.63" y="-178.61" font-family="Times,serif" font-size="14.00" fill="blue">T1 (object):</text>
<text xml:space="preserve" text-anchor="middle" x="693.63" y="-162.11" font-family="Times,serif" font-size="14.00" fill="blue">The instant that is the end of E.</text>
<text xml:space="preserve" text-anchor="middle" x="693.63" y="-145.61" font-family="Times,serif" font-size="14.00" fill="blue">time:Instant</text>
</g>
<!-- n_t&#45;&gt;n_t1 -->
<g id="edge3" class="edge">
<title>n_t&#45;&gt;n_t1</title>
<path fill="none" stroke="silver" d="M645.23,-449.84C672.5,-444.02 701.6,-432.33 718.63,-409.13 766.86,-343.46 738.33,-305.35 720.63,-225.82 720.09,-223.36 719.42,-220.89 718.67,-218.42"/>
<polygon fill="silver" stroke="silver" points="722.01,-217.36 715.37,-209.11 715.41,-219.7 722.01,-217.36"/>
<text xml:space="preserve" text-anchor="middle" x="789.15" y="-312.43" font-family="Times,serif" font-size="14.00" fill="silver">T existsUntil T1</text>
</g>
<!-- l_ts0 -->
<g id="node5" class="node">
<title>l_ts0</title>
<polygon fill="none" stroke="blue" points="254.76,-41 80.51,-41 80.51,0 254.76,0 254.76,-41"/>
<text xml:space="preserve" text-anchor="middle" x="167.63" y="-23.7" font-family="Times,serif" font-size="14.00" fill="blue">ts0 (literal):</text>
<text xml:space="preserve" text-anchor="middle" x="167.63" y="-7.2" font-family="Times,serif" font-size="14.00" fill="blue">2020&#45;01&#45;02T03:04:05.6789Z</text>
</g>
<!-- n_t&#45;&gt;l_ts0 -->
<g id="edge4" class="edge">
<title>n_t&#45;&gt;l_ts0</title>
<path fill="none" stroke="silver" d="M511.95,-449.71C398.58,-436.92 168.06,-394.79 39.13,-258.82 -1.97,-215.48 -12.12,-179.39 15.63,-126.5 34.81,-89.95 73.11,-63.61 106.47,-46.46"/>
<polygon fill="silver" stroke="silver" points="107.87,-49.67 115.28,-42.1 104.77,-43.4 107.87,-49.67"/>
<text xml:space="preserve" text-anchor="middle" x="117.88" y="-237.27" font-family="Times,serif" font-size="14.00" fill="silver">T hasCreationTimestamp ts0</text>
</g>
<!-- l_ts1 -->
<g id="node6" class="node">
<title>l_ts1</title>
<polygon fill="none" stroke="blue" points="949.76,-41 775.51,-41 775.51,0 949.76,0 949.76,-41"/>
<text xml:space="preserve" text-anchor="middle" x="862.63" y="-23.7" font-family="Times,serif" font-size="14.00" fill="blue">ts1 (literal):</text>
<text xml:space="preserve" text-anchor="middle" x="862.63" y="-7.2" font-family="Times,serif" font-size="14.00" fill="blue">2021&#45;02&#45;03T04:05:06.7890Z</text>
</g>
<!-- n_t&#45;&gt;l_ts1 -->
<g id="edge5" class="edge">
<title>n_t&#45;&gt;l_ts1</title>
<path fill="none" stroke="silver" d="M640.63,-443.66C744.62,-420.54 949.79,-357.18 1020.63,-207.82 1036.12,-175.16 1037.71,-158.35 1020.63,-126.5 1000.73,-89.38 961.29,-63.15 926.79,-46.18"/>
<polygon fill="silver" stroke="silver" points="928.65,-43.19 918.11,-42.08 925.65,-49.52 928.65,-43.19"/>
<text xml:space="preserve" text-anchor="middle" x="1100.29" y="-237.27" font-family="Times,serif" font-size="14.00" fill="silver">T hasTerminationTimestamp ts1</text>
</g>
<!-- n_e&#45;&gt;n_t0 -->
<g id="edge6" class="edge">
<title>n_e&#45;&gt;n_t0</title>
<path fill="none" stroke="blue" d="M471.62,-300.93C385.72,-287.83 276.46,-269.57 257.88,-258.82 240.18,-248.57 224.72,-232.6 212.43,-216.9"/>
<polygon fill="blue" stroke="blue" points="215.27,-214.85 206.48,-208.94 209.67,-219.04 215.27,-214.85"/>
<text xml:space="preserve" text-anchor="middle" x="309.26" y="-245.52" font-family="Times,serif" font-size="14.00" fill="blue">E hasStart T0</text>
<text xml:space="preserve" text-anchor="middle" x="309.26" y="-229.02" font-family="Times,serif" font-size="14.00" fill="blue">time:hasBeginning</text>
</g>
<!-- n_e&#45;&gt;n_t1 -->
<g id="edge7" class="edge">
<title>n_e&#45;&gt;n_t1</title>
<path fill="none" stroke="blue" d="M608.55,-277.89C623.21,-258.99 641,-236.04 656.52,-216.03"/>
<polygon fill="blue" stroke="blue" points="659.18,-218.31 662.54,-208.26 653.65,-214.02 659.18,-218.31"/>
<text xml:space="preserve" text-anchor="middle" x="681.31" y="-245.52" font-family="Times,serif" font-size="14.00" fill="blue">E hasEnd T1</text>
<text xml:space="preserve" text-anchor="middle" x="681.31" y="-229.02" font-family="Times,serif" font-size="14.00" fill="blue">time:hasEnd</text>
</g>
<!-- n_e&#45;&gt;l_ts0 -->
<g id="edge8" class="edge">
<title>n_e&#45;&gt;l_ts0</title>
<path fill="none" stroke="silver" d="M493.99,-289.17C454.33,-272.03 410.08,-245.83 383.63,-207.82 345.41,-152.88 407.03,-107.23 360.63,-59 347.03,-44.86 306.73,-35.86 266.46,-30.23"/>
<polygon fill="silver" stroke="silver" points="266.99,-26.77 256.62,-28.93 266.08,-33.71 266.99,-26.77"/>
<text xml:space="preserve" text-anchor="middle" x="467.63" y="-162.11" font-family="Times,serif" font-size="14.00" fill="silver">E hasBeginningTimestamp ts0</text>
</g>
<!-- n_e&#45;&gt;l_ts1 -->
<g id="edge9" class="edge">
<title>n_e&#45;&gt;l_ts1</title>
<path fill="none" stroke="silver" d="M665.7,-290.03C731.46,-268.24 813.98,-236.38 835.63,-207.82 869.99,-162.5 870.11,-92.71 866.67,-52.65"/>
<polygon fill="silver" stroke="silver" points="870.16,-52.34 865.67,-42.74 863.19,-53.04 870.16,-52.34"/>
<text xml:space="preserve" text-anchor="middle" x="940.86" y="-162.11" font-family="Times,serif" font-size="14.00" fill="silver">E hasEndingTimestamp ts1</text>
</g>
<!-- n_t0&#45;&gt;l_ts0 -->
<g id="edge10" class="edge">
<title>n_t0&#45;&gt;l_ts0</title>
<path fill="none" stroke="blue" d="M171.51,-126.33C170.33,-120.39 169.31,-114.31 168.63,-108.5 166.47,-90.03 166.15,-69.2 166.41,-52.56"/>
<polygon fill="blue" stroke="blue" points="169.9,-52.86 166.65,-42.78 162.91,-52.7 169.9,-52.86"/>
<text xml:space="preserve" text-anchor="middle" x="264.63" y="-95.2" font-family="Times,serif" font-size="14.00" fill="blue">T0 hasTimestamp ts0</text>
<text xml:space="preserve" text-anchor="middle" x="264.63" y="-78.7" font-family="Times,serif" font-size="14.00" fill="blue">time:inXSDDateTime (deprecated)</text>
<text xml:space="preserve" text-anchor="middle" x="264.63" y="-62.2" font-family="Times,serif" font-size="14.00" fill="blue">time:inXSDDateTimeStamp</text>
</g>
<!-- n_t1&#45;&gt;l_ts1 -->
<g id="edge11" class="edge">
<title>n_t1&#45;&gt;l_ts1</title>
<path fill="none" stroke="blue" d="M663.18,-127.34C649.81,-105.34 640.43,-78.42 656.63,-59 670.83,-41.98 718.25,-32.67 764.01,-27.58"/>
<polygon fill="blue" stroke="blue" points="764.19,-31.08 773.77,-26.56 763.46,-24.12 764.19,-31.08"/>
<text xml:space="preserve" text-anchor="middle" x="752.63" y="-95.2" font-family="Times,serif" font-size="14.00" fill="blue">T1 hasTimestamp ts1</text>
<text xml:space="preserve" text-anchor="middle" x="752.63" y="-78.7" font-family="Times,serif" font-size="14.00" fill="blue">time:inXSDDateTime (deprecated)</text>
<text xml:space="preserve" text-anchor="middle" x="752.63" y="-62.2" font-family="Times,serif" font-size="14.00" fill="blue">time:inXSDDateTimeStamp</text>
</g>
</g>
</svg>
