<?xml version="1.0" encoding="UTF-8" standalone="no"?>
<!DOCTYPE svg PUBLIC "-//W3C//DTD SVG 1.1//EN"
 "http://www.w3.org/Graphics/SVG/1.1/DTD/svg11.dtd">
<!-- Generated by graphviz version 12.2.1 (20241206.2353)
 -->
<!-- Title: abstraction Pages: 1 -->
<svg width="1186pt" height="397pt"
 viewBox="0.00 0.00 1185.75 396.95" xmlns="http://www.w3.org/2000/svg" xmlns:xlink="http://www.w3.org/1999/xlink">
<g id="graph0" class="graph" transform="scale(1 1) rotate(0) translate(4 392.95)">
<title>abstraction</title>
<polygon fill="white" stroke="none" points="-4,4 -4,-392.95 1181.75,-392.95 1181.75,4 -4,4"/>
<!-- n_t -->
<g id="node1" class="node">
<title>n_t</title>
<ellipse fill="none" stroke="blue" cx="584.27" cy="-359.96" rx="89.27" ry="28.99"/>
<text text-anchor="middle" x="584.27" y="-363.16" font-family="Times,serif" font-size="14.00" fill="blue">T (object):</text>
<text text-anchor="middle" x="584.27" y="-346.66" font-family="Times,serif" font-size="14.00" fill="blue">A uco&#45;action:Action</text>
</g>
<!-- n_e -->
<g id="node2" class="node">
<title>n_e</title>
<ellipse fill="none" stroke="silver" cx="584.27" cy="-249.47" rx="116.85" ry="28.99"/>
<text text-anchor="middle" x="584.27" y="-252.67" font-family="Times,serif" font-size="14.00" fill="silver">E (object):</text>
<text text-anchor="middle" x="584.27" y="-236.17" font-family="Times,serif" font-size="14.00" fill="silver">The existence interval of T.</text>
</g>
<!-- n_t&#45;&gt;n_e -->
<g id="edge1" class="edge">
<title>n_t&#45;&gt;n_e</title>
<path fill="none" stroke="silver" d="M584.27,-330.74C584.27,-318.4 584.27,-303.72 584.27,-290.3"/>
<polygon fill="silver" stroke="silver" points="587.77,-290.44 584.27,-280.44 580.77,-290.44 587.77,-290.44"/>
<text text-anchor="middle" x="652.15" y="-299.67" font-family="Times,serif" font-size="14.00" fill="silver">T hasExistenceInterval E</text>
</g>
<!-- n_t0 -->
<g id="node3" class="node">
<title>n_t0</title>
<ellipse fill="none" stroke="silver" cx="179.27" cy="-122.49" rx="157.15" ry="28.99"/>
<text text-anchor="middle" x="179.27" y="-125.69" font-family="Times,serif" font-size="14.00" fill="silver">T0 (object):</text>
<text text-anchor="middle" x="179.27" y="-109.19" font-family="Times,serif" font-size="14.00" fill="silver">The instant that is the beginning of E.</text>
</g>
<!-- n_t&#45;&gt;n_t0 -->
<g id="edge2" class="edge">
<title>n_t&#45;&gt;n_t0</title>
<path fill="none" stroke="silver" d="M511.83,-342.6C459.92,-329.3 389.27,-307.9 331.52,-278.47 280.76,-252.59 266.93,-244.33 228.27,-202.48 216.99,-190.27 206.86,-175.1 198.77,-161.33"/>
<polygon fill="silver" stroke="silver" points="201.98,-159.9 194,-152.92 195.89,-163.35 201.98,-159.9"/>
<text text-anchor="middle" x="394.9" y="-244.42" font-family="Times,serif" font-size="14.00" fill="silver">T existsAtAndSince T0</text>
</g>
<!-- n_t1 -->
<g id="node4" class="node">
<title>n_t1</title>
<ellipse fill="none" stroke="silver" cx="691.27" cy="-122.49" rx="132.76" ry="28.99"/>
<text text-anchor="middle" x="691.27" y="-125.69" font-family="Times,serif" font-size="14.00" fill="silver">T1 (object):</text>
<text text-anchor="middle" x="691.27" y="-109.19" font-family="Times,serif" font-size="14.00" fill="silver">The instant that is the end of E.</text>
</g>
<!-- n_t&#45;&gt;n_t1 -->
<g id="edge3" class="edge">
<title>n_t&#45;&gt;n_t1</title>
<path fill="none" stroke="silver" d="M667.86,-349.43C689.69,-342.71 710.84,-331.51 724.27,-312.97 761.67,-261.31 743.8,-230.19 724.27,-169.48 723.39,-166.74 722.28,-164.02 721,-161.36"/>
<polygon fill="silver" stroke="silver" points="724.09,-159.73 716.12,-152.75 718,-163.18 724.09,-159.73"/>
<text text-anchor="middle" x="789.99" y="-244.42" font-family="Times,serif" font-size="14.00" fill="silver">T existsUntil T1</text>
</g>
<!-- l_ts0 -->
<g id="node5" class="node">
<title>l_ts0</title>
<polygon fill="none" stroke="blue" points="266.4,-41 92.15,-41 92.15,0 266.4,0 266.4,-41"/>
<text text-anchor="middle" x="179.27" y="-23.7" font-family="Times,serif" font-size="14.00" fill="blue">ts0 (literal):</text>
<text text-anchor="middle" x="179.27" y="-7.2" font-family="Times,serif" font-size="14.00" fill="blue">2020&#45;01&#45;02T03:04:05.6789Z</text>
</g>
<!-- n_t&#45;&gt;l_ts0 -->
<g id="edge4" class="edge">
<title>n_t&#45;&gt;l_ts0</title>
<path fill="none" stroke="blue" d="M496.11,-355.29C379.51,-346.03 173.55,-313.79 42.77,-202.48 4.56,-169.96 -14.26,-135.45 13.27,-93.5 29.02,-69.5 54.67,-53.46 81.15,-42.76"/>
<polygon fill="blue" stroke="blue" points="82.19,-46.11 90.31,-39.31 79.72,-39.56 82.19,-46.11"/>
<text text-anchor="middle" x="121.52" y="-189.18" font-family="Times,serif" font-size="14.00" fill="blue">T hasCreationTimestamp ts0</text>
<text text-anchor="middle" x="121.52" y="-172.68" font-family="Times,serif" font-size="14.00" fill="blue">uco&#45;action:startTime</text>
</g>
<!-- l_ts1 -->
<g id="node6" class="node">
<title>l_ts1</title>
<polygon fill="none" stroke="blue" points="947.4,-41 773.15,-41 773.15,0 947.4,0 947.4,-41"/>
<text text-anchor="middle" x="860.27" y="-23.7" font-family="Times,serif" font-size="14.00" fill="blue">ts1 (literal):</text>
<text text-anchor="middle" x="860.27" y="-7.2" font-family="Times,serif" font-size="14.00" fill="blue">2021&#45;02&#45;03T04:05:06.7890Z</text>
</g>
<!-- n_t&#45;&gt;l_ts1 -->
<g id="edge5" class="edge">
<title>n_t&#45;&gt;l_ts1</title>
<path fill="none" stroke="blue" d="M666.34,-348.35C771,-329.72 946.2,-279.97 1011.27,-151.48 1022.91,-128.49 1025.02,-115.29 1011.27,-93.5 997.63,-71.89 975.54,-56.63 952.4,-45.91"/>
<polygon fill="blue" stroke="blue" points="954.05,-42.8 943.48,-42.04 951.26,-49.23 954.05,-42.8"/>
<text text-anchor="middle" x="1088.5" y="-189.18" font-family="Times,serif" font-size="14.00" fill="blue">T hasTerminationTimestamp ts1</text>
<text text-anchor="middle" x="1088.5" y="-172.68" font-family="Times,serif" font-size="14.00" fill="blue">uco&#45;action:endTime</text>
</g>
<!-- n_e&#45;&gt;n_t0 -->
<g id="edge6" class="edge">
<title>n_e&#45;&gt;n_t0</title>
<path fill="none" stroke="silver" d="M469.06,-243.95C411.84,-238.46 342.73,-226.82 284.77,-202.48 260,-192.08 235.76,-174.61 216.78,-158.73"/>
<polygon fill="silver" stroke="silver" points="219.19,-156.19 209.32,-152.33 214.63,-161.5 219.19,-156.19"/>
<text text-anchor="middle" x="321.52" y="-180.93" font-family="Times,serif" font-size="14.00" fill="silver">E hasStart T0</text>
</g>
<!-- n_e&#45;&gt;n_t1 -->
<g id="edge7" class="edge">
<title>n_e&#45;&gt;n_t1</title>
<path fill="none" stroke="silver" d="M608.02,-220.74C623.39,-202.78 643.58,-179.2 660.22,-159.76"/>
<polygon fill="silver" stroke="silver" points="662.76,-162.17 666.61,-152.3 657.44,-157.62 662.76,-162.17"/>
<text text-anchor="middle" x="685.38" y="-180.93" font-family="Times,serif" font-size="14.00" fill="silver">E hasEnd T1</text>
</g>
<!-- n_e&#45;&gt;l_ts0 -->
<g id="edge8" class="edge">
<title>n_e&#45;&gt;l_ts0</title>
<path fill="none" stroke="silver" d="M513.6,-226.1C471.65,-210.22 419.38,-185.62 381.27,-151.48 358.68,-131.24 365.52,-116.09 345.27,-93.5 328.69,-74.99 323.29,-70.51 301.27,-59 291.4,-53.84 280.71,-49.26 269.89,-45.24"/>
<polygon fill="silver" stroke="silver" points="271.08,-41.95 260.49,-41.9 268.74,-48.54 271.08,-41.95"/>
<text text-anchor="middle" x="465.27" y="-117.44" font-family="Times,serif" font-size="14.00" fill="silver">E hasBeginningTimestamp ts0</text>
</g>
<!-- n_e&#45;&gt;l_ts1 -->
<g id="edge9" class="edge">
<title>n_e&#45;&gt;l_ts1</title>
<path fill="none" stroke="silver" d="M684.27,-234.16C736.61,-221.36 797.16,-197.16 833.27,-151.48 855.53,-123.32 860.7,-81.31 861.33,-52.73"/>
<polygon fill="silver" stroke="silver" points="864.83,-52.91 861.36,-42.9 857.83,-52.89 864.83,-52.91"/>
<text text-anchor="middle" x="932.3" y="-117.44" font-family="Times,serif" font-size="14.00" fill="silver">E hasEndingTimestamp ts1</text>
</g>
<!-- n_t0&#45;&gt;l_ts0 -->
<g id="edge10" class="edge">
<title>n_t0&#45;&gt;l_ts0</title>
<path fill="none" stroke="silver" d="M179.27,-93.11C179.27,-80.46 179.27,-65.54 179.27,-52.59"/>
<polygon fill="silver" stroke="silver" points="182.77,-52.9 179.27,-42.9 175.77,-52.9 182.77,-52.9"/>
<text text-anchor="middle" x="238.52" y="-62.2" font-family="Times,serif" font-size="14.00" fill="silver">T0 hasTimestamp ts0</text>
</g>
<!-- n_t1&#45;&gt;l_ts1 -->
<g id="edge11" class="edge">
<title>n_t1&#45;&gt;l_ts1</title>
<path fill="none" stroke="silver" d="M702.05,-93.24C707.97,-81.12 716.45,-67.77 727.77,-59 738.03,-51.05 749.9,-44.79 762.24,-39.85"/>
<polygon fill="silver" stroke="silver" points="763.08,-43.27 771.26,-36.53 760.67,-36.7 763.08,-43.27"/>
<text text-anchor="middle" x="787.02" y="-62.2" font-family="Times,serif" font-size="14.00" fill="silver">T1 hasTimestamp ts1</text>
</g>
</g>
</svg>
