<?xml version="1.0" encoding="UTF-8" standalone="no"?>
<!DOCTYPE svg PUBLIC "-//W3C//DTD SVG 1.1//EN"
 "http://www.w3.org/Graphics/SVG/1.1/DTD/svg11.dtd">
<!-- Generated by graphviz version 14.0.5 (20251129.0259)
 -->
<!-- Title: abstraction Pages: 1 -->
<svg width="1249pt" height="500pt"
 viewBox="0.00 0.00 1249.00 500.00" xmlns="http://www.w3.org/2000/svg" xmlns:xlink="http://www.w3.org/1999/xlink">
<g id="graph0" class="graph" transform="scale(1 1) rotate(0) translate(4 495.95)">
<title>abstraction</title>
<polygon fill="white" stroke="none" points="-4,4 -4,-495.95 1245.29,-495.95 1245.29,4 -4,4"/>
<!-- n_t -->
<g id="node1" class="node">
<title>n_t</title>
<ellipse fill="none" stroke="blue" cx="616.1" cy="-462.96" rx="129.05" ry="28.99"/>
<text xml:space="preserve" text-anchor="middle" x="616.1" y="-466.16" font-family="Times,serif" font-size="14.00" fill="blue">T (object):</text>
<text xml:space="preserve" text-anchor="middle" x="616.1" y="-449.66" font-family="Times,serif" font-size="14.00" fill="blue">A obo:BFO_0000001 (Entity).</text>
</g>
<!-- n_e -->
<g id="node2" class="node">
<title>n_e</title>
<ellipse fill="none" stroke="blue" cx="616.1" cy="-312.64" rx="155.03" ry="52.33"/>
<text xml:space="preserve" text-anchor="middle" x="616.1" y="-332.34" font-family="Times,serif" font-size="14.00" fill="blue">E (object):</text>
<text xml:space="preserve" text-anchor="middle" x="616.1" y="-315.84" font-family="Times,serif" font-size="14.00" fill="blue">The existence interval of T.</text>
<text xml:space="preserve" text-anchor="middle" x="616.1" y="-299.34" font-family="Times,serif" font-size="14.00" fill="blue">obo:BFO_0000038 (one&#45;dimensional</text>
<text xml:space="preserve" text-anchor="middle" x="616.1" y="-282.84" font-family="Times,serif" font-size="14.00" fill="blue">temporal region)</text>
</g>
<!-- n_t&#45;&gt;n_e -->
<g id="edge1" class="edge">
<title>n_t&#45;&gt;n_e</title>
<path fill="none" stroke="blue" d="M616.1,-433.71C616.1,-417.48 616.1,-396.4 616.1,-376.45"/>
<polygon fill="blue" stroke="blue" points="619.6,-376.71 616.1,-366.71 612.6,-376.71 619.6,-376.71"/>
<text xml:space="preserve" text-anchor="middle" x="696.73" y="-402.67" font-family="Times,serif" font-size="14.00" fill="blue">T hasExistenceInterval E</text>
<text xml:space="preserve" text-anchor="middle" x="696.73" y="-386.17" font-family="Times,serif" font-size="14.00" fill="blue">obo:BFO_0000108 (exists at)</text>
</g>
<!-- n_t0 -->
<g id="node3" class="node">
<title>n_t0</title>
<ellipse fill="none" stroke="blue" cx="188.1" cy="-134.16" rx="157.15" ry="40.66"/>
<text xml:space="preserve" text-anchor="middle" x="188.1" y="-145.61" font-family="Times,serif" font-size="14.00" fill="blue">T0 (object):</text>
<text xml:space="preserve" text-anchor="middle" x="188.1" y="-129.11" font-family="Times,serif" font-size="14.00" fill="blue">The instant that is the beginning of E.</text>
<text xml:space="preserve" text-anchor="middle" x="188.1" y="-112.61" font-family="Times,serif" font-size="14.00" fill="blue">obo:BFO_0000203 (temporal instant)</text>
</g>
<!-- n_t&#45;&gt;n_t0 -->
<g id="edge2" class="edge">
<title>n_t&#45;&gt;n_t0</title>
<path fill="none" stroke="silver" d="M520.69,-443.08C461.16,-428.27 384.83,-403.58 325.35,-364.97 263.38,-324.73 247.57,-307.68 213.1,-242.32 204.07,-225.17 198.27,-204.79 194.56,-186.43"/>
<polygon fill="silver" stroke="silver" points="198.03,-185.99 192.78,-176.79 191.15,-187.26 198.03,-185.99"/>
<text xml:space="preserve" text-anchor="middle" x="388.73" y="-307.59" font-family="Times,serif" font-size="14.00" fill="silver">T existsAtAndSince T0</text>
</g>
<!-- n_t1 -->
<g id="node4" class="node">
<title>n_t1</title>
<ellipse fill="none" stroke="blue" cx="724.1" cy="-134.16" rx="156.62" ry="40.66"/>
<text xml:space="preserve" text-anchor="middle" x="724.1" y="-145.61" font-family="Times,serif" font-size="14.00" fill="blue">T1 (object):</text>
<text xml:space="preserve" text-anchor="middle" x="724.1" y="-129.11" font-family="Times,serif" font-size="14.00" fill="blue">The instant that is the end of E.</text>
<text xml:space="preserve" text-anchor="middle" x="724.1" y="-112.61" font-family="Times,serif" font-size="14.00" fill="blue">obo:BFO_0000203 (temporal instant)</text>
</g>
<!-- n_t&#45;&gt;n_t1 -->
<g id="edge3" class="edge">
<title>n_t&#45;&gt;n_t1</title>
<path fill="none" stroke="silver" d="M715.63,-444.13C744.98,-436.81 771.77,-427.35 781.1,-415.97 844.1,-339.15 836.5,-282.66 794.1,-192.82 792.19,-188.77 789.84,-184.91 787.18,-181.24"/>
<polygon fill="silver" stroke="silver" points="790,-179.17 780.92,-173.71 784.62,-183.64 790,-179.17"/>
<text xml:space="preserve" text-anchor="middle" x="871.03" y="-307.59" font-family="Times,serif" font-size="14.00" fill="silver">T existsUntil T1</text>
</g>
<!-- l_ts0 -->
<g id="node5" class="node">
<title>l_ts0</title>
<polygon fill="none" stroke="silver" points="275.23,-41 100.98,-41 100.98,0 275.23,0 275.23,-41"/>
<text xml:space="preserve" text-anchor="middle" x="188.1" y="-23.7" font-family="Times,serif" font-size="14.00" fill="silver">ts0 (literal):</text>
<text xml:space="preserve" text-anchor="middle" x="188.1" y="-7.2" font-family="Times,serif" font-size="14.00" fill="silver">2020&#45;01&#45;02T03:04:05.6789Z</text>
</g>
<!-- n_t&#45;&gt;l_ts0 -->
<g id="edge4" class="edge">
<title>n_t&#45;&gt;l_ts0</title>
<path fill="none" stroke="silver" d="M491.07,-455.41C352.09,-440.57 134.14,-393.05 34.6,-242.32 -1.97,-186.93 -14.31,-148.99 22.1,-93.5 37.85,-69.5 63.51,-53.46 89.99,-42.76"/>
<polygon fill="silver" stroke="silver" points="91.02,-46.11 99.14,-39.31 88.55,-39.56 91.02,-46.11"/>
<text xml:space="preserve" text-anchor="middle" x="113.35" y="-212.52" font-family="Times,serif" font-size="14.00" fill="silver">T hasCreationTimestamp ts0</text>
</g>
<!-- l_ts1 -->
<g id="node6" class="node">
<title>l_ts1</title>
<polygon fill="none" stroke="silver" points="1004.23,-41 829.98,-41 829.98,0 1004.23,0 1004.23,-41"/>
<text xml:space="preserve" text-anchor="middle" x="917.1" y="-23.7" font-family="Times,serif" font-size="14.00" fill="silver">ts1 (literal):</text>
<text xml:space="preserve" text-anchor="middle" x="917.1" y="-7.2" font-family="Times,serif" font-size="14.00" fill="silver">2021&#45;02&#45;03T04:05:06.7890Z</text>
</g>
<!-- n_t&#45;&gt;l_ts1 -->
<g id="edge5" class="edge">
<title>n_t&#45;&gt;l_ts1</title>
<path fill="none" stroke="silver" d="M710.36,-442.81C741.22,-435.57 775.45,-426.49 806.1,-415.97 956.41,-364.36 1017.77,-324.87 1070.1,-174.82 1082.01,-140.69 1089.47,-124.02 1070.1,-93.5 1056.33,-71.8 1034.09,-56.52 1010.78,-45.81"/>
<polygon fill="silver" stroke="silver" points="1012.34,-42.67 1001.77,-41.95 1009.58,-49.11 1012.34,-42.67"/>
<text xml:space="preserve" text-anchor="middle" x="1152.04" y="-212.52" font-family="Times,serif" font-size="14.00" fill="silver">T hasTerminationTimestamp ts1</text>
</g>
<!-- n_e&#45;&gt;n_t0 -->
<g id="edge6" class="edge">
<title>n_e&#45;&gt;n_t0</title>
<path fill="none" stroke="blue" d="M479.81,-287.33C384.41,-269.92 272.34,-248.5 262.85,-242.32 241.28,-228.25 224.14,-205.59 211.75,-184.72"/>
<polygon fill="blue" stroke="blue" points="214.95,-183.27 206.96,-176.3 208.86,-186.72 214.95,-183.27"/>
<text xml:space="preserve" text-anchor="middle" x="314.98" y="-229.02" font-family="Times,serif" font-size="14.00" fill="blue">E hasStart T0</text>
<text xml:space="preserve" text-anchor="middle" x="314.98" y="-212.52" font-family="Times,serif" font-size="14.00" fill="blue">obo:BFO_0000222</text>
<text xml:space="preserve" text-anchor="middle" x="314.98" y="-196.02" font-family="Times,serif" font-size="14.00" fill="blue">(has first instant)</text>
</g>
<!-- n_e&#45;&gt;n_t1 -->
<g id="edge7" class="edge">
<title>n_e&#45;&gt;n_t1</title>
<path fill="none" stroke="blue" d="M647.05,-261.07C661.79,-236.99 679.35,-208.3 693.98,-184.39"/>
<polygon fill="blue" stroke="blue" points="696.82,-186.45 699.05,-176.1 690.85,-182.8 696.82,-186.45"/>
<text xml:space="preserve" text-anchor="middle" x="738.21" y="-229.02" font-family="Times,serif" font-size="14.00" fill="blue">E hasEnd T1</text>
<text xml:space="preserve" text-anchor="middle" x="738.21" y="-212.52" font-family="Times,serif" font-size="14.00" fill="blue">obo:BFO_0000224</text>
<text xml:space="preserve" text-anchor="middle" x="738.21" y="-196.02" font-family="Times,serif" font-size="14.00" fill="blue">(has last instant)</text>
</g>
<!-- n_e&#45;&gt;l_ts0 -->
<g id="edge8" class="edge">
<title>n_e&#45;&gt;l_ts0</title>
<path fill="none" stroke="silver" d="M521.34,-270.8C476.88,-247.83 425.93,-215.54 390.1,-174.82 364,-145.14 378.38,-124.69 354.1,-93.5 338.84,-73.89 332.13,-70.51 310.1,-59 300.24,-53.84 289.54,-49.26 278.72,-45.24"/>
<polygon fill="silver" stroke="silver" points="279.91,-41.95 269.32,-41.9 277.57,-48.54 279.91,-41.95"/>
<text xml:space="preserve" text-anchor="middle" x="474.1" y="-129.11" font-family="Times,serif" font-size="14.00" fill="silver">E hasBeginningTimestamp ts0</text>
</g>
<!-- n_e&#45;&gt;l_ts1 -->
<g id="edge9" class="edge">
<title>n_e&#45;&gt;l_ts1</title>
<path fill="none" stroke="silver" d="M740.5,-281.13C796.12,-260.7 856.59,-227.55 890.1,-174.82 913.8,-137.54 918.24,-85.37 918.36,-52.52"/>
<polygon fill="silver" stroke="silver" points="921.86,-52.83 918.25,-42.87 914.86,-52.91 921.86,-52.83"/>
<text xml:space="preserve" text-anchor="middle" x="991.02" y="-129.11" font-family="Times,serif" font-size="14.00" fill="silver">E hasEndingTimestamp ts1</text>
</g>
<!-- n_t0&#45;&gt;l_ts0 -->
<g id="edge10" class="edge">
<title>n_t0&#45;&gt;l_ts0</title>
<path fill="none" stroke="silver" d="M188.1,-93.16C188.1,-79.79 188.1,-65.1 188.1,-52.51"/>
<polygon fill="silver" stroke="silver" points="191.6,-52.72 188.1,-42.72 184.6,-52.72 191.6,-52.72"/>
<text xml:space="preserve" text-anchor="middle" x="247.35" y="-62.2" font-family="Times,serif" font-size="14.00" fill="silver">T0 hasTimestamp ts0</text>
</g>
<!-- n_t1&#45;&gt;l_ts1 -->
<g id="edge11" class="edge">
<title>n_t1&#45;&gt;l_ts1</title>
<path fill="none" stroke="silver" d="M748.95,-93.88C758.69,-81.17 770.86,-68.03 784.6,-59 795.11,-52.1 806.9,-46.45 818.99,-41.83"/>
<polygon fill="silver" stroke="silver" points="819.99,-45.19 828.24,-38.54 817.65,-38.59 819.99,-45.19"/>
<text xml:space="preserve" text-anchor="middle" x="843.85" y="-62.2" font-family="Times,serif" font-size="14.00" fill="silver">T1 hasTimestamp ts1</text>
</g>
</g>
</svg>
