<?xml version="1.0" encoding="UTF-8" standalone="no"?>
<!DOCTYPE svg PUBLIC "-//W3C//DTD SVG 1.1//EN"
 "http://www.w3.org/Graphics/SVG/1.1/DTD/svg11.dtd">
<!-- Generated by graphviz version 14.0.5 (20251129.0259)
 -->
<!-- Title: abstraction Pages: 1 -->
<svg width="1257pt" height="453pt"
 viewBox="0.00 0.00 1257.00 453.00" xmlns="http://www.w3.org/2000/svg" xmlns:xlink="http://www.w3.org/1999/xlink">
<g id="graph0" class="graph" transform="scale(1 1) rotate(0) translate(4 449.28)">
<title>abstraction</title>
<polygon fill="white" stroke="none" points="-4,4 -4,-449.28 1252.63,-449.28 1252.63,4 -4,4"/>
<!-- n_t -->
<g id="node1" class="node">
<title>n_t</title>
<ellipse fill="none" stroke="blue" cx="619.02" cy="-416.29" rx="116.85" ry="28.99"/>
<text xml:space="preserve" text-anchor="middle" x="619.02" y="-419.49" font-family="Times,serif" font-size="14.00" fill="blue">T (object):</text>
<text xml:space="preserve" text-anchor="middle" x="619.02" y="-402.99" font-family="Times,serif" font-size="14.00" fill="blue">A gufo:ConcreteIndividual.</text>
</g>
<!-- n_e -->
<g id="node2" class="node">
<title>n_e</title>
<ellipse fill="none" stroke="silver" cx="619.02" cy="-305.81" rx="116.85" ry="28.99"/>
<text xml:space="preserve" text-anchor="middle" x="619.02" y="-309.01" font-family="Times,serif" font-size="14.00" fill="silver">E (object):</text>
<text xml:space="preserve" text-anchor="middle" x="619.02" y="-292.51" font-family="Times,serif" font-size="14.00" fill="silver">The existence interval of T.</text>
</g>
<!-- n_t&#45;&gt;n_e -->
<g id="edge1" class="edge">
<title>n_t&#45;&gt;n_e</title>
<path fill="none" stroke="silver" d="M619.02,-387.07C619.02,-374.74 619.02,-360.05 619.02,-346.64"/>
<polygon fill="silver" stroke="silver" points="622.52,-346.78 619.02,-336.78 615.52,-346.78 622.52,-346.78"/>
<text xml:space="preserve" text-anchor="middle" x="686.89" y="-356" font-family="Times,serif" font-size="14.00" fill="silver">T hasExistenceInterval E</text>
</g>
<!-- n_t0 -->
<g id="node3" class="node">
<title>n_t0</title>
<ellipse fill="none" stroke="blue" cx="197.02" cy="-167.16" rx="157.15" ry="40.66"/>
<text xml:space="preserve" text-anchor="middle" x="197.02" y="-178.61" font-family="Times,serif" font-size="14.00" fill="blue">T0 (object):</text>
<text xml:space="preserve" text-anchor="middle" x="197.02" y="-162.11" font-family="Times,serif" font-size="14.00" fill="blue">The instant that is the beginning of E.</text>
<text xml:space="preserve" text-anchor="middle" x="197.02" y="-145.61" font-family="Times,serif" font-size="14.00" fill="blue">time:Instant</text>
</g>
<!-- n_t&#45;&gt;n_t0 -->
<g id="edge2" class="edge">
<title>n_t&#45;&gt;n_t0</title>
<path fill="none" stroke="blue" d="M531.47,-396.8C481.08,-383.9 417.74,-363.76 366.27,-334.8 321.45,-309.59 315.14,-295.41 279.02,-258.82 265.51,-245.13 263.82,-240.17 251.02,-225.82 247.94,-222.36 244.73,-218.82 241.49,-215.26"/>
<polygon fill="blue" stroke="blue" points="244.25,-213.1 234.91,-208.11 239.1,-217.84 244.25,-213.1"/>
<text xml:space="preserve" text-anchor="middle" x="429.64" y="-309.01" font-family="Times,serif" font-size="14.00" fill="blue">T existsAtAndSince T0</text>
<text xml:space="preserve" text-anchor="middle" x="429.64" y="-292.51" font-family="Times,serif" font-size="14.00" fill="blue">gufo:hasBeginPoint</text>
</g>
<!-- n_t1 -->
<g id="node4" class="node">
<title>n_t1</title>
<ellipse fill="none" stroke="blue" cx="709.02" cy="-167.16" rx="132.76" ry="40.66"/>
<text xml:space="preserve" text-anchor="middle" x="709.02" y="-178.61" font-family="Times,serif" font-size="14.00" fill="blue">T1 (object):</text>
<text xml:space="preserve" text-anchor="middle" x="709.02" y="-162.11" font-family="Times,serif" font-size="14.00" fill="blue">The instant that is the end of E.</text>
<text xml:space="preserve" text-anchor="middle" x="709.02" y="-145.61" font-family="Times,serif" font-size="14.00" fill="blue">time:Instant</text>
</g>
<!-- n_t&#45;&gt;n_t1 -->
<g id="edge3" class="edge">
<title>n_t&#45;&gt;n_t1</title>
<path fill="none" stroke="blue" d="M717.42,-400.41C733.72,-393.53 748.67,-383.6 759.02,-369.3 791.52,-324.42 766.82,-260.74 741.98,-217.13"/>
<polygon fill="blue" stroke="blue" points="745.06,-215.46 736.97,-208.62 739.03,-219.02 745.06,-215.46"/>
<text xml:space="preserve" text-anchor="middle" x="822.94" y="-309.01" font-family="Times,serif" font-size="14.00" fill="blue">T existsUntil T1</text>
<text xml:space="preserve" text-anchor="middle" x="822.94" y="-292.51" font-family="Times,serif" font-size="14.00" fill="blue">gufo:hasEndPoint</text>
</g>
<!-- l_ts0 -->
<g id="node5" class="node">
<title>l_ts0</title>
<polygon fill="none" stroke="blue" points="284.14,-57.5 109.89,-57.5 109.89,0 284.14,0 284.14,-57.5"/>
<text xml:space="preserve" text-anchor="middle" x="197.02" y="-40.2" font-family="Times,serif" font-size="14.00" fill="blue">ts0 (literal):</text>
<text xml:space="preserve" text-anchor="middle" x="197.02" y="-23.7" font-family="Times,serif" font-size="14.00" fill="blue">2020&#45;01&#45;02T03:04:05.6789Z</text>
<text xml:space="preserve" text-anchor="middle" x="197.02" y="-7.2" font-family="Times,serif" font-size="14.00" fill="blue">xsd:dateTimeStamp</text>
</g>
<!-- n_t&#45;&gt;l_ts0 -->
<g id="edge4" class="edge">
<title>n_t&#45;&gt;l_ts0</title>
<path fill="none" stroke="blue" d="M513.01,-403.69C355.46,-383.98 71.55,-338.19 11.52,-258.82 -8.4,-232.48 -1.24,-171.84 31.02,-126.5 50.57,-99.03 80.56,-78.17 109.7,-62.98"/>
<polygon fill="blue" stroke="blue" points="111.23,-66.13 118.6,-58.52 108.09,-59.87 111.23,-66.13"/>
<text xml:space="preserve" text-anchor="middle" x="129.27" y="-245.52" font-family="Times,serif" font-size="14.00" fill="blue">T hasCreationTimestamp ts0</text>
<text xml:space="preserve" text-anchor="middle" x="129.27" y="-229.02" font-family="Times,serif" font-size="14.00" fill="blue">gufo:hasBeginPointInXSDDateTimeStamp</text>
</g>
<!-- l_ts1 -->
<g id="node6" class="node">
<title>l_ts1</title>
<polygon fill="none" stroke="blue" points="965.14,-57.5 790.89,-57.5 790.89,0 965.14,0 965.14,-57.5"/>
<text xml:space="preserve" text-anchor="middle" x="878.02" y="-40.2" font-family="Times,serif" font-size="14.00" fill="blue">ts1 (literal):</text>
<text xml:space="preserve" text-anchor="middle" x="878.02" y="-23.7" font-family="Times,serif" font-size="14.00" fill="blue">2021&#45;02&#45;03T04:05:06.7890Z</text>
<text xml:space="preserve" text-anchor="middle" x="878.02" y="-7.2" font-family="Times,serif" font-size="14.00" fill="blue">xsd:dateTimeStamp</text>
</g>
<!-- n_t&#45;&gt;l_ts1 -->
<g id="edge5" class="edge">
<title>n_t&#45;&gt;l_ts1</title>
<path fill="none" stroke="blue" d="M717.86,-400.64C821.5,-379.1 977.19,-327.55 1035.02,-207.82 1050.74,-175.27 1052.64,-158.05 1035.02,-126.5 1019.59,-98.86 992.66,-78.15 965.42,-63.12"/>
<polygon fill="blue" stroke="blue" points="967.21,-60.11 956.73,-58.55 963.95,-66.3 967.21,-60.11"/>
<text xml:space="preserve" text-anchor="middle" x="1136.13" y="-245.52" font-family="Times,serif" font-size="14.00" fill="blue">T hasTerminationTimestamp ts1</text>
<text xml:space="preserve" text-anchor="middle" x="1136.13" y="-229.02" font-family="Times,serif" font-size="14.00" fill="blue">gufo:hasEndPointInXSDDateTimeStamp</text>
</g>
<!-- n_e&#45;&gt;n_t0 -->
<g id="edge6" class="edge">
<title>n_e&#45;&gt;n_t0</title>
<path fill="none" stroke="silver" d="M516.12,-291.78C427.31,-280.23 311.82,-264.37 302.52,-258.82 286.83,-249.45 291.06,-238.6 278.02,-225.82 273.36,-221.25 268.31,-216.78 263.09,-212.46"/>
<polygon fill="silver" stroke="silver" points="265.36,-209.8 255.36,-206.32 261.01,-215.28 265.36,-209.8"/>
<text xml:space="preserve" text-anchor="middle" x="339.27" y="-237.27" font-family="Times,serif" font-size="14.00" fill="silver">E hasStart T0</text>
</g>
<!-- n_e&#45;&gt;n_t1 -->
<g id="edge7" class="edge">
<title>n_e&#45;&gt;n_t1</title>
<path fill="none" stroke="silver" d="M637.45,-276.83C648.76,-259.65 663.57,-237.17 676.77,-217.12"/>
<polygon fill="silver" stroke="silver" points="679.7,-219.04 682.28,-208.76 673.85,-215.19 679.7,-219.04"/>
<text xml:space="preserve" text-anchor="middle" x="704.28" y="-237.27" font-family="Times,serif" font-size="14.00" fill="silver">E hasEnd T1</text>
</g>
<!-- n_e&#45;&gt;l_ts0 -->
<g id="edge8" class="edge">
<title>n_e&#45;&gt;l_ts0</title>
<path fill="none" stroke="silver" d="M533.89,-285.54C488.21,-271.16 434.22,-247.04 399.02,-207.82 357.81,-161.9 401.27,-118.49 357.02,-75.5 340.19,-59.15 317.94,-48.57 295.39,-41.74"/>
<polygon fill="silver" stroke="silver" points="296.36,-38.38 285.79,-39.09 294.49,-45.13 296.36,-38.38"/>
<text xml:space="preserve" text-anchor="middle" x="483.02" y="-162.11" font-family="Times,serif" font-size="14.00" fill="silver">E hasBeginningTimestamp ts0</text>
</g>
<!-- n_e&#45;&gt;l_ts1 -->
<g id="edge9" class="edge">
<title>n_e&#45;&gt;l_ts1</title>
<path fill="none" stroke="silver" d="M714.37,-288.75C763.02,-275.45 818.62,-251.32 851.02,-207.82 880.89,-167.7 883.97,-108.2 882.08,-69.2"/>
<polygon fill="silver" stroke="silver" points="885.58,-69.07 881.46,-59.31 878.6,-69.51 885.58,-69.07"/>
<text xml:space="preserve" text-anchor="middle" x="955.38" y="-162.11" font-family="Times,serif" font-size="14.00" fill="silver">E hasEndingTimestamp ts1</text>
</g>
<!-- n_t0&#45;&gt;l_ts0 -->
<g id="edge10" class="edge">
<title>n_t0&#45;&gt;l_ts0</title>
<path fill="none" stroke="blue" d="M197.02,-126.34C197.02,-108.27 197.02,-86.98 197.02,-68.99"/>
<polygon fill="blue" stroke="blue" points="200.52,-69.22 197.02,-59.22 193.52,-69.22 200.52,-69.22"/>
<text xml:space="preserve" text-anchor="middle" x="275.02" y="-95.2" font-family="Times,serif" font-size="14.00" fill="blue">T0 hasTimestamp ts0</text>
<text xml:space="preserve" text-anchor="middle" x="275.02" y="-78.7" font-family="Times,serif" font-size="14.00" fill="blue">time:inXSDDateTimeStamp</text>
</g>
<!-- n_t1&#45;&gt;l_ts1 -->
<g id="edge11" class="edge">
<title>n_t1&#45;&gt;l_ts1</title>
<path fill="none" stroke="blue" d="M698.36,-126.57C696.11,-109.28 697.1,-89.74 708.02,-75.5 717.71,-62.86 747.68,-52.93 779.82,-45.6"/>
<polygon fill="blue" stroke="blue" points="780.27,-49.08 789.3,-43.53 778.78,-42.24 780.27,-49.08"/>
<text xml:space="preserve" text-anchor="middle" x="786.02" y="-95.2" font-family="Times,serif" font-size="14.00" fill="blue">T1 hasTimestamp ts1</text>
<text xml:space="preserve" text-anchor="middle" x="786.02" y="-78.7" font-family="Times,serif" font-size="14.00" fill="blue">time:inXSDDateTimeStamp</text>
</g>
</g>
</svg>
