<?xml version="1.0" encoding="UTF-8" standalone="no"?>
<!DOCTYPE svg PUBLIC "-//W3C//DTD SVG 1.1//EN"
 "http://www.w3.org/Graphics/SVG/1.1/DTD/svg11.dtd">
<!-- Generated by graphviz version 9.0.0 (20230911.1827)
 -->
<!-- Title: PROV&#45;O render Pages: 1 -->
<svg width="533pt" height="647pt"
 viewBox="0.00 0.00 532.93 646.90" xmlns="http://www.w3.org/2000/svg" xmlns:xlink="http://www.w3.org/1999/xlink">
<g id="graph0" class="graph" transform="scale(1 1) rotate(0) translate(4 642.9)">
<title>PROV&#45;O render</title>
<polygon fill="white" stroke="none" points="-4,4 -4,-642.9 528.93,-642.9 528.93,4 -4,4"/>
<!-- _768d458d8a893ce47a2e468c0e3aefc13b8ae86905a8961db6bf690ffff2b4cf -->
<g id="node1" class="node">
<title>_768d458d8a893ce47a2e468c0e3aefc13b8ae86905a8961db6bf690ffff2b4cf</title>
<g id="a_node1"><a xlink:title="ID &#45; http://example.org/kb/investigative&#45;action&#45;30079255&#45;a489&#45;4dc2&#45;ab5a&#45;b9633a1cce95">
<polygon fill="#9fb1fc" stroke="#0000ff" points="447.62,-598.3 49.12,-598.3 49.12,-540.8 447.62,-540.8 447.62,-598.3"/>
<text text-anchor="middle" x="248.37" y="-581" font-family="Times,serif" font-size="14.00">ID &#45; kb:investigative&#45;action&#45;30079255&#45;a489&#45;4dc2&#45;ab5a&#45;b9633a1cce95</text>
<text text-anchor="middle" x="248.37" y="-564.5" font-family="Times,serif" font-size="14.00">[2017&#45;06&#45;21T22:36:24.350000+00:00, ...)</text>
<text text-anchor="middle" x="248.37" y="-548" font-family="Times,serif" font-size="14.00">preserved</text>
</a>
</g>
</g>
<!-- _706b0ceea09118a850193641e1b9d2b7dbc725464b12591a14ee72824eab1a69 -->
<g id="node10" class="node">
<title>_706b0ceea09118a850193641e1b9d2b7dbc725464b12591a14ee72824eab1a69</title>
<g id="a_node10"><a xlink:title="Start of http://example.org/kb/investigative&#45;action&#45;30079255&#45;a489&#45;4dc2&#45;ab5a&#45;b9633a1cce95">
<ellipse fill="lightgray" stroke="dimgray" cx="357.37" cy="-637.1" rx="1.8" ry="1.8"/>
</a>
</g>
</g>
<!-- _768d458d8a893ce47a2e468c0e3aefc13b8ae86905a8961db6bf690ffff2b4cf&#45;&gt;_706b0ceea09118a850193641e1b9d2b7dbc725464b12591a14ee72824eab1a69 -->
<g id="edge11" class="edge">
<title>_768d458d8a893ce47a2e468c0e3aefc13b8ae86905a8961db6bf690ffff2b4cf&#45;&gt;_706b0ceea09118a850193641e1b9d2b7dbc725464b12591a14ee72824eab1a69</title>
<path fill="none" stroke="dimgray" stroke-dasharray="1,5" d="M295.23,-598.73C317.82,-612.31 342.2,-626.97 352.42,-633.12"/>
<polygon fill="dimgray" stroke="dimgray" points="358.26,-630.8 353.11,-639.37 351.4,-638.34 356.55,-629.77 358.26,-630.8"/>
<polyline fill="none" stroke="dimgray" points="356.54,-635.6 352.26,-633.02"/>
</g>
<!-- _07100fc0a937adfc2edc1067370f367eb155d9bef13801fe0ed9423948113a1e -->
<g id="node2" class="node">
<title>_07100fc0a937adfc2edc1067370f367eb155d9bef13801fe0ed9423948113a1e</title>
<g id="a_node2"><a xlink:title="ID &#45; http://example.org/kb/investigative&#45;action&#45;49e0d70c&#45;f1bc&#45;40a4&#45;8866&#45;45ddb8ad4e89">
<polygon fill="#9fb1fc" stroke="#0000ff" points="468.12,-98.1 30.62,-98.1 30.62,-40.6 468.12,-40.6 468.12,-98.1"/>
<text text-anchor="middle" x="249.37" y="-80.8" font-family="Times,serif" font-size="14.00">ID &#45; kb:investigative&#45;action&#45;49e0d70c&#45;f1bc&#45;40a4&#45;8866&#45;45ddb8ad4e89</text>
<text text-anchor="middle" x="249.37" y="-64.3" font-family="Times,serif" font-size="14.00">[2017&#45;06&#45;22T09:57:23.640000+00:00, 2017&#45;06&#45;22T10:31:19.240000+00:00]</text>
<text text-anchor="middle" x="249.37" y="-47.8" font-family="Times,serif" font-size="14.00">parsed</text>
</a>
</g>
</g>
<!-- _bd40f374d8f2e85d5f211f446a5ea1078f32550ed896c666dc8ea9790dc0093b -->
<g id="node5" class="node">
<title>_bd40f374d8f2e85d5f211f446a5ea1078f32550ed896c666dc8ea9790dc0093b</title>
<g id="a_node5"><a xlink:title="ID &#45; http://example.org/kb/investigative&#45;action&#45;b8fd94b9&#45;ceae&#45;4c2f&#45;aa38&#45;8cfaa98804fe">
<polygon fill="#9fb1fc" stroke="#0000ff" points="468.12,-202.85 30.62,-202.85 30.62,-145.35 468.12,-145.35 468.12,-202.85"/>
<text text-anchor="middle" x="249.37" y="-185.55" font-family="Times,serif" font-size="14.00">ID &#45; kb:investigative&#45;action&#45;b8fd94b9&#45;ceae&#45;4c2f&#45;aa38&#45;8cfaa98804fe</text>
<text text-anchor="middle" x="249.37" y="-169.05" font-family="Times,serif" font-size="14.00">[2017&#45;06&#45;22T09:57:23.640000+00:00, 2017&#45;06&#45;22T10:31:19.240000+00:00]</text>
<text text-anchor="middle" x="249.37" y="-152.55" font-family="Times,serif" font-size="14.00">extracted</text>
</a>
</g>
</g>
<!-- _07100fc0a937adfc2edc1067370f367eb155d9bef13801fe0ed9423948113a1e&#45;&gt;_bd40f374d8f2e85d5f211f446a5ea1078f32550ed896c666dc8ea9790dc0093b -->
<g id="edge1" class="edge">
<title>_07100fc0a937adfc2edc1067370f367eb155d9bef13801fe0ed9423948113a1e&#45;&gt;_bd40f374d8f2e85d5f211f446a5ea1078f32550ed896c666dc8ea9790dc0093b</title>
<path fill="none" stroke="#0000cd" d="M249.37,-98.43C249.37,-109.3 249.37,-121.94 249.37,-133.7"/>
<polygon fill="#0000cd" stroke="#0000cd" points="245.87,-133.54 249.37,-143.54 252.87,-133.54 245.87,-133.54"/>
<text text-anchor="middle" x="281.62" y="-117.85" font-family="Times,serif" font-size="10.00">wasInformedBy</text>
</g>
<!-- _51808f4bded01d412ba4a73e760f4c6287a05435da010eb3567be921cc70dbcd -->
<g id="node11" class="node">
<title>_51808f4bded01d412ba4a73e760f4c6287a05435da010eb3567be921cc70dbcd</title>
<g id="a_node11"><a xlink:title="Start of http://example.org/kb/investigative&#45;action&#45;49e0d70c&#45;f1bc&#45;40a4&#45;8866&#45;45ddb8ad4e89">
<ellipse fill="lightgray" stroke="dimgray" cx="10.37" cy="-174.1" rx="1.8" ry="1.8"/>
</a>
</g>
</g>
<!-- _07100fc0a937adfc2edc1067370f367eb155d9bef13801fe0ed9423948113a1e&#45;&gt;_51808f4bded01d412ba4a73e760f4c6287a05435da010eb3567be921cc70dbcd -->
<g id="edge14" class="edge">
<title>_07100fc0a937adfc2edc1067370f367eb155d9bef13801fe0ed9423948113a1e&#45;&gt;_51808f4bded01d412ba4a73e760f4c6287a05435da010eb3567be921cc70dbcd</title>
<path fill="none" stroke="dimgray" stroke-dasharray="1,5" d="M100.36,-98.56C71.57,-109.43 43.52,-124.49 21.37,-145.35 15.26,-151.11 12.48,-160.69 11.26,-166.95"/>
<polygon fill="dimgray" stroke="dimgray" points="15.59,-171.62 5.71,-170.08 6.02,-168.11 15.9,-169.65 15.59,-171.62"/>
<polyline fill="none" stroke="dimgray" points="10.5,-171.84 11.27,-166.9"/>
</g>
<!-- _e4b858d48d0d5614cb16126804c625061bd8e23ff236ebab37d5bda3d01b1165 -->
<g id="node3" class="node">
<title>_e4b858d48d0d5614cb16126804c625061bd8e23ff236ebab37d5bda3d01b1165</title>
<g id="a_node3"><a xlink:title="ID &#45; http://example.org/kb/investigative&#45;action&#45;714255fe&#45;ce2d&#45;43e5&#45;b0da&#45;0910cc0e3997">
<polygon fill="#9fb1fc" stroke="#0000ff" points="468.12,-388.8 30.62,-388.8 30.62,-331.3 468.12,-331.3 468.12,-388.8"/>
<text text-anchor="middle" x="249.37" y="-371.5" font-family="Times,serif" font-size="14.00">ID &#45; kb:investigative&#45;action&#45;714255fe&#45;ce2d&#45;43e5&#45;b0da&#45;0910cc0e3997</text>
<text text-anchor="middle" x="249.37" y="-355" font-family="Times,serif" font-size="14.00">[2017&#45;06&#45;22T08:12:19.320000+00:00, 2017&#45;06&#45;22T08:39:19.240000+00:00]</text>
<text text-anchor="middle" x="249.37" y="-338.5" font-family="Times,serif" font-size="14.00">extracted</text>
</a>
</g>
</g>
<!-- _cdb296df5fffff1490615834e6ddd5df27b2e369cd98e1bb808d67e8bef47723 -->
<g id="node4" class="node">
<title>_cdb296df5fffff1490615834e6ddd5df27b2e369cd98e1bb808d67e8bef47723</title>
<g id="a_node4"><a xlink:title="ID &#45; http://example.org/kb/investigative&#45;action&#45;7786ff3a&#45;d40b&#45;45a9&#45;b65c&#45;94ad10597b62">
<polygon fill="#9fb1fc" stroke="#0000ff" points="447.87,-493.55 50.87,-493.55 50.87,-436.05 447.87,-436.05 447.87,-493.55"/>
<text text-anchor="middle" x="249.37" y="-476.25" font-family="Times,serif" font-size="14.00">ID &#45; kb:investigative&#45;action&#45;7786ff3a&#45;d40b&#45;45a9&#45;b65c&#45;94ad10597b62</text>
<text text-anchor="middle" x="249.37" y="-459.75" font-family="Times,serif" font-size="14.00">[2017&#45;06&#45;22T08:01:23.140000+00:00, ...)</text>
<text text-anchor="middle" x="249.37" y="-443.25" font-family="Times,serif" font-size="14.00">transferred</text>
</a>
</g>
</g>
<!-- _e4b858d48d0d5614cb16126804c625061bd8e23ff236ebab37d5bda3d01b1165&#45;&gt;_cdb296df5fffff1490615834e6ddd5df27b2e369cd98e1bb808d67e8bef47723 -->
<g id="edge2" class="edge">
<title>_e4b858d48d0d5614cb16126804c625061bd8e23ff236ebab37d5bda3d01b1165&#45;&gt;_cdb296df5fffff1490615834e6ddd5df27b2e369cd98e1bb808d67e8bef47723</title>
<path fill="none" stroke="#0000cd" d="M249.37,-389.13C249.37,-400 249.37,-412.64 249.37,-424.4"/>
<polygon fill="#0000cd" stroke="#0000cd" points="245.87,-424.24 249.37,-434.24 252.87,-424.24 245.87,-424.24"/>
<text text-anchor="middle" x="281.62" y="-408.55" font-family="Times,serif" font-size="10.00">wasInformedBy</text>
</g>
<!-- _10a72b78c08433064bbdc00a4a250a9b0f240bdf41ac0829d28a35d1ecb36fe4 -->
<g id="node13" class="node">
<title>_10a72b78c08433064bbdc00a4a250a9b0f240bdf41ac0829d28a35d1ecb36fe4</title>
<g id="a_node13"><a xlink:title="Start of http://example.org/kb/investigative&#45;action&#45;714255fe&#45;ce2d&#45;43e5&#45;b0da&#45;0910cc0e3997">
<ellipse fill="lightgray" stroke="dimgray" cx="467.37" cy="-464.8" rx="1.8" ry="1.8"/>
</a>
</g>
</g>
<!-- _e4b858d48d0d5614cb16126804c625061bd8e23ff236ebab37d5bda3d01b1165&#45;&gt;_10a72b78c08433064bbdc00a4a250a9b0f240bdf41ac0829d28a35d1ecb36fe4 -->
<g id="edge18" class="edge">
<title>_e4b858d48d0d5614cb16126804c625061bd8e23ff236ebab37d5bda3d01b1165&#45;&gt;_10a72b78c08433064bbdc00a4a250a9b0f240bdf41ac0829d28a35d1ecb36fe4</title>
<path fill="none" stroke="dimgray" stroke-dasharray="1,5" d="M379.41,-389.29C407.41,-400.21 434.98,-415.28 456.37,-436.05 462.4,-441.9 465.2,-451.46 466.45,-457.69"/>
<polygon fill="dimgray" stroke="dimgray" points="472.02,-460.76 462.15,-462.37 461.82,-460.39 471.7,-458.79 472.02,-460.76"/>
<polyline fill="none" stroke="dimgray" points="467.24,-462.55 466.44,-457.62"/>
</g>
<!-- _cdb296df5fffff1490615834e6ddd5df27b2e369cd98e1bb808d67e8bef47723&#45;&gt;_768d458d8a893ce47a2e468c0e3aefc13b8ae86905a8961db6bf690ffff2b4cf -->
<g id="edge3" class="edge">
<title>_cdb296df5fffff1490615834e6ddd5df27b2e369cd98e1bb808d67e8bef47723&#45;&gt;_768d458d8a893ce47a2e468c0e3aefc13b8ae86905a8961db6bf690ffff2b4cf</title>
<path fill="none" stroke="#0000cd" d="M249.1,-493.88C249,-504.75 248.87,-517.39 248.76,-529.15"/>
<polygon fill="#0000cd" stroke="#0000cd" points="245.26,-528.96 248.66,-538.99 252.26,-529.03 245.26,-528.96"/>
<text text-anchor="middle" x="281.62" y="-513.3" font-family="Times,serif" font-size="10.00">wasInformedBy</text>
</g>
<!-- _924a645680a66b032261900476fcf674a6384365cd8ec1cd0ad3bea922375e13 -->
<g id="node12" class="node">
<title>_924a645680a66b032261900476fcf674a6384365cd8ec1cd0ad3bea922375e13</title>
<g id="a_node12"><a xlink:title="Start of http://example.org/kb/investigative&#45;action&#45;7786ff3a&#45;d40b&#45;45a9&#45;b65c&#45;94ad10597b62">
<ellipse fill="lightgray" stroke="dimgray" cx="467.37" cy="-569.55" rx="1.8" ry="1.8"/>
</a>
</g>
</g>
<!-- _cdb296df5fffff1490615834e6ddd5df27b2e369cd98e1bb808d67e8bef47723&#45;&gt;_924a645680a66b032261900476fcf674a6384365cd8ec1cd0ad3bea922375e13 -->
<g id="edge16" class="edge">
<title>_cdb296df5fffff1490615834e6ddd5df27b2e369cd98e1bb808d67e8bef47723&#45;&gt;_924a645680a66b032261900476fcf674a6384365cd8ec1cd0ad3bea922375e13</title>
<path fill="none" stroke="dimgray" stroke-dasharray="1,5" d="M379.41,-494.04C407.41,-504.96 434.98,-520.03 456.37,-540.8 462.4,-546.65 465.2,-556.21 466.45,-562.44"/>
<polygon fill="dimgray" stroke="dimgray" points="472.02,-565.51 462.15,-567.12 461.82,-565.14 471.7,-563.54 472.02,-565.51"/>
<polyline fill="none" stroke="dimgray" points="467.24,-567.3 466.44,-562.37"/>
</g>
<!-- _bd40f374d8f2e85d5f211f446a5ea1078f32550ed896c666dc8ea9790dc0093b&#45;&gt;_e4b858d48d0d5614cb16126804c625061bd8e23ff236ebab37d5bda3d01b1165 -->
<g id="edge4" class="edge">
<title>_bd40f374d8f2e85d5f211f446a5ea1078f32550ed896c666dc8ea9790dc0093b&#45;&gt;_e4b858d48d0d5614cb16126804c625061bd8e23ff236ebab37d5bda3d01b1165</title>
<path fill="none" stroke="#0000cd" d="M249.37,-203.04C249.37,-234.1 249.37,-284.51 249.37,-319.59"/>
<polygon fill="#0000cd" stroke="#0000cd" points="245.87,-319.34 249.37,-329.34 252.87,-319.34 245.87,-319.34"/>
<text text-anchor="middle" x="281.62" y="-263.2" font-family="Times,serif" font-size="10.00">wasInformedBy</text>
</g>
<!-- _fdea66a2e81a75c60701900bc00efb0e7ee1c4c906bcc37f71dbf1e0dc47a598 -->
<g id="node9" class="node">
<title>_fdea66a2e81a75c60701900bc00efb0e7ee1c4c906bcc37f71dbf1e0dc47a598</title>
<g id="a_node9"><a xlink:title="Start of http://example.org/kb/investigative&#45;action&#45;b8fd94b9&#45;ceae&#45;4c2f&#45;aa38&#45;8cfaa98804fe">
<ellipse fill="lightgray" stroke="dimgray" cx="460.37" cy="-241.65" rx="1.8" ry="1.8"/>
</a>
</g>
</g>
<!-- _bd40f374d8f2e85d5f211f446a5ea1078f32550ed896c666dc8ea9790dc0093b&#45;&gt;_fdea66a2e81a75c60701900bc00efb0e7ee1c4c906bcc37f71dbf1e0dc47a598 -->
<g id="edge9" class="edge">
<title>_bd40f374d8f2e85d5f211f446a5ea1078f32550ed896c666dc8ea9790dc0093b&#45;&gt;_fdea66a2e81a75c60701900bc00efb0e7ee1c4c906bcc37f71dbf1e0dc47a598</title>
<path fill="none" stroke="dimgray" stroke-dasharray="1,5" d="M340.08,-203.28C386.65,-217.74 437.13,-233.43 454.28,-238.76"/>
<polygon fill="dimgray" stroke="dimgray" points="459.3,-235.08 456.33,-244.63 454.42,-244.04 457.39,-234.49 459.3,-235.08"/>
<polyline fill="none" stroke="dimgray" points="458.77,-240.15 453.99,-238.67"/>
</g>
<!-- _ba5775f5c727188f754dfe15a308e6203397a9a29c0bac9a1e53ce0d0dcf96c1 -->
<g id="node6" class="node">
<title>_ba5775f5c727188f754dfe15a308e6203397a9a29c0bac9a1e53ce0d0dcf96c1</title>
<g id="a_node6"><a xlink:title="End of http://example.org/kb/investigative&#45;action&#45;714255fe&#45;ce2d&#45;43e5&#45;b0da&#45;0910cc0e3997">
<ellipse fill="lightgray" stroke="dimgray" cx="377.37" cy="-292.5" rx="1.8" ry="1.8"/>
</a>
</g>
</g>
<!-- _ba5775f5c727188f754dfe15a308e6203397a9a29c0bac9a1e53ce0d0dcf96c1&#45;&gt;_e4b858d48d0d5614cb16126804c625061bd8e23ff236ebab37d5bda3d01b1165 -->
<g id="edge20" class="edge">
<title>_ba5775f5c727188f754dfe15a308e6203397a9a29c0bac9a1e53ce0d0dcf96c1&#45;&gt;_e4b858d48d0d5614cb16126804c625061bd8e23ff236ebab37d5bda3d01b1165</title>
<path fill="none" stroke="dimgray" stroke-dasharray="1,5" d="M371.71,-296.4C359.77,-302.51 330.92,-317.29 304.24,-330.95"/>
<polygon fill="dimgray" stroke="dimgray" points="372.77,-290.24 377.33,-299.14 375.55,-300.05 370.99,-291.15 372.77,-290.24"/>
<polyline fill="none" stroke="dimgray" points="375.94,-294.24 371.49,-296.52"/>
</g>
<!-- _ba5775f5c727188f754dfe15a308e6203397a9a29c0bac9a1e53ce0d0dcf96c1&#45;&gt;_10a72b78c08433064bbdc00a4a250a9b0f240bdf41ac0829d28a35d1ecb36fe4 -->
<g id="edge17" class="edge">
<title>_ba5775f5c727188f754dfe15a308e6203397a9a29c0bac9a1e53ce0d0dcf96c1&#45;&gt;_10a72b78c08433064bbdc00a4a250a9b0f240bdf41ac0829d28a35d1ecb36fe4</title>
<path fill="none" stroke="dimgray" stroke-dasharray="1,5" d="M379.2,-293.5C390.66,-293.61 452.89,-295.88 477.37,-331.3 503.35,-368.88 483.15,-427.6 472.68,-452.27"/>
<polygon fill="dimgray" stroke="dimgray" points="469.56,-450.67 468.61,-461.22 475.93,-453.57 469.56,-450.67"/>
</g>
<!-- _9cd45bdfa54c6e04fca450b718267b1167a67c54a99a00546d25c80c8955008b -->
<g id="node7" class="node">
<title>_9cd45bdfa54c6e04fca450b718267b1167a67c54a99a00546d25c80c8955008b</title>
<g id="a_node7"><a xlink:title="End of http://example.org/kb/investigative&#45;action&#45;49e0d70c&#45;f1bc&#45;40a4&#45;8866&#45;45ddb8ad4e89">
<ellipse fill="lightgray" stroke="dimgray" cx="249.37" cy="-1.8" rx="1.8" ry="1.8"/>
</a>
</g>
</g>
<!-- _9cd45bdfa54c6e04fca450b718267b1167a67c54a99a00546d25c80c8955008b&#45;&gt;_07100fc0a937adfc2edc1067370f367eb155d9bef13801fe0ed9423948113a1e -->
<g id="edge19" class="edge">
<title>_9cd45bdfa54c6e04fca450b718267b1167a67c54a99a00546d25c80c8955008b&#45;&gt;_07100fc0a937adfc2edc1067370f367eb155d9bef13801fe0ed9423948113a1e</title>
<path fill="none" stroke="dimgray" stroke-dasharray="1,5" d="M249.37,-8.87C249.37,-16.04 249.37,-28.46 249.37,-40.11"/>
<polygon fill="dimgray" stroke="dimgray" points="244.37,-4.94 254.37,-4.94 254.37,-6.94 244.37,-6.94 244.37,-4.94"/>
<polyline fill="none" stroke="dimgray" points="249.37,-3.94 249.37,-8.94"/>
</g>
<!-- _9cd45bdfa54c6e04fca450b718267b1167a67c54a99a00546d25c80c8955008b&#45;&gt;_fdea66a2e81a75c60701900bc00efb0e7ee1c4c906bcc37f71dbf1e0dc47a598 -->
<g id="edge7" class="edge">
<title>_9cd45bdfa54c6e04fca450b718267b1167a67c54a99a00546d25c80c8955008b&#45;&gt;_fdea66a2e81a75c60701900bc00efb0e7ee1c4c906bcc37f71dbf1e0dc47a598</title>
<path fill="none" stroke="dimgray" stroke-dasharray="1,5" d="M251.22,-2.77C272.12,-2.47 464.21,-0.8 499.37,-40.6 547.13,-94.66 516.83,-133.98 495.37,-202.85 492.47,-212.17 490.78,-214.49 484.37,-221.85 480.51,-226.3 475.46,-230.44 471,-233.69"/>
<polygon fill="dimgray" stroke="dimgray" points="469.06,-230.77 462.66,-239.21 472.93,-236.61 469.06,-230.77"/>
</g>
<!-- _9cd45bdfa54c6e04fca450b718267b1167a67c54a99a00546d25c80c8955008b&#45;&gt;_51808f4bded01d412ba4a73e760f4c6287a05435da010eb3567be921cc70dbcd -->
<g id="edge12" class="edge">
<title>_9cd45bdfa54c6e04fca450b718267b1167a67c54a99a00546d25c80c8955008b&#45;&gt;_51808f4bded01d412ba4a73e760f4c6287a05435da010eb3567be921cc70dbcd</title>
<path fill="none" stroke="dimgray" stroke-dasharray="1,5" d="M247.7,-2.81C228.72,-2.92 54.28,-4.9 21.37,-40.6 -9.72,-74.33 0.84,-135.55 7.11,-161.25"/>
<polygon fill="dimgray" stroke="dimgray" points="3.66,-161.9 9.66,-170.63 10.42,-160.06 3.66,-161.9"/>
</g>
<!-- _b051a3ff9a3bc32e7c0e1eacb90671ee93927da939fa81bc409c86f1b23b1fd3 -->
<g id="node8" class="node">
<title>_b051a3ff9a3bc32e7c0e1eacb90671ee93927da939fa81bc409c86f1b23b1fd3</title>
<g id="a_node8"><a xlink:title="End of http://example.org/kb/investigative&#45;action&#45;b8fd94b9&#45;ceae&#45;4c2f&#45;aa38&#45;8cfaa98804fe">
<ellipse fill="lightgray" stroke="dimgray" cx="488.37" cy="-69.35" rx="1.8" ry="1.8"/>
</a>
</g>
</g>
<!-- _b051a3ff9a3bc32e7c0e1eacb90671ee93927da939fa81bc409c86f1b23b1fd3&#45;&gt;_bd40f374d8f2e85d5f211f446a5ea1078f32550ed896c666dc8ea9790dc0093b -->
<g id="edge21" class="edge">
<title>_b051a3ff9a3bc32e7c0e1eacb90671ee93927da939fa81bc409c86f1b23b1fd3&#45;&gt;_bd40f374d8f2e85d5f211f446a5ea1078f32550ed896c666dc8ea9790dc0093b</title>
<path fill="none" stroke="dimgray" stroke-dasharray="1,5" d="M487.49,-76.5C486.27,-82.76 483.49,-92.34 477.37,-98.1 455.23,-118.96 427.18,-134.02 398.39,-144.89"/>
<polygon fill="dimgray" stroke="dimgray" points="483.16,-71.83 493.04,-73.37 492.73,-75.34 482.85,-73.8 483.16,-71.83"/>
<polyline fill="none" stroke="dimgray" points="488.25,-71.61 487.48,-76.55"/>
</g>
<!-- _b051a3ff9a3bc32e7c0e1eacb90671ee93927da939fa81bc409c86f1b23b1fd3&#45;&gt;_fdea66a2e81a75c60701900bc00efb0e7ee1c4c906bcc37f71dbf1e0dc47a598 -->
<g id="edge8" class="edge">
<title>_b051a3ff9a3bc32e7c0e1eacb90671ee93927da939fa81bc409c86f1b23b1fd3&#45;&gt;_fdea66a2e81a75c60701900bc00efb0e7ee1c4c906bcc37f71dbf1e0dc47a598</title>
<path fill="none" stroke="dimgray" stroke-dasharray="1,5" d="M488.42,-71.43C488.81,-80.85 491.11,-149.66 477.37,-202.85 474.93,-212.31 470.3,-222.37 466.48,-229.73"/>
<polygon fill="dimgray" stroke="dimgray" points="463.57,-227.76 461.79,-238.2 469.7,-231.15 463.57,-227.76"/>
</g>
<!-- _b051a3ff9a3bc32e7c0e1eacb90671ee93927da939fa81bc409c86f1b23b1fd3&#45;&gt;_51808f4bded01d412ba4a73e760f4c6287a05435da010eb3567be921cc70dbcd -->
<g id="edge13" class="edge">
<title>_b051a3ff9a3bc32e7c0e1eacb90671ee93927da939fa81bc409c86f1b23b1fd3&#45;&gt;_51808f4bded01d412ba4a73e760f4c6287a05435da010eb3567be921cc70dbcd</title>
<path fill="none" stroke="dimgray" stroke-dasharray="1,5" d="M488.33,-71.44C488.08,-75.7 486.55,-91.33 477.37,-98.1 456.57,-113.45 271.09,-113.43 245.37,-116.1 195.44,-121.29 60.98,-114.51 21.37,-145.35 16.6,-149.07 13.89,-155.18 12.36,-160.72"/>
<polygon fill="dimgray" stroke="dimgray" points="8.91,-160.09 10.69,-170.53 15.81,-161.26 8.91,-160.09"/>
</g>
<!-- _fdea66a2e81a75c60701900bc00efb0e7ee1c4c906bcc37f71dbf1e0dc47a598&#45;&gt;_ba5775f5c727188f754dfe15a308e6203397a9a29c0bac9a1e53ce0d0dcf96c1 -->
<g id="edge5" class="edge">
<title>_fdea66a2e81a75c60701900bc00efb0e7ee1c4c906bcc37f71dbf1e0dc47a598&#45;&gt;_ba5775f5c727188f754dfe15a308e6203397a9a29c0bac9a1e53ce0d0dcf96c1</title>
<path fill="none" stroke="dimgray" stroke-dasharray="1,5" d="M459.2,-243.34C451.61,-247.81 409.09,-272.83 388.53,-284.94"/>
<polygon fill="dimgray" stroke="dimgray" points="386.77,-281.91 379.93,-290 390.32,-287.94 386.77,-281.91"/>
</g>
<!-- _51808f4bded01d412ba4a73e760f4c6287a05435da010eb3567be921cc70dbcd&#45;&gt;_ba5775f5c727188f754dfe15a308e6203397a9a29c0bac9a1e53ce0d0dcf96c1 -->
<g id="edge6" class="edge">
<title>_51808f4bded01d412ba4a73e760f4c6287a05435da010eb3567be921cc70dbcd&#45;&gt;_ba5775f5c727188f754dfe15a308e6203397a9a29c0bac9a1e53ce0d0dcf96c1</title>
<path fill="none" stroke="dimgray" stroke-dasharray="1,5" d="M10.47,-176.4C10.86,-180.85 12.78,-195.68 21.37,-202.85 123.7,-288.18 189.07,-219.03 315.37,-261.45 334.28,-267.8 354.86,-278.63 366.92,-285.41"/>
<polygon fill="dimgray" stroke="dimgray" points="364.82,-288.24 375.23,-290.23 368.34,-282.18 364.82,-288.24"/>
</g>
<!-- _924a645680a66b032261900476fcf674a6384365cd8ec1cd0ad3bea922375e13&#45;&gt;_706b0ceea09118a850193641e1b9d2b7dbc725464b12591a14ee72824eab1a69 -->
<g id="edge10" class="edge">
<title>_924a645680a66b032261900476fcf674a6384365cd8ec1cd0ad3bea922375e13&#45;&gt;_706b0ceea09118a850193641e1b9d2b7dbc725464b12591a14ee72824eab1a69</title>
<path fill="none" stroke="dimgray" stroke-dasharray="1,5" d="M467.24,-571.79C466.69,-576.09 464.34,-590.43 456.37,-598.3 432.26,-622.11 391.6,-631.22 370.69,-634.47"/>
<polygon fill="dimgray" stroke="dimgray" points="370.27,-630.99 360.8,-635.74 371.17,-637.93 370.27,-630.99"/>
</g>
<!-- _10a72b78c08433064bbdc00a4a250a9b0f240bdf41ac0829d28a35d1ecb36fe4&#45;&gt;_924a645680a66b032261900476fcf674a6384365cd8ec1cd0ad3bea922375e13 -->
<g id="edge15" class="edge">
<title>_10a72b78c08433064bbdc00a4a250a9b0f240bdf41ac0829d28a35d1ecb36fe4&#45;&gt;_924a645680a66b032261900476fcf674a6384365cd8ec1cd0ad3bea922375e13</title>
<path fill="none" stroke="dimgray" stroke-dasharray="1,5" d="M467.37,-466.95C467.37,-475.6 467.37,-530.65 467.37,-555.91"/>
<polygon fill="dimgray" stroke="dimgray" points="463.87,-555.76 467.37,-565.76 470.87,-555.76 463.87,-555.76"/>
</g>
</g>
</svg>
