<?xml version="1.0" encoding="UTF-8" standalone="no"?>
<!DOCTYPE svg PUBLIC "-//W3C//DTD SVG 1.1//EN"
 "http://www.w3.org/Graphics/SVG/1.1/DTD/svg11.dtd">
<!-- Generated by graphviz version 8.1.0 (20230707.0739)
 -->
<!-- Title: PROV&#45;O render Pages: 1 -->
<svg width="533pt" height="647pt"
 viewBox="0.00 0.00 532.92 646.90" xmlns="http://www.w3.org/2000/svg" xmlns:xlink="http://www.w3.org/1999/xlink">
<g id="graph0" class="graph" transform="scale(1 1) rotate(0) translate(4 642.9)">
<title>PROV&#45;O render</title>
<polygon fill="white" stroke="none" points="-4,4 -4,-642.9 528.92,-642.9 528.92,4 -4,4"/>
<!-- _768d458d8a893ce47a2e468c0e3aefc13b8ae86905a8961db6bf690ffff2b4cf -->
<g id="node1" class="node">
<title>_768d458d8a893ce47a2e468c0e3aefc13b8ae86905a8961db6bf690ffff2b4cf</title>
<g id="a_node1"><a xlink:title="ID &#45; http://example.org/kb/investigative&#45;action&#45;30079255&#45;a489&#45;4dc2&#45;ab5a&#45;b9633a1cce95">
<polygon fill="#9fb1fc" stroke="#0000ff" points="447.61,-598.3 49.11,-598.3 49.11,-540.8 447.61,-540.8 447.61,-598.3"/>
<text text-anchor="middle" x="248.36" y="-581" font-family="Times,serif" font-size="14.00">ID &#45; kb:investigative&#45;action&#45;30079255&#45;a489&#45;4dc2&#45;ab5a&#45;b9633a1cce95</text>
<text text-anchor="middle" x="248.36" y="-564.5" font-family="Times,serif" font-size="14.00">[2017&#45;06&#45;21T22:36:24.350000+00:00, ...)</text>
<text text-anchor="middle" x="248.36" y="-548" font-family="Times,serif" font-size="14.00">preserved</text>
</a>
</g>
</g>
<!-- _706b0ceea09118a850193641e1b9d2b7dbc725464b12591a14ee72824eab1a69 -->
<g id="node10" class="node">
<title>_706b0ceea09118a850193641e1b9d2b7dbc725464b12591a14ee72824eab1a69</title>
<g id="a_node10"><a xlink:title="Start of http://example.org/kb/investigative&#45;action&#45;30079255&#45;a489&#45;4dc2&#45;ab5a&#45;b9633a1cce95">
<ellipse fill="lightgray" stroke="dimgray" cx="357.36" cy="-637.1" rx="1.8" ry="1.8"/>
</a>
</g>
</g>
<!-- _768d458d8a893ce47a2e468c0e3aefc13b8ae86905a8961db6bf690ffff2b4cf&#45;&gt;_706b0ceea09118a850193641e1b9d2b7dbc725464b12591a14ee72824eab1a69 -->
<g id="edge11" class="edge">
<title>_768d458d8a893ce47a2e468c0e3aefc13b8ae86905a8961db6bf690ffff2b4cf&#45;&gt;_706b0ceea09118a850193641e1b9d2b7dbc725464b12591a14ee72824eab1a69</title>
<path fill="none" stroke="dimgray" stroke-dasharray="1,5" d="M295.22,-598.73C317.81,-612.31 342.18,-626.97 352.41,-633.12"/>
<polygon fill="dimgray" stroke="dimgray" points="358.25,-630.8 353.1,-639.37 351.38,-638.34 356.54,-629.77 358.25,-630.8"/>
<polyline fill="none" stroke="dimgray" points="356.53,-635.6 352.24,-633.02"/>
</g>
<!-- _07100fc0a937adfc2edc1067370f367eb155d9bef13801fe0ed9423948113a1e -->
<g id="node2" class="node">
<title>_07100fc0a937adfc2edc1067370f367eb155d9bef13801fe0ed9423948113a1e</title>
<g id="a_node2"><a xlink:title="ID &#45; http://example.org/kb/investigative&#45;action&#45;49e0d70c&#45;f1bc&#45;40a4&#45;8866&#45;45ddb8ad4e89">
<polygon fill="#9fb1fc" stroke="#0000ff" points="468.11,-98.1 30.61,-98.1 30.61,-40.6 468.11,-40.6 468.11,-98.1"/>
<text text-anchor="middle" x="249.36" y="-80.8" font-family="Times,serif" font-size="14.00">ID &#45; kb:investigative&#45;action&#45;49e0d70c&#45;f1bc&#45;40a4&#45;8866&#45;45ddb8ad4e89</text>
<text text-anchor="middle" x="249.36" y="-64.3" font-family="Times,serif" font-size="14.00">[2017&#45;06&#45;22T09:57:23.640000+00:00, 2017&#45;06&#45;22T10:31:19.240000+00:00]</text>
<text text-anchor="middle" x="249.36" y="-47.8" font-family="Times,serif" font-size="14.00">parsed</text>
</a>
</g>
</g>
<!-- _bd40f374d8f2e85d5f211f446a5ea1078f32550ed896c666dc8ea9790dc0093b -->
<g id="node5" class="node">
<title>_bd40f374d8f2e85d5f211f446a5ea1078f32550ed896c666dc8ea9790dc0093b</title>
<g id="a_node5"><a xlink:title="ID &#45; http://example.org/kb/investigative&#45;action&#45;b8fd94b9&#45;ceae&#45;4c2f&#45;aa38&#45;8cfaa98804fe">
<polygon fill="#9fb1fc" stroke="#0000ff" points="468.11,-202.85 30.61,-202.85 30.61,-145.35 468.11,-145.35 468.11,-202.85"/>
<text text-anchor="middle" x="249.36" y="-185.55" font-family="Times,serif" font-size="14.00">ID &#45; kb:investigative&#45;action&#45;b8fd94b9&#45;ceae&#45;4c2f&#45;aa38&#45;8cfaa98804fe</text>
<text text-anchor="middle" x="249.36" y="-169.05" font-family="Times,serif" font-size="14.00">[2017&#45;06&#45;22T09:57:23.640000+00:00, 2017&#45;06&#45;22T10:31:19.240000+00:00]</text>
<text text-anchor="middle" x="249.36" y="-152.55" font-family="Times,serif" font-size="14.00">extracted</text>
</a>
</g>
</g>
<!-- _07100fc0a937adfc2edc1067370f367eb155d9bef13801fe0ed9423948113a1e&#45;&gt;_bd40f374d8f2e85d5f211f446a5ea1078f32550ed896c666dc8ea9790dc0093b -->
<g id="edge1" class="edge">
<title>_07100fc0a937adfc2edc1067370f367eb155d9bef13801fe0ed9423948113a1e&#45;&gt;_bd40f374d8f2e85d5f211f446a5ea1078f32550ed896c666dc8ea9790dc0093b</title>
<path fill="none" stroke="#0000cd" d="M249.36,-98.43C249.36,-109.41 249.36,-122.2 249.36,-134.06"/>
<polygon fill="#0000cd" stroke="#0000cd" points="245.86,-134.06 249.36,-144.06 252.86,-134.06 245.86,-134.06"/>
<text text-anchor="middle" x="281.61" y="-117.85" font-family="Times,serif" font-size="10.00">wasInformedBy</text>
</g>
<!-- _51808f4bded01d412ba4a73e760f4c6287a05435da010eb3567be921cc70dbcd -->
<g id="node11" class="node">
<title>_51808f4bded01d412ba4a73e760f4c6287a05435da010eb3567be921cc70dbcd</title>
<g id="a_node11"><a xlink:title="Start of http://example.org/kb/investigative&#45;action&#45;49e0d70c&#45;f1bc&#45;40a4&#45;8866&#45;45ddb8ad4e89">
<ellipse fill="lightgray" stroke="dimgray" cx="10.36" cy="-174.1" rx="1.8" ry="1.8"/>
</a>
</g>
</g>
<!-- _07100fc0a937adfc2edc1067370f367eb155d9bef13801fe0ed9423948113a1e&#45;&gt;_51808f4bded01d412ba4a73e760f4c6287a05435da010eb3567be921cc70dbcd -->
<g id="edge14" class="edge">
<title>_07100fc0a937adfc2edc1067370f367eb155d9bef13801fe0ed9423948113a1e&#45;&gt;_51808f4bded01d412ba4a73e760f4c6287a05435da010eb3567be921cc70dbcd</title>
<path fill="none" stroke="dimgray" stroke-dasharray="1,5" d="M100.35,-98.56C71.55,-109.43 43.5,-124.49 21.36,-145.35 15.25,-151.11 12.47,-160.69 11.25,-166.95"/>
<polygon fill="dimgray" stroke="dimgray" points="15.58,-171.62 5.7,-170.08 6.01,-168.11 15.89,-169.65 15.58,-171.62"/>
<polyline fill="none" stroke="dimgray" points="10.49,-171.84 11.26,-166.9"/>
</g>
<!-- _e4b858d48d0d5614cb16126804c625061bd8e23ff236ebab37d5bda3d01b1165 -->
<g id="node3" class="node">
<title>_e4b858d48d0d5614cb16126804c625061bd8e23ff236ebab37d5bda3d01b1165</title>
<g id="a_node3"><a xlink:title="ID &#45; http://example.org/kb/investigative&#45;action&#45;714255fe&#45;ce2d&#45;43e5&#45;b0da&#45;0910cc0e3997">
<polygon fill="#9fb1fc" stroke="#0000ff" points="468.11,-388.8 30.61,-388.8 30.61,-331.3 468.11,-331.3 468.11,-388.8"/>
<text text-anchor="middle" x="249.36" y="-371.5" font-family="Times,serif" font-size="14.00">ID &#45; kb:investigative&#45;action&#45;714255fe&#45;ce2d&#45;43e5&#45;b0da&#45;0910cc0e3997</text>
<text text-anchor="middle" x="249.36" y="-355" font-family="Times,serif" font-size="14.00">[2017&#45;06&#45;22T08:12:19.320000+00:00, 2017&#45;06&#45;22T08:39:19.240000+00:00]</text>
<text text-anchor="middle" x="249.36" y="-338.5" font-family="Times,serif" font-size="14.00">extracted</text>
</a>
</g>
</g>
<!-- _cdb296df5fffff1490615834e6ddd5df27b2e369cd98e1bb808d67e8bef47723 -->
<g id="node4" class="node">
<title>_cdb296df5fffff1490615834e6ddd5df27b2e369cd98e1bb808d67e8bef47723</title>
<g id="a_node4"><a xlink:title="ID &#45; http://example.org/kb/investigative&#45;action&#45;7786ff3a&#45;d40b&#45;45a9&#45;b65c&#45;94ad10597b62">
<polygon fill="#9fb1fc" stroke="#0000ff" points="447.86,-493.55 50.86,-493.55 50.86,-436.05 447.86,-436.05 447.86,-493.55"/>
<text text-anchor="middle" x="249.36" y="-476.25" font-family="Times,serif" font-size="14.00">ID &#45; kb:investigative&#45;action&#45;7786ff3a&#45;d40b&#45;45a9&#45;b65c&#45;94ad10597b62</text>
<text text-anchor="middle" x="249.36" y="-459.75" font-family="Times,serif" font-size="14.00">[2017&#45;06&#45;22T08:01:23.140000+00:00, ...)</text>
<text text-anchor="middle" x="249.36" y="-443.25" font-family="Times,serif" font-size="14.00">transferred</text>
</a>
</g>
</g>
<!-- _e4b858d48d0d5614cb16126804c625061bd8e23ff236ebab37d5bda3d01b1165&#45;&gt;_cdb296df5fffff1490615834e6ddd5df27b2e369cd98e1bb808d67e8bef47723 -->
<g id="edge2" class="edge">
<title>_e4b858d48d0d5614cb16126804c625061bd8e23ff236ebab37d5bda3d01b1165&#45;&gt;_cdb296df5fffff1490615834e6ddd5df27b2e369cd98e1bb808d67e8bef47723</title>
<path fill="none" stroke="#0000cd" d="M249.36,-389.13C249.36,-400.11 249.36,-412.9 249.36,-424.76"/>
<polygon fill="#0000cd" stroke="#0000cd" points="245.86,-424.76 249.36,-434.76 252.86,-424.76 245.86,-424.76"/>
<text text-anchor="middle" x="281.61" y="-408.55" font-family="Times,serif" font-size="10.00">wasInformedBy</text>
</g>
<!-- _10a72b78c08433064bbdc00a4a250a9b0f240bdf41ac0829d28a35d1ecb36fe4 -->
<g id="node13" class="node">
<title>_10a72b78c08433064bbdc00a4a250a9b0f240bdf41ac0829d28a35d1ecb36fe4</title>
<g id="a_node13"><a xlink:title="Start of http://example.org/kb/investigative&#45;action&#45;714255fe&#45;ce2d&#45;43e5&#45;b0da&#45;0910cc0e3997">
<ellipse fill="lightgray" stroke="dimgray" cx="467.36" cy="-464.8" rx="1.8" ry="1.8"/>
</a>
</g>
</g>
<!-- _e4b858d48d0d5614cb16126804c625061bd8e23ff236ebab37d5bda3d01b1165&#45;&gt;_10a72b78c08433064bbdc00a4a250a9b0f240bdf41ac0829d28a35d1ecb36fe4 -->
<g id="edge18" class="edge">
<title>_e4b858d48d0d5614cb16126804c625061bd8e23ff236ebab37d5bda3d01b1165&#45;&gt;_10a72b78c08433064bbdc00a4a250a9b0f240bdf41ac0829d28a35d1ecb36fe4</title>
<path fill="none" stroke="dimgray" stroke-dasharray="1,5" d="M379.39,-389.29C407.39,-400.21 434.97,-415.28 456.36,-436.05 462.38,-441.9 465.19,-451.46 466.44,-457.69"/>
<polygon fill="dimgray" stroke="dimgray" points="472,-460.76 462.13,-462.37 461.81,-460.39 471.68,-458.79 472,-460.76"/>
<polyline fill="none" stroke="dimgray" points="467.23,-462.55 466.42,-457.62"/>
</g>
<!-- _cdb296df5fffff1490615834e6ddd5df27b2e369cd98e1bb808d67e8bef47723&#45;&gt;_768d458d8a893ce47a2e468c0e3aefc13b8ae86905a8961db6bf690ffff2b4cf -->
<g id="edge3" class="edge">
<title>_cdb296df5fffff1490615834e6ddd5df27b2e369cd98e1bb808d67e8bef47723&#45;&gt;_768d458d8a893ce47a2e468c0e3aefc13b8ae86905a8961db6bf690ffff2b4cf</title>
<path fill="none" stroke="#0000cd" d="M249.09,-493.88C248.98,-504.86 248.86,-517.65 248.74,-529.51"/>
<polygon fill="#0000cd" stroke="#0000cd" points="245.23,-529.47 248.63,-539.51 252.23,-529.54 245.23,-529.47"/>
<text text-anchor="middle" x="281.61" y="-513.3" font-family="Times,serif" font-size="10.00">wasInformedBy</text>
</g>
<!-- _924a645680a66b032261900476fcf674a6384365cd8ec1cd0ad3bea922375e13 -->
<g id="node12" class="node">
<title>_924a645680a66b032261900476fcf674a6384365cd8ec1cd0ad3bea922375e13</title>
<g id="a_node12"><a xlink:title="Start of http://example.org/kb/investigative&#45;action&#45;7786ff3a&#45;d40b&#45;45a9&#45;b65c&#45;94ad10597b62">
<ellipse fill="lightgray" stroke="dimgray" cx="467.36" cy="-569.55" rx="1.8" ry="1.8"/>
</a>
</g>
</g>
<!-- _cdb296df5fffff1490615834e6ddd5df27b2e369cd98e1bb808d67e8bef47723&#45;&gt;_924a645680a66b032261900476fcf674a6384365cd8ec1cd0ad3bea922375e13 -->
<g id="edge16" class="edge">
<title>_cdb296df5fffff1490615834e6ddd5df27b2e369cd98e1bb808d67e8bef47723&#45;&gt;_924a645680a66b032261900476fcf674a6384365cd8ec1cd0ad3bea922375e13</title>
<path fill="none" stroke="dimgray" stroke-dasharray="1,5" d="M379.39,-494.04C407.39,-504.96 434.97,-520.03 456.36,-540.8 462.38,-546.65 465.19,-556.21 466.44,-562.44"/>
<polygon fill="dimgray" stroke="dimgray" points="472,-565.51 462.13,-567.12 461.81,-565.14 471.68,-563.54 472,-565.51"/>
<polyline fill="none" stroke="dimgray" points="467.23,-567.3 466.42,-562.37"/>
</g>
<!-- _bd40f374d8f2e85d5f211f446a5ea1078f32550ed896c666dc8ea9790dc0093b&#45;&gt;_e4b858d48d0d5614cb16126804c625061bd8e23ff236ebab37d5bda3d01b1165 -->
<g id="edge4" class="edge">
<title>_bd40f374d8f2e85d5f211f446a5ea1078f32550ed896c666dc8ea9790dc0093b&#45;&gt;_e4b858d48d0d5614cb16126804c625061bd8e23ff236ebab37d5bda3d01b1165</title>
<path fill="none" stroke="#0000cd" d="M249.36,-203.04C249.36,-234.24 249.36,-284.95 249.36,-320.05"/>
<polygon fill="#0000cd" stroke="#0000cd" points="245.86,-319.85 249.36,-329.85 252.86,-319.85 245.86,-319.85"/>
<text text-anchor="middle" x="281.61" y="-263.2" font-family="Times,serif" font-size="10.00">wasInformedBy</text>
</g>
<!-- _fdea66a2e81a75c60701900bc00efb0e7ee1c4c906bcc37f71dbf1e0dc47a598 -->
<g id="node9" class="node">
<title>_fdea66a2e81a75c60701900bc00efb0e7ee1c4c906bcc37f71dbf1e0dc47a598</title>
<g id="a_node9"><a xlink:title="Start of http://example.org/kb/investigative&#45;action&#45;b8fd94b9&#45;ceae&#45;4c2f&#45;aa38&#45;8cfaa98804fe">
<ellipse fill="lightgray" stroke="dimgray" cx="460.36" cy="-241.65" rx="1.8" ry="1.8"/>
</a>
</g>
</g>
<!-- _bd40f374d8f2e85d5f211f446a5ea1078f32550ed896c666dc8ea9790dc0093b&#45;&gt;_fdea66a2e81a75c60701900bc00efb0e7ee1c4c906bcc37f71dbf1e0dc47a598 -->
<g id="edge9" class="edge">
<title>_bd40f374d8f2e85d5f211f446a5ea1078f32550ed896c666dc8ea9790dc0093b&#45;&gt;_fdea66a2e81a75c60701900bc00efb0e7ee1c4c906bcc37f71dbf1e0dc47a598</title>
<path fill="none" stroke="dimgray" stroke-dasharray="1,5" d="M340.07,-203.28C386.63,-217.74 437.12,-233.43 454.27,-238.76"/>
<polygon fill="dimgray" stroke="dimgray" points="459.28,-235.08 456.31,-244.63 454.4,-244.04 457.37,-234.49 459.28,-235.08"/>
<polyline fill="none" stroke="dimgray" points="458.75,-240.15 453.98,-238.67"/>
</g>
<!-- _ba5775f5c727188f754dfe15a308e6203397a9a29c0bac9a1e53ce0d0dcf96c1 -->
<g id="node6" class="node">
<title>_ba5775f5c727188f754dfe15a308e6203397a9a29c0bac9a1e53ce0d0dcf96c1</title>
<g id="a_node6"><a xlink:title="End of http://example.org/kb/investigative&#45;action&#45;714255fe&#45;ce2d&#45;43e5&#45;b0da&#45;0910cc0e3997">
<ellipse fill="lightgray" stroke="dimgray" cx="377.36" cy="-292.5" rx="1.8" ry="1.8"/>
</a>
</g>
</g>
<!-- _ba5775f5c727188f754dfe15a308e6203397a9a29c0bac9a1e53ce0d0dcf96c1&#45;&gt;_e4b858d48d0d5614cb16126804c625061bd8e23ff236ebab37d5bda3d01b1165 -->
<g id="edge20" class="edge">
<title>_ba5775f5c727188f754dfe15a308e6203397a9a29c0bac9a1e53ce0d0dcf96c1&#45;&gt;_e4b858d48d0d5614cb16126804c625061bd8e23ff236ebab37d5bda3d01b1165</title>
<path fill="none" stroke="dimgray" stroke-dasharray="1,5" d="M371.7,-296.4C359.76,-302.51 330.91,-317.29 304.22,-330.95"/>
<polygon fill="dimgray" stroke="dimgray" points="372.75,-290.24 377.31,-299.14 375.53,-300.05 370.97,-291.15 372.75,-290.24"/>
<polyline fill="none" stroke="dimgray" points="375.92,-294.24 371.47,-296.52"/>
</g>
<!-- _ba5775f5c727188f754dfe15a308e6203397a9a29c0bac9a1e53ce0d0dcf96c1&#45;&gt;_10a72b78c08433064bbdc00a4a250a9b0f240bdf41ac0829d28a35d1ecb36fe4 -->
<g id="edge17" class="edge">
<title>_ba5775f5c727188f754dfe15a308e6203397a9a29c0bac9a1e53ce0d0dcf96c1&#45;&gt;_10a72b78c08433064bbdc00a4a250a9b0f240bdf41ac0829d28a35d1ecb36fe4</title>
<path fill="none" stroke="dimgray" stroke-dasharray="1,5" d="M379.19,-293.5C390.64,-293.61 452.88,-295.88 477.36,-331.3 503.45,-369.06 482.95,-428.15 472.52,-452.62"/>
<polygon fill="dimgray" stroke="dimgray" points="468.93,-451.05 467.96,-461.6 475.3,-453.95 468.93,-451.05"/>
</g>
<!-- _9cd45bdfa54c6e04fca450b718267b1167a67c54a99a00546d25c80c8955008b -->
<g id="node7" class="node">
<title>_9cd45bdfa54c6e04fca450b718267b1167a67c54a99a00546d25c80c8955008b</title>
<g id="a_node7"><a xlink:title="End of http://example.org/kb/investigative&#45;action&#45;49e0d70c&#45;f1bc&#45;40a4&#45;8866&#45;45ddb8ad4e89">
<ellipse fill="lightgray" stroke="dimgray" cx="249.36" cy="-1.8" rx="1.8" ry="1.8"/>
</a>
</g>
</g>
<!-- _9cd45bdfa54c6e04fca450b718267b1167a67c54a99a00546d25c80c8955008b&#45;&gt;_07100fc0a937adfc2edc1067370f367eb155d9bef13801fe0ed9423948113a1e -->
<g id="edge19" class="edge">
<title>_9cd45bdfa54c6e04fca450b718267b1167a67c54a99a00546d25c80c8955008b&#45;&gt;_07100fc0a937adfc2edc1067370f367eb155d9bef13801fe0ed9423948113a1e</title>
<path fill="none" stroke="dimgray" stroke-dasharray="1,5" d="M249.36,-8.87C249.36,-16.04 249.36,-28.46 249.36,-40.11"/>
<polygon fill="dimgray" stroke="dimgray" points="244.36,-4.94 254.36,-4.94 254.36,-6.94 244.36,-6.94 244.36,-4.94"/>
<polyline fill="none" stroke="dimgray" points="249.36,-3.94 249.36,-8.94"/>
</g>
<!-- _9cd45bdfa54c6e04fca450b718267b1167a67c54a99a00546d25c80c8955008b&#45;&gt;_fdea66a2e81a75c60701900bc00efb0e7ee1c4c906bcc37f71dbf1e0dc47a598 -->
<g id="edge7" class="edge">
<title>_9cd45bdfa54c6e04fca450b718267b1167a67c54a99a00546d25c80c8955008b&#45;&gt;_fdea66a2e81a75c60701900bc00efb0e7ee1c4c906bcc37f71dbf1e0dc47a598</title>
<path fill="none" stroke="dimgray" stroke-dasharray="1,5" d="M251.21,-2.77C272.11,-2.47 464.19,-0.8 499.36,-40.6 547.12,-94.66 516.82,-133.98 495.36,-202.85 492.46,-212.17 490.76,-214.49 484.36,-221.85 480.26,-226.57 474.83,-230.94 470.18,-234.27"/>
<polygon fill="dimgray" stroke="dimgray" points="468.82,-231.63 462.39,-240.05 472.66,-237.48 468.82,-231.63"/>
</g>
<!-- _9cd45bdfa54c6e04fca450b718267b1167a67c54a99a00546d25c80c8955008b&#45;&gt;_51808f4bded01d412ba4a73e760f4c6287a05435da010eb3567be921cc70dbcd -->
<g id="edge12" class="edge">
<title>_9cd45bdfa54c6e04fca450b718267b1167a67c54a99a00546d25c80c8955008b&#45;&gt;_51808f4bded01d412ba4a73e760f4c6287a05435da010eb3567be921cc70dbcd</title>
<path fill="none" stroke="dimgray" stroke-dasharray="1,5" d="M247.68,-2.81C228.7,-2.92 54.26,-4.9 21.36,-40.6 -9.88,-74.49 0.92,-136.13 7.19,-161.61"/>
<polygon fill="dimgray" stroke="dimgray" points="4.04,-162.36 10.04,-171.09 10.79,-160.52 4.04,-162.36"/>
</g>
<!-- _b051a3ff9a3bc32e7c0e1eacb90671ee93927da939fa81bc409c86f1b23b1fd3 -->
<g id="node8" class="node">
<title>_b051a3ff9a3bc32e7c0e1eacb90671ee93927da939fa81bc409c86f1b23b1fd3</title>
<g id="a_node8"><a xlink:title="End of http://example.org/kb/investigative&#45;action&#45;b8fd94b9&#45;ceae&#45;4c2f&#45;aa38&#45;8cfaa98804fe">
<ellipse fill="lightgray" stroke="dimgray" cx="488.36" cy="-69.35" rx="1.8" ry="1.8"/>
</a>
</g>
</g>
<!-- _b051a3ff9a3bc32e7c0e1eacb90671ee93927da939fa81bc409c86f1b23b1fd3&#45;&gt;_bd40f374d8f2e85d5f211f446a5ea1078f32550ed896c666dc8ea9790dc0093b -->
<g id="edge21" class="edge">
<title>_b051a3ff9a3bc32e7c0e1eacb90671ee93927da939fa81bc409c86f1b23b1fd3&#45;&gt;_bd40f374d8f2e85d5f211f446a5ea1078f32550ed896c666dc8ea9790dc0093b</title>
<path fill="none" stroke="dimgray" stroke-dasharray="1,5" d="M487.47,-76.5C486.25,-82.76 483.47,-92.34 477.36,-98.1 455.22,-118.96 427.17,-134.02 398.37,-144.89"/>
<polygon fill="dimgray" stroke="dimgray" points="483.14,-71.83 493.02,-73.37 492.71,-75.34 482.83,-73.8 483.14,-71.83"/>
<polyline fill="none" stroke="dimgray" points="488.24,-71.61 487.46,-76.55"/>
</g>
<!-- _b051a3ff9a3bc32e7c0e1eacb90671ee93927da939fa81bc409c86f1b23b1fd3&#45;&gt;_fdea66a2e81a75c60701900bc00efb0e7ee1c4c906bcc37f71dbf1e0dc47a598 -->
<g id="edge8" class="edge">
<title>_b051a3ff9a3bc32e7c0e1eacb90671ee93927da939fa81bc409c86f1b23b1fd3&#45;&gt;_fdea66a2e81a75c60701900bc00efb0e7ee1c4c906bcc37f71dbf1e0dc47a598</title>
<path fill="none" stroke="dimgray" stroke-dasharray="1,5" d="M488.41,-71.43C488.8,-80.85 491.1,-149.66 477.36,-202.85 474.89,-212.43 470.17,-222.62 466.33,-230.01"/>
<polygon fill="dimgray" stroke="dimgray" points="462.83,-228.09 461.04,-238.53 468.95,-231.48 462.83,-228.09"/>
</g>
<!-- _b051a3ff9a3bc32e7c0e1eacb90671ee93927da939fa81bc409c86f1b23b1fd3&#45;&gt;_51808f4bded01d412ba4a73e760f4c6287a05435da010eb3567be921cc70dbcd -->
<g id="edge13" class="edge">
<title>_b051a3ff9a3bc32e7c0e1eacb90671ee93927da939fa81bc409c86f1b23b1fd3&#45;&gt;_51808f4bded01d412ba4a73e760f4c6287a05435da010eb3567be921cc70dbcd</title>
<path fill="none" stroke="dimgray" stroke-dasharray="1,5" d="M488.31,-71.44C488.06,-75.7 486.54,-91.33 477.36,-98.1 456.55,-113.45 271.08,-113.43 245.36,-116.1 195.43,-121.29 60.97,-114.51 21.36,-145.35 16.44,-149.18 13.72,-155.54 12.21,-161.21"/>
<polygon fill="dimgray" stroke="dimgray" points="8.6,-160.59 10.42,-171.02 15.5,-161.73 8.6,-160.59"/>
</g>
<!-- _fdea66a2e81a75c60701900bc00efb0e7ee1c4c906bcc37f71dbf1e0dc47a598&#45;&gt;_ba5775f5c727188f754dfe15a308e6203397a9a29c0bac9a1e53ce0d0dcf96c1 -->
<g id="edge5" class="edge">
<title>_fdea66a2e81a75c60701900bc00efb0e7ee1c4c906bcc37f71dbf1e0dc47a598&#45;&gt;_ba5775f5c727188f754dfe15a308e6203397a9a29c0bac9a1e53ce0d0dcf96c1</title>
<path fill="none" stroke="dimgray" stroke-dasharray="1,5" d="M459.19,-243.34C451.52,-247.85 408.26,-273.31 387.93,-285.28"/>
<polygon fill="dimgray" stroke="dimgray" points="386.45,-282.68 379.61,-290.76 390,-288.71 386.45,-282.68"/>
</g>
<!-- _51808f4bded01d412ba4a73e760f4c6287a05435da010eb3567be921cc70dbcd&#45;&gt;_ba5775f5c727188f754dfe15a308e6203397a9a29c0bac9a1e53ce0d0dcf96c1 -->
<g id="edge6" class="edge">
<title>_51808f4bded01d412ba4a73e760f4c6287a05435da010eb3567be921cc70dbcd&#45;&gt;_ba5775f5c727188f754dfe15a308e6203397a9a29c0bac9a1e53ce0d0dcf96c1</title>
<path fill="none" stroke="dimgray" stroke-dasharray="1,5" d="M10.45,-176.4C10.84,-180.85 12.76,-195.68 21.36,-202.85 123.69,-288.18 189.06,-219.03 315.36,-261.45 334.47,-267.87 355.3,-278.86 367.29,-285.62"/>
<polygon fill="dimgray" stroke="dimgray" points="365.12,-288.99 375.52,-290.99 368.63,-282.94 365.12,-288.99"/>
</g>
<!-- _924a645680a66b032261900476fcf674a6384365cd8ec1cd0ad3bea922375e13&#45;&gt;_706b0ceea09118a850193641e1b9d2b7dbc725464b12591a14ee72824eab1a69 -->
<g id="edge10" class="edge">
<title>_924a645680a66b032261900476fcf674a6384365cd8ec1cd0ad3bea922375e13&#45;&gt;_706b0ceea09118a850193641e1b9d2b7dbc725464b12591a14ee72824eab1a69</title>
<path fill="none" stroke="dimgray" stroke-dasharray="1,5" d="M467.22,-571.79C466.68,-576.09 464.33,-590.43 456.36,-598.3 432.01,-622.34 390.79,-631.4 370.06,-634.56"/>
<polygon fill="dimgray" stroke="dimgray" points="369.76,-631.2 360.28,-635.93 370.65,-638.14 369.76,-631.2"/>
</g>
<!-- _10a72b78c08433064bbdc00a4a250a9b0f240bdf41ac0829d28a35d1ecb36fe4&#45;&gt;_924a645680a66b032261900476fcf674a6384365cd8ec1cd0ad3bea922375e13 -->
<g id="edge15" class="edge">
<title>_10a72b78c08433064bbdc00a4a250a9b0f240bdf41ac0829d28a35d1ecb36fe4&#45;&gt;_924a645680a66b032261900476fcf674a6384365cd8ec1cd0ad3bea922375e13</title>
<path fill="none" stroke="dimgray" stroke-dasharray="1,5" d="M467.36,-466.95C467.36,-475.69 467.36,-531.7 467.36,-556.62"/>
<polygon fill="dimgray" stroke="dimgray" points="463.86,-556.27 467.36,-566.27 470.86,-556.27 463.86,-556.27"/>
</g>
</g>
</svg>
