<?xml version="1.0" encoding="UTF-8" standalone="no"?>
<!DOCTYPE svg PUBLIC "-//W3C//DTD SVG 1.1//EN"
 "http://www.w3.org/Graphics/SVG/1.1/DTD/svg11.dtd">
<!-- Generated by graphviz version 14.0.5 (20251129.0259)
 -->
<!-- Title: PROV&#45;O render Pages: 1 -->
<svg width="750pt" height="661pt"
 viewBox="0.00 0.00 750.00 661.00" xmlns="http://www.w3.org/2000/svg" xmlns:xlink="http://www.w3.org/1999/xlink">
<g id="graph0" class="graph" transform="scale(1 1) rotate(0) translate(4 657.07)">
<title>PROV&#45;O render</title>
<polygon fill="white" stroke="none" points="-4,4 -4,-657.07 746.47,-657.07 746.47,4 -4,4"/>
<!-- _bd40f374d8f2e85d5f211f446a5ea1078f32550ed896c666dc8ea9790dc0093b -->
<g id="node1" class="node">
<title>_bd40f374d8f2e85d5f211f446a5ea1078f32550ed896c666dc8ea9790dc0093b</title>
<g id="a_node1"><a xlink:title="ID &#45; http://example.org/kb/investigative&#45;action&#45;b8fd94b9&#45;ceae&#45;4c2f&#45;aa38&#45;8cfaa98804fe">
<polygon fill="#fed37f" stroke="black" points="703.76,-192.26 365.29,-217.02 26.82,-192.26 27.14,-152.19 703.44,-152.19 703.76,-192.26"/>
<text xml:space="preserve" text-anchor="middle" x="365.29" y="-184.39" font-family="Times,serif" font-size="14.00">ID &#45; kb:investigative&#45;action&#45;b8fd94b9&#45;ceae&#45;4c2f&#45;aa38&#45;8cfaa98804fe</text>
<text xml:space="preserve" text-anchor="middle" x="365.29" y="-167.89" font-family="Times,serif" font-size="14.00">extracted</text>
</a>
</g>
</g>
<!-- _e4b858d48d0d5614cb16126804c625061bd8e23ff236ebab37d5bda3d01b1165 -->
<g id="node4" class="node">
<title>_e4b858d48d0d5614cb16126804c625061bd8e23ff236ebab37d5bda3d01b1165</title>
<g id="a_node4"><a xlink:title="ID &#45; http://example.org/kb/investigative&#45;action&#45;714255fe&#45;ce2d&#45;43e5&#45;b0da&#45;0910cc0e3997">
<polygon fill="#9fb1fc" stroke="#0000ff" points="584.04,-402.97 146.54,-402.97 146.54,-345.47 584.04,-345.47 584.04,-402.97"/>
<text xml:space="preserve" text-anchor="middle" x="365.29" y="-385.67" font-family="Times,serif" font-size="14.00">ID &#45; kb:investigative&#45;action&#45;714255fe&#45;ce2d&#45;43e5&#45;b0da&#45;0910cc0e3997</text>
<text xml:space="preserve" text-anchor="middle" x="365.29" y="-369.17" font-family="Times,serif" font-size="14.00">[2017&#45;06&#45;22T08:12:19.320000+00:00, 2017&#45;06&#45;22T08:39:19.240000+00:00]</text>
<text xml:space="preserve" text-anchor="middle" x="365.29" y="-352.67" font-family="Times,serif" font-size="14.00">extracted</text>
</a>
</g>
</g>
<!-- _bd40f374d8f2e85d5f211f446a5ea1078f32550ed896c666dc8ea9790dc0093b&#45;&gt;_e4b858d48d0d5614cb16126804c625061bd8e23ff236ebab37d5bda3d01b1165 -->
<g id="edge4" class="edge">
<title>_bd40f374d8f2e85d5f211f446a5ea1078f32550ed896c666dc8ea9790dc0093b&#45;&gt;_e4b858d48d0d5614cb16126804c625061bd8e23ff236ebab37d5bda3d01b1165</title>
<path fill="none" stroke="#0000cd" d="M365.29,-217.22C365.29,-250.18 365.29,-299.45 365.29,-333.77"/>
<polygon fill="#0000cd" stroke="#0000cd" points="361.79,-333.72 365.29,-343.72 368.79,-333.72 361.79,-333.72"/>
<text xml:space="preserve" text-anchor="middle" x="397.54" y="-277.37" font-family="Times,serif" font-size="10.00">wasInformedBy</text>
</g>
<!-- _fdea66a2e81a75c60701900bc00efb0e7ee1c4c906bcc37f71dbf1e0dc47a598 -->
<g id="node9" class="node">
<title>_fdea66a2e81a75c60701900bc00efb0e7ee1c4c906bcc37f71dbf1e0dc47a598</title>
<g id="a_node9"><a xlink:title="ID &#45; http://example.org/kb/Start&#45;374045d8&#45;e8c6&#45;59fc&#45;bf64&#45;650ed2e63e93&#10;&#10;2017&#45;06&#45;22T09:57:23.640000+00:00&#10;&#10;Start of http://example.org/kb/investigative&#45;action&#45;b8fd94b9&#45;ceae&#45;4c2f&#45;aa38&#45;8cfaa98804fe">
<ellipse fill="lightgray" stroke="dimgray" cx="665.29" cy="-255.82" rx="1.8" ry="1.8"/>
</a>
</g>
</g>
<!-- _bd40f374d8f2e85d5f211f446a5ea1078f32550ed896c666dc8ea9790dc0093b&#45;&gt;_fdea66a2e81a75c60701900bc00efb0e7ee1c4c906bcc37f71dbf1e0dc47a598 -->
<g id="edge9" class="edge">
<title>_bd40f374d8f2e85d5f211f446a5ea1078f32550ed896c666dc8ea9790dc0093b&#45;&gt;_fdea66a2e81a75c60701900bc00efb0e7ee1c4c906bcc37f71dbf1e0dc47a598</title>
<path fill="none" stroke="dimgray" stroke-dasharray="1,5" d="M477,-209.23C549.79,-226.86 635.48,-247.6 659.03,-253.31"/>
<polygon fill="dimgray" stroke="dimgray" points="664.01,-249.37 661.65,-259.09 659.71,-258.61 662.06,-248.9 664.01,-249.37"/>
<polyline fill="none" stroke="dimgray" points="663.8,-254.46 658.94,-253.28"/>
</g>
<!-- _768d458d8a893ce47a2e468c0e3aefc13b8ae86905a8961db6bf690ffff2b4cf -->
<g id="node2" class="node">
<title>_768d458d8a893ce47a2e468c0e3aefc13b8ae86905a8961db6bf690ffff2b4cf</title>
<g id="a_node2"><a xlink:title="ID &#45; http://example.org/kb/investigative&#45;action&#45;30079255&#45;a489&#45;4dc2&#45;ab5a&#45;b9633a1cce95">
<polygon fill="#9fb1fc" stroke="#0000ff" points="563.54,-612.47 165.04,-612.47 165.04,-554.97 563.54,-554.97 563.54,-612.47"/>
<text xml:space="preserve" text-anchor="middle" x="364.29" y="-595.17" font-family="Times,serif" font-size="14.00">ID &#45; kb:investigative&#45;action&#45;30079255&#45;a489&#45;4dc2&#45;ab5a&#45;b9633a1cce95</text>
<text xml:space="preserve" text-anchor="middle" x="364.29" y="-578.67" font-family="Times,serif" font-size="14.00">[2017&#45;06&#45;21T22:36:24.350000+00:00, ...)</text>
<text xml:space="preserve" text-anchor="middle" x="364.29" y="-562.17" font-family="Times,serif" font-size="14.00">preserved</text>
</a>
</g>
</g>
<!-- _706b0ceea09118a850193641e1b9d2b7dbc725464b12591a14ee72824eab1a69 -->
<g id="node10" class="node">
<title>_706b0ceea09118a850193641e1b9d2b7dbc725464b12591a14ee72824eab1a69</title>
<g id="a_node10"><a xlink:title="ID &#45; http://example.org/kb/Start&#45;9e0e52fc&#45;16d6&#45;5536&#45;ab0c&#45;d9728e2f35b8&#10;&#10;2017&#45;06&#45;21T22:36:24.350000+00:00&#10;&#10;Start of http://example.org/kb/investigative&#45;action&#45;30079255&#45;a489&#45;4dc2&#45;ab5a&#45;b9633a1cce95">
<ellipse fill="lightgray" stroke="dimgray" cx="473.29" cy="-651.27" rx="1.8" ry="1.8"/>
</a>
</g>
</g>
<!-- _768d458d8a893ce47a2e468c0e3aefc13b8ae86905a8961db6bf690ffff2b4cf&#45;&gt;_706b0ceea09118a850193641e1b9d2b7dbc725464b12591a14ee72824eab1a69 -->
<g id="edge11" class="edge">
<title>_768d458d8a893ce47a2e468c0e3aefc13b8ae86905a8961db6bf690ffff2b4cf&#45;&gt;_706b0ceea09118a850193641e1b9d2b7dbc725464b12591a14ee72824eab1a69</title>
<path fill="none" stroke="dimgray" stroke-dasharray="1,5" d="M411.15,-612.9C433.74,-626.49 458.11,-641.14 468.34,-647.29"/>
<polygon fill="dimgray" stroke="dimgray" points="474.18,-644.97 469.02,-653.54 467.31,-652.51 472.46,-643.94 474.18,-644.97"/>
<polyline fill="none" stroke="dimgray" points="472.46,-649.77 468.17,-647.19"/>
</g>
<!-- _07100fc0a937adfc2edc1067370f367eb155d9bef13801fe0ed9423948113a1e -->
<g id="node3" class="node">
<title>_07100fc0a937adfc2edc1067370f367eb155d9bef13801fe0ed9423948113a1e</title>
<g id="a_node3"><a xlink:title="ID &#45; http://example.org/kb/investigative&#45;action&#45;49e0d70c&#45;f1bc&#45;40a4&#45;8866&#45;45ddb8ad4e89">
<polygon fill="#9fb1fc" stroke="#0000ff" points="473.04,-98.1 35.54,-98.1 35.54,-40.6 473.04,-40.6 473.04,-98.1"/>
<text xml:space="preserve" text-anchor="middle" x="254.29" y="-80.8" font-family="Times,serif" font-size="14.00">ID &#45; kb:investigative&#45;action&#45;49e0d70c&#45;f1bc&#45;40a4&#45;8866&#45;45ddb8ad4e89</text>
<text xml:space="preserve" text-anchor="middle" x="254.29" y="-64.3" font-family="Times,serif" font-size="14.00">[2017&#45;06&#45;22T09:57:23.640000+00:00, 2017&#45;06&#45;22T10:31:19.240000+00:00]</text>
<text xml:space="preserve" text-anchor="middle" x="254.29" y="-47.8" font-family="Times,serif" font-size="14.00">parsed</text>
</a>
</g>
</g>
<!-- _07100fc0a937adfc2edc1067370f367eb155d9bef13801fe0ed9423948113a1e&#45;&gt;_bd40f374d8f2e85d5f211f446a5ea1078f32550ed896c666dc8ea9790dc0093b -->
<g id="edge1" class="edge">
<title>_07100fc0a937adfc2edc1067370f367eb155d9bef13801fe0ed9423948113a1e&#45;&gt;_bd40f374d8f2e85d5f211f446a5ea1078f32550ed896c666dc8ea9790dc0093b</title>
<path fill="none" stroke="#0000cd" d="M282.59,-98.35C296.57,-112.19 313.61,-129.05 328.58,-143.87"/>
<polygon fill="#0000cd" stroke="#0000cd" points="326.01,-146.24 335.58,-150.79 330.93,-141.27 326.01,-146.24"/>
<text xml:space="preserve" text-anchor="middle" x="342.04" y="-117.85" font-family="Times,serif" font-size="10.00">wasInformedBy</text>
</g>
<!-- _51808f4bded01d412ba4a73e760f4c6287a05435da010eb3567be921cc70dbcd -->
<g id="node11" class="node">
<title>_51808f4bded01d412ba4a73e760f4c6287a05435da010eb3567be921cc70dbcd</title>
<g id="a_node11"><a xlink:title="ID &#45; http://example.org/kb/Start&#45;a2131571&#45;c0fa&#45;5fd0&#45;97d6&#45;777208d72098&#10;&#10;2017&#45;06&#45;22T09:57:23.640000+00:00&#10;&#10;Start of http://example.org/kb/investigative&#45;action&#45;49e0d70c&#45;f1bc&#45;40a4&#45;8866&#45;45ddb8ad4e89">
<ellipse fill="lightgray" stroke="dimgray" cx="7.29" cy="-181.19" rx="1.8" ry="1.8"/>
</a>
</g>
</g>
<!-- _07100fc0a937adfc2edc1067370f367eb155d9bef13801fe0ed9423948113a1e&#45;&gt;_51808f4bded01d412ba4a73e760f4c6287a05435da010eb3567be921cc70dbcd -->
<g id="edge14" class="edge">
<title>_07100fc0a937adfc2edc1067370f367eb155d9bef13801fe0ed9423948113a1e&#45;&gt;_51808f4bded01d412ba4a73e760f4c6287a05435da010eb3567be921cc70dbcd</title>
<path fill="none" stroke="dimgray" stroke-dasharray="1,5" d="M93.42,-98.57C65.66,-109.45 39.09,-124.51 18.29,-145.35 10.43,-153.22 8.18,-166.65 7.54,-174.33"/>
<polygon fill="dimgray" stroke="dimgray" points="12.34,-178.16 2.36,-177.64 2.46,-175.64 12.45,-176.17 12.34,-178.16"/>
<polyline fill="none" stroke="dimgray" points="7.3,-178.9 7.56,-173.91"/>
</g>
<!-- _cdb296df5fffff1490615834e6ddd5df27b2e369cd98e1bb808d67e8bef47723 -->
<g id="node5" class="node">
<title>_cdb296df5fffff1490615834e6ddd5df27b2e369cd98e1bb808d67e8bef47723</title>
<g id="a_node5"><a xlink:title="ID &#45; http://example.org/kb/investigative&#45;action&#45;7786ff3a&#45;d40b&#45;45a9&#45;b65c&#45;94ad10597b62">
<polygon fill="#9fb1fc" stroke="#0000ff" points="563.79,-507.72 166.79,-507.72 166.79,-450.22 563.79,-450.22 563.79,-507.72"/>
<text xml:space="preserve" text-anchor="middle" x="365.29" y="-490.42" font-family="Times,serif" font-size="14.00">ID &#45; kb:investigative&#45;action&#45;7786ff3a&#45;d40b&#45;45a9&#45;b65c&#45;94ad10597b62</text>
<text xml:space="preserve" text-anchor="middle" x="365.29" y="-473.92" font-family="Times,serif" font-size="14.00">[2017&#45;06&#45;22T08:01:23.140000+00:00, ...)</text>
<text xml:space="preserve" text-anchor="middle" x="365.29" y="-457.42" font-family="Times,serif" font-size="14.00">transferred</text>
</a>
</g>
</g>
<!-- _e4b858d48d0d5614cb16126804c625061bd8e23ff236ebab37d5bda3d01b1165&#45;&gt;_cdb296df5fffff1490615834e6ddd5df27b2e369cd98e1bb808d67e8bef47723 -->
<g id="edge2" class="edge">
<title>_e4b858d48d0d5614cb16126804c625061bd8e23ff236ebab37d5bda3d01b1165&#45;&gt;_cdb296df5fffff1490615834e6ddd5df27b2e369cd98e1bb808d67e8bef47723</title>
<path fill="none" stroke="#0000cd" d="M365.29,-403.3C365.29,-414.17 365.29,-426.81 365.29,-438.57"/>
<polygon fill="#0000cd" stroke="#0000cd" points="361.79,-438.41 365.29,-448.41 368.79,-438.41 361.79,-438.41"/>
<text xml:space="preserve" text-anchor="middle" x="397.54" y="-422.72" font-family="Times,serif" font-size="10.00">wasInformedBy</text>
</g>
<!-- _10a72b78c08433064bbdc00a4a250a9b0f240bdf41ac0829d28a35d1ecb36fe4 -->
<g id="node13" class="node">
<title>_10a72b78c08433064bbdc00a4a250a9b0f240bdf41ac0829d28a35d1ecb36fe4</title>
<g id="a_node13"><a xlink:title="ID &#45; http://example.org/kb/Start&#45;e4a6a525&#45;e2d0&#45;5cea&#45;a868&#45;cf883f517ea5&#10;&#10;2017&#45;06&#45;22T08:12:19.320000+00:00&#10;&#10;Start of http://example.org/kb/investigative&#45;action&#45;714255fe&#45;ce2d&#45;43e5&#45;b0da&#45;0910cc0e3997">
<ellipse fill="lightgray" stroke="dimgray" cx="583.29" cy="-478.97" rx="1.8" ry="1.8"/>
</a>
</g>
</g>
<!-- _e4b858d48d0d5614cb16126804c625061bd8e23ff236ebab37d5bda3d01b1165&#45;&gt;_10a72b78c08433064bbdc00a4a250a9b0f240bdf41ac0829d28a35d1ecb36fe4 -->
<g id="edge18" class="edge">
<title>_e4b858d48d0d5614cb16126804c625061bd8e23ff236ebab37d5bda3d01b1165&#45;&gt;_10a72b78c08433064bbdc00a4a250a9b0f240bdf41ac0829d28a35d1ecb36fe4</title>
<path fill="none" stroke="dimgray" stroke-dasharray="1,5" d="M495.32,-403.46C523.32,-414.38 550.9,-429.45 572.29,-450.22 578.31,-456.07 581.12,-465.63 582.37,-471.86"/>
<polygon fill="dimgray" stroke="dimgray" points="587.93,-474.93 578.06,-476.54 577.74,-474.56 587.61,-472.96 587.93,-474.93"/>
<polyline fill="none" stroke="dimgray" points="583.16,-476.72 582.35,-471.79"/>
</g>
<!-- _cdb296df5fffff1490615834e6ddd5df27b2e369cd98e1bb808d67e8bef47723&#45;&gt;_768d458d8a893ce47a2e468c0e3aefc13b8ae86905a8961db6bf690ffff2b4cf -->
<g id="edge3" class="edge">
<title>_cdb296df5fffff1490615834e6ddd5df27b2e369cd98e1bb808d67e8bef47723&#45;&gt;_768d458d8a893ce47a2e468c0e3aefc13b8ae86905a8961db6bf690ffff2b4cf</title>
<path fill="none" stroke="#0000cd" d="M365.02,-508.05C364.91,-518.92 364.79,-531.56 364.67,-543.32"/>
<polygon fill="#0000cd" stroke="#0000cd" points="361.17,-543.13 364.58,-553.16 368.17,-543.2 361.17,-543.13"/>
<text xml:space="preserve" text-anchor="middle" x="397.07" y="-527.47" font-family="Times,serif" font-size="10.00">wasInformedBy</text>
</g>
<!-- _924a645680a66b032261900476fcf674a6384365cd8ec1cd0ad3bea922375e13 -->
<g id="node12" class="node">
<title>_924a645680a66b032261900476fcf674a6384365cd8ec1cd0ad3bea922375e13</title>
<g id="a_node12"><a xlink:title="ID &#45; http://example.org/kb/Start&#45;b80b4d9a&#45;9047&#45;557c&#45;b253&#45;de62930afbc0&#10;&#10;2017&#45;06&#45;22T08:01:23.140000+00:00&#10;&#10;Start of http://example.org/kb/investigative&#45;action&#45;7786ff3a&#45;d40b&#45;45a9&#45;b65c&#45;94ad10597b62">
<ellipse fill="lightgray" stroke="dimgray" cx="583.29" cy="-583.72" rx="1.8" ry="1.8"/>
</a>
</g>
</g>
<!-- _cdb296df5fffff1490615834e6ddd5df27b2e369cd98e1bb808d67e8bef47723&#45;&gt;_924a645680a66b032261900476fcf674a6384365cd8ec1cd0ad3bea922375e13 -->
<g id="edge16" class="edge">
<title>_cdb296df5fffff1490615834e6ddd5df27b2e369cd98e1bb808d67e8bef47723&#45;&gt;_924a645680a66b032261900476fcf674a6384365cd8ec1cd0ad3bea922375e13</title>
<path fill="none" stroke="dimgray" stroke-dasharray="1,5" d="M495.32,-508.21C523.32,-519.13 550.9,-534.2 572.29,-554.97 578.31,-560.82 581.12,-570.38 582.37,-576.61"/>
<polygon fill="dimgray" stroke="dimgray" points="587.93,-579.68 578.06,-581.29 577.74,-579.31 587.61,-577.71 587.93,-579.68"/>
<polyline fill="none" stroke="dimgray" points="583.16,-581.47 582.35,-576.54"/>
</g>
<!-- _ba5775f5c727188f754dfe15a308e6203397a9a29c0bac9a1e53ce0d0dcf96c1 -->
<g id="node6" class="node">
<title>_ba5775f5c727188f754dfe15a308e6203397a9a29c0bac9a1e53ce0d0dcf96c1</title>
<g id="a_node6"><a xlink:title="ID &#45; http://example.org/kb/End&#45;23328962&#45;f49d&#45;5769&#45;b82d&#45;bef9369856ac&#10;&#10;2017&#45;06&#45;22T08:39:19.240000+00:00&#10;&#10;End of http://example.org/kb/investigative&#45;action&#45;714255fe&#45;ce2d&#45;43e5&#45;b0da&#45;0910cc0e3997">
<ellipse fill="lightgray" stroke="dimgray" cx="522.29" cy="-306.67" rx="1.8" ry="1.8"/>
</a>
</g>
</g>
<!-- _ba5775f5c727188f754dfe15a308e6203397a9a29c0bac9a1e53ce0d0dcf96c1&#45;&gt;_e4b858d48d0d5614cb16126804c625061bd8e23ff236ebab37d5bda3d01b1165 -->
<g id="edge20" class="edge">
<title>_ba5775f5c727188f754dfe15a308e6203397a9a29c0bac9a1e53ce0d0dcf96c1&#45;&gt;_e4b858d48d0d5614cb16126804c625061bd8e23ff236ebab37d5bda3d01b1165</title>
<path fill="none" stroke="dimgray" stroke-dasharray="1,5" d="M516.41,-310.12C502.49,-315.94 466.15,-331.11 432.6,-345.12"/>
<polygon fill="dimgray" stroke="dimgray" points="518.08,-304.01 521.94,-313.24 520.09,-314.01 516.24,-304.78 518.08,-304.01"/>
<polyline fill="none" stroke="dimgray" points="520.93,-308.24 516.32,-310.16"/>
</g>
<!-- _ba5775f5c727188f754dfe15a308e6203397a9a29c0bac9a1e53ce0d0dcf96c1&#45;&gt;_10a72b78c08433064bbdc00a4a250a9b0f240bdf41ac0829d28a35d1ecb36fe4 -->
<g id="edge17" class="edge">
<title>_ba5775f5c727188f754dfe15a308e6203397a9a29c0bac9a1e53ce0d0dcf96c1&#45;&gt;_10a72b78c08433064bbdc00a4a250a9b0f240bdf41ac0829d28a35d1ecb36fe4</title>
<path fill="none" stroke="dimgray" stroke-dasharray="1,5" d="M524.06,-307.95C533.39,-309.52 576.9,-318.17 593.29,-345.47 616.7,-384.45 598.13,-441.95 588.35,-466.34"/>
<polygon fill="dimgray" stroke="dimgray" points="585.19,-464.84 584.45,-475.41 591.62,-467.61 585.19,-464.84"/>
</g>
<!-- _9cd45bdfa54c6e04fca450b718267b1167a67c54a99a00546d25c80c8955008b -->
<g id="node7" class="node">
<title>_9cd45bdfa54c6e04fca450b718267b1167a67c54a99a00546d25c80c8955008b</title>
<g id="a_node7"><a xlink:title="ID &#45; http://example.org/kb/End&#45;8def7942&#45;680e&#45;5e5a&#45;bd9e&#45;a0c2e035f52b&#10;&#10;2017&#45;06&#45;22T10:31:19.240000+00:00&#10;&#10;End of http://example.org/kb/investigative&#45;action&#45;49e0d70c&#45;f1bc&#45;40a4&#45;8866&#45;45ddb8ad4e89">
<ellipse fill="lightgray" stroke="dimgray" cx="254.29" cy="-1.8" rx="1.8" ry="1.8"/>
</a>
</g>
</g>
<!-- _9cd45bdfa54c6e04fca450b718267b1167a67c54a99a00546d25c80c8955008b&#45;&gt;_07100fc0a937adfc2edc1067370f367eb155d9bef13801fe0ed9423948113a1e -->
<g id="edge19" class="edge">
<title>_9cd45bdfa54c6e04fca450b718267b1167a67c54a99a00546d25c80c8955008b&#45;&gt;_07100fc0a937adfc2edc1067370f367eb155d9bef13801fe0ed9423948113a1e</title>
<path fill="none" stroke="dimgray" stroke-dasharray="1,5" d="M254.29,-8.87C254.29,-16.04 254.29,-28.46 254.29,-40.11"/>
<polygon fill="dimgray" stroke="dimgray" points="249.29,-4.94 259.29,-4.94 259.29,-6.94 249.29,-6.94 249.29,-4.94"/>
<polyline fill="none" stroke="dimgray" points="254.29,-3.94 254.29,-8.94"/>
</g>
<!-- _9cd45bdfa54c6e04fca450b718267b1167a67c54a99a00546d25c80c8955008b&#45;&gt;_fdea66a2e81a75c60701900bc00efb0e7ee1c4c906bcc37f71dbf1e0dc47a598 -->
<g id="edge7" class="edge">
<title>_9cd45bdfa54c6e04fca450b718267b1167a67c54a99a00546d25c80c8955008b&#45;&gt;_fdea66a2e81a75c60701900bc00efb0e7ee1c4c906bcc37f71dbf1e0dc47a598</title>
<path fill="none" stroke="dimgray" stroke-dasharray="1,5" d="M256.07,-2.82C279.97,-3.15 538.79,-9.23 703.29,-116.1 742.42,-141.53 751.22,-174.36 732.29,-217.02 722.78,-238.44 694.84,-248.25 678.19,-252.31"/>
<polygon fill="dimgray" stroke="dimgray" points="677.66,-248.85 668.56,-254.26 679.05,-255.71 677.66,-248.85"/>
</g>
<!-- _9cd45bdfa54c6e04fca450b718267b1167a67c54a99a00546d25c80c8955008b&#45;&gt;_51808f4bded01d412ba4a73e760f4c6287a05435da010eb3567be921cc70dbcd -->
<g id="edge12" class="edge">
<title>_9cd45bdfa54c6e04fca450b718267b1167a67c54a99a00546d25c80c8955008b&#45;&gt;_51808f4bded01d412ba4a73e760f4c6287a05435da010eb3567be921cc70dbcd</title>
<path fill="none" stroke="dimgray" stroke-dasharray="1,5" d="M252.62,-2.81C233.73,-3.01 60.12,-5.78 26.29,-40.6 -7.74,-75.63 -0.24,-140.94 4.7,-167.98"/>
<polygon fill="dimgray" stroke="dimgray" points="1.25,-168.55 6.71,-177.63 8.1,-167.13 1.25,-168.55"/>
</g>
<!-- _b051a3ff9a3bc32e7c0e1eacb90671ee93927da939fa81bc409c86f1b23b1fd3 -->
<g id="node8" class="node">
<title>_b051a3ff9a3bc32e7c0e1eacb90671ee93927da939fa81bc409c86f1b23b1fd3</title>
<g id="a_node8"><a xlink:title="ID &#45; http://example.org/kb/End&#45;982645b4&#45;3739&#45;5fd9&#45;8c9d&#45;fb6555922622&#10;&#10;2017&#45;06&#45;22T10:31:19.240000+00:00&#10;&#10;End of http://example.org/kb/investigative&#45;action&#45;b8fd94b9&#45;ceae&#45;4c2f&#45;aa38&#45;8cfaa98804fe">
<ellipse fill="lightgray" stroke="dimgray" cx="493.29" cy="-69.35" rx="1.8" ry="1.8"/>
</a>
</g>
</g>
<!-- _b051a3ff9a3bc32e7c0e1eacb90671ee93927da939fa81bc409c86f1b23b1fd3&#45;&gt;_bd40f374d8f2e85d5f211f446a5ea1078f32550ed896c666dc8ea9790dc0093b -->
<g id="edge21" class="edge">
<title>_b051a3ff9a3bc32e7c0e1eacb90671ee93927da939fa81bc409c86f1b23b1fd3&#45;&gt;_bd40f374d8f2e85d5f211f446a5ea1078f32550ed896c666dc8ea9790dc0093b</title>
<path fill="none" stroke="dimgray" stroke-dasharray="1,5" d="M492.03,-76.16C490.51,-82.15 487.49,-91.51 482.29,-98.1 465.22,-119.72 440.96,-138.02 418.95,-151.82"/>
<polygon fill="dimgray" stroke="dimgray" points="487.98,-71.41 497.73,-73.6 497.29,-75.55 487.54,-73.36 487.98,-71.41"/>
<polyline fill="none" stroke="dimgray" points="493.08,-71.53 491.98,-76.41"/>
</g>
<!-- _b051a3ff9a3bc32e7c0e1eacb90671ee93927da939fa81bc409c86f1b23b1fd3&#45;&gt;_fdea66a2e81a75c60701900bc00efb0e7ee1c4c906bcc37f71dbf1e0dc47a598 -->
<g id="edge8" class="edge">
<title>_b051a3ff9a3bc32e7c0e1eacb90671ee93927da939fa81bc409c86f1b23b1fd3&#45;&gt;_fdea66a2e81a75c60701900bc00efb0e7ee1c4c906bcc37f71dbf1e0dc47a598</title>
<path fill="none" stroke="dimgray" stroke-dasharray="1,5" d="M495.32,-70.26C513.99,-69.6 656.45,-67.2 712.29,-145.35 730.81,-171.27 726.05,-188.29 712.29,-217.02 705.01,-232.22 688.29,-243.26 676.89,-249.35"/>
<polygon fill="dimgray" stroke="dimgray" points="675.69,-246.04 668.2,-253.53 678.73,-252.35 675.69,-246.04"/>
</g>
<!-- _b051a3ff9a3bc32e7c0e1eacb90671ee93927da939fa81bc409c86f1b23b1fd3&#45;&gt;_51808f4bded01d412ba4a73e760f4c6287a05435da010eb3567be921cc70dbcd -->
<g id="edge13" class="edge">
<title>_b051a3ff9a3bc32e7c0e1eacb90671ee93927da939fa81bc409c86f1b23b1fd3&#45;&gt;_51808f4bded01d412ba4a73e760f4c6287a05435da010eb3567be921cc70dbcd</title>
<path fill="none" stroke="dimgray" stroke-dasharray="1,5" d="M493.24,-71.43C492.97,-75.68 491.39,-91.24 482.29,-98.1 449.65,-122.69 339.94,-111.98 299.29,-116.1 268.06,-119.26 42.61,-125.51 18.29,-145.35 11.67,-150.75 8.97,-160.12 7.9,-167.78"/>
<polygon fill="dimgray" stroke="dimgray" points="4.41,-167.41 7.33,-177.6 11.4,-167.82 4.41,-167.41"/>
</g>
<!-- _fdea66a2e81a75c60701900bc00efb0e7ee1c4c906bcc37f71dbf1e0dc47a598&#45;&gt;_ba5775f5c727188f754dfe15a308e6203397a9a29c0bac9a1e53ce0d0dcf96c1 -->
<g id="edge5" class="edge">
<title>_fdea66a2e81a75c60701900bc00efb0e7ee1c4c906bcc37f71dbf1e0dc47a598&#45;&gt;_ba5775f5c727188f754dfe15a308e6203397a9a29c0bac9a1e53ce0d0dcf96c1</title>
<path fill="none" stroke="dimgray" stroke-dasharray="1,5" d="M663.68,-257.37C650.97,-261.71 566.22,-290.66 534.36,-301.55"/>
<polygon fill="dimgray" stroke="dimgray" points="533.47,-298.15 525.14,-304.7 535.73,-304.78 533.47,-298.15"/>
</g>
<!-- _51808f4bded01d412ba4a73e760f4c6287a05435da010eb3567be921cc70dbcd&#45;&gt;_ba5775f5c727188f754dfe15a308e6203397a9a29c0bac9a1e53ce0d0dcf96c1 -->
<g id="edge6" class="edge">
<title>_51808f4bded01d412ba4a73e760f4c6287a05435da010eb3567be921cc70dbcd&#45;&gt;_ba5775f5c727188f754dfe15a308e6203397a9a29c0bac9a1e53ce0d0dcf96c1</title>
<path fill="none" stroke="dimgray" stroke-dasharray="1,5" d="M7.25,-183.25C7.16,-188.05 7.45,-207.84 18.29,-217.02 89.01,-276.95 341.03,-254.49 431.29,-275.62 460.36,-282.43 493.38,-294.45 510.54,-301.04"/>
<polygon fill="dimgray" stroke="dimgray" points="509.03,-304.21 519.62,-304.61 511.59,-297.69 509.03,-304.21"/>
</g>
<!-- _924a645680a66b032261900476fcf674a6384365cd8ec1cd0ad3bea922375e13&#45;&gt;_706b0ceea09118a850193641e1b9d2b7dbc725464b12591a14ee72824eab1a69 -->
<g id="edge10" class="edge">
<title>_924a645680a66b032261900476fcf674a6384365cd8ec1cd0ad3bea922375e13&#45;&gt;_706b0ceea09118a850193641e1b9d2b7dbc725464b12591a14ee72824eab1a69</title>
<path fill="none" stroke="dimgray" stroke-dasharray="1,5" d="M583.15,-585.97C582.61,-590.26 580.25,-604.61 572.29,-612.47 548.18,-636.28 507.52,-645.39 486.6,-648.64"/>
<polygon fill="dimgray" stroke="dimgray" points="486.19,-645.16 476.71,-649.91 487.08,-652.1 486.19,-645.16"/>
</g>
<!-- _10a72b78c08433064bbdc00a4a250a9b0f240bdf41ac0829d28a35d1ecb36fe4&#45;&gt;_924a645680a66b032261900476fcf674a6384365cd8ec1cd0ad3bea922375e13 -->
<g id="edge15" class="edge">
<title>_10a72b78c08433064bbdc00a4a250a9b0f240bdf41ac0829d28a35d1ecb36fe4&#45;&gt;_924a645680a66b032261900476fcf674a6384365cd8ec1cd0ad3bea922375e13</title>
<path fill="none" stroke="dimgray" stroke-dasharray="1,5" d="M583.29,-481.12C583.29,-489.77 583.29,-544.82 583.29,-570.08"/>
<polygon fill="dimgray" stroke="dimgray" points="579.79,-569.93 583.29,-579.93 586.79,-569.93 579.79,-569.93"/>
</g>
</g>
</svg>
