<?xml version="1.0" encoding="UTF-8" standalone="no"?>
<!DOCTYPE svg PUBLIC "-//W3C//DTD SVG 1.1//EN"
 "http://www.w3.org/Graphics/SVG/1.1/DTD/svg11.dtd">
<!-- Generated by graphviz version 12.2.1 (20241206.2353)
 -->
<!-- Title: PROV&#45;O render Pages: 1 -->
<svg width="709pt" height="360pt"
 viewBox="0.00 0.00 709.32 359.86" xmlns="http://www.w3.org/2000/svg" xmlns:xlink="http://www.w3.org/1999/xlink">
<g id="graph0" class="graph" transform="scale(1 1) rotate(0) translate(4 355.86)">
<title>PROV&#45;O render</title>
<polygon fill="white" stroke="none" points="-4,4 -4,-355.86 705.32,-355.86 705.32,4 -4,4"/>
<!-- _932826a2287c048d0900d9e6dacbffcc0c6fb6ecafe48111ff362f5e8a1d5f08 -->
<g id="node1" class="node">
<title>_932826a2287c048d0900d9e6dacbffcc0c6fb6ecafe48111ff362f5e8a1d5f08</title>
<g id="a_node1"><a xlink:title="ID &#45; http://example.org/kb/annotation&#45;b8258799&#45;b465&#45;4182&#45;904b&#45;c0aa73a35b0b">
<ellipse fill="#fff68f" stroke="#808080" cx="280.46" cy="-123.56" rx="248.9" ry="40.31"/>
<text text-anchor="middle" x="280.46" y="-134.76" font-family="Times,serif" font-size="14.00">ID &#45; kb:annotation&#45;b8258799&#45;b465&#45;4182&#45;904b&#45;c0aa73a35b0b</text>
<text text-anchor="middle" x="280.46" y="-102.26" font-family="Times,serif" font-size="14.00">Photo was taken by a Canon digital camera.</text>
</a>
</g>
</g>
<!-- _c3ac0d68bc94e8bfc579081a0d401a6fd3e688228d4bb5066854e2a966a55923 -->
<g id="node2" class="node">
<title>_c3ac0d68bc94e8bfc579081a0d401a6fd3e688228d4bb5066854e2a966a55923</title>
<g id="a_node2"><a xlink:title="ID &#45; http://example.org/kb/forensic_action&#45;306e44f8&#45;446d&#45;4cff&#45;a2fd&#45;9e54affb1fa3">
<polygon fill="#9fb1fc" stroke="#0000ff" points="615.21,-268.61 177.71,-268.61 177.71,-211.11 615.21,-211.11 615.21,-268.61"/>
<text text-anchor="middle" x="396.46" y="-251.31" font-family="Times,serif" font-size="14.00">ID &#45; kb:forensic_action&#45;306e44f8&#45;446d&#45;4cff&#45;a2fd&#45;9e54affb1fa3</text>
<text text-anchor="middle" x="396.46" y="-234.81" font-family="Times,serif" font-size="14.00">[2010&#45;01&#45;15T17:59:43.250000+00:00, 2010&#45;01&#45;15T18:59:43.250000+00:00]</text>
<text text-anchor="middle" x="396.46" y="-218.31" font-family="Times,serif" font-size="14.00">annotated</text>
</a>
</g>
</g>
<!-- _932826a2287c048d0900d9e6dacbffcc0c6fb6ecafe48111ff362f5e8a1d5f08&#45;&gt;_c3ac0d68bc94e8bfc579081a0d401a6fd3e688228d4bb5066854e2a966a55923 -->
<g id="edge1" class="edge">
<title>_932826a2287c048d0900d9e6dacbffcc0c6fb6ecafe48111ff362f5e8a1d5f08&#45;&gt;_c3ac0d68bc94e8bfc579081a0d401a6fd3e688228d4bb5066854e2a966a55923</title>
<path fill="none" stroke="darkgreen" d="M320.06,-163.57C332.98,-176.31 347.26,-190.38 359.95,-202.88"/>
<polygon fill="darkgreen" stroke="darkgreen" points="357.37,-205.25 366.94,-209.77 362.28,-200.26 357.37,-205.25"/>
<text text-anchor="middle" x="383.73" y="-183.61" font-family="Times,serif" font-size="10.00" fill="darkgreen">wasGeneratedBy</text>
</g>
<!-- _357f00248bdc728725be43338ec69113a99cec9793681d0accd1f777e4dd5fbf -->
<g id="node4" class="node">
<title>_357f00248bdc728725be43338ec69113a99cec9793681d0accd1f777e4dd5fbf</title>
<g id="a_node4"><a xlink:title="ID &#45; http://www.w3.org/ns/prov#EmptyCollection">
<polygon fill="#cdc673" stroke="#808080" points="171.34,-351.86 168.34,-355.86 147.34,-355.86 144.34,-351.86 7.59,-351.86 7.59,-315.86 171.34,-315.86 171.34,-351.86"/>
<text text-anchor="middle" x="89.46" y="-328.81" font-family="Times,serif" font-size="14.00">ID &#45; prov:EmptyCollection</text>
</a>
</g>
</g>
<!-- _932826a2287c048d0900d9e6dacbffcc0c6fb6ecafe48111ff362f5e8a1d5f08&#45;&gt;_357f00248bdc728725be43338ec69113a99cec9793681d0accd1f777e4dd5fbf -->
<g id="edge2" class="edge">
<title>_932826a2287c048d0900d9e6dacbffcc0c6fb6ecafe48111ff362f5e8a1d5f08&#45;&gt;_357f00248bdc728725be43338ec69113a99cec9793681d0accd1f777e4dd5fbf</title>
<path fill="none" stroke="black" d="M161.41,-159.29C137.03,-171.81 114.13,-188.63 98.71,-211.11 80,-238.4 80.67,-277.67 84.04,-304.17"/>
<polygon fill="black" stroke="black" points="80.55,-304.49 85.5,-313.86 87.47,-303.45 80.55,-304.49"/>
<text text-anchor="middle" x="133.59" y="-235.99" font-family="Times,serif" font-size="10.00">wasDerivedFrom</text>
</g>
<!-- _9df200b9a6acadfcc5d1838496aee74a73f304c13e7a348fd10d1b2919493896 -->
<g id="node6" class="node">
<title>_9df200b9a6acadfcc5d1838496aee74a73f304c13e7a348fd10d1b2919493896</title>
<g id="a_node6"><a xlink:title="Generation of http://example.org/kb/annotation&#45;b8258799&#45;b465&#45;4182&#45;904b&#45;c0aa73a35b0b">
<ellipse fill="lightgray" stroke="dimgray" cx="635.46" cy="-239.86" rx="1.8" ry="1.8"/>
</a>
</g>
</g>
<!-- _932826a2287c048d0900d9e6dacbffcc0c6fb6ecafe48111ff362f5e8a1d5f08&#45;&gt;_9df200b9a6acadfcc5d1838496aee74a73f304c13e7a348fd10d1b2919493896 -->
<g id="edge8" class="edge">
<title>_932826a2287c048d0900d9e6dacbffcc0c6fb6ecafe48111ff362f5e8a1d5f08&#45;&gt;_9df200b9a6acadfcc5d1838496aee74a73f304c13e7a348fd10d1b2919493896</title>
<path fill="none" stroke="dimgray" stroke-dasharray="1,5" d="M452.95,-152.87C524.78,-167.67 597.67,-187.61 624.46,-211.11 630.91,-216.76 633.62,-226.69 634.73,-233.01"/>
<polygon fill="dimgray" stroke="dimgray" points="640.18,-235.9 630.27,-237.27 630,-235.29 639.9,-233.92 640.18,-235.9"/>
<polyline fill="none" stroke="dimgray" points="635.36,-237.58 634.67,-232.63"/>
</g>
<!-- _c3ac0d68bc94e8bfc579081a0d401a6fd3e688228d4bb5066854e2a966a55923&#45;&gt;_357f00248bdc728725be43338ec69113a99cec9793681d0accd1f777e4dd5fbf -->
<g id="edge3" class="edge">
<title>_c3ac0d68bc94e8bfc579081a0d401a6fd3e688228d4bb5066854e2a966a55923&#45;&gt;_357f00248bdc728725be43338ec69113a99cec9793681d0accd1f777e4dd5fbf</title>
<path fill="none" stroke="#8b0000" d="M302.27,-269.09C255.9,-282.99 200.99,-299.44 158.56,-312.15"/>
<polygon fill="#8b0000" stroke="#8b0000" points="157.81,-308.73 149.23,-314.95 159.82,-315.43 157.81,-308.73"/>
<text text-anchor="middle" x="252.34" y="-288.36" font-family="Times,serif" font-size="10.00" fill="red">used</text>
</g>
<!-- _df4f7732f717c26c1499efb644f2346cde441cb8c8c35d1e5e1dc69cbce4c1a7 -->
<g id="node8" class="node">
<title>_df4f7732f717c26c1499efb644f2346cde441cb8c8c35d1e5e1dc69cbce4c1a7</title>
<g id="a_node8"><a xlink:title="Start of http://example.org/kb/forensic_action&#45;306e44f8&#45;446d&#45;4cff&#45;a2fd&#45;9e54affb1fa3">
<ellipse fill="lightgray" stroke="dimgray" cx="651.46" cy="-333.86" rx="1.8" ry="1.8"/>
</a>
</g>
</g>
<!-- _c3ac0d68bc94e8bfc579081a0d401a6fd3e688228d4bb5066854e2a966a55923&#45;&gt;_df4f7732f717c26c1499efb644f2346cde441cb8c8c35d1e5e1dc69cbce4c1a7 -->
<g id="edge14" class="edge">
<title>_c3ac0d68bc94e8bfc579081a0d401a6fd3e688228d4bb5066854e2a966a55923&#45;&gt;_df4f7732f717c26c1499efb644f2346cde441cb8c8c35d1e5e1dc69cbce4c1a7</title>
<path fill="none" stroke="dimgray" stroke-dasharray="1,5" d="M474.71,-269.09C538.68,-292.17 622.2,-322.3 645.31,-330.64"/>
<polygon fill="dimgray" stroke="dimgray" points="650.76,-327.29 647.36,-336.7 645.48,-336.02 648.87,-326.61 650.76,-327.29"/>
<polyline fill="none" stroke="dimgray" points="650,-332.33 645.3,-330.63"/>
</g>
<!-- _04caa700f1a6435ae095937068493d8bfad070989a6c527781d80bfa9343ab46 -->
<g id="node3" class="node">
<title>_04caa700f1a6435ae095937068493d8bfad070989a6c527781d80bfa9343ab46</title>
<g id="a_node3"><a xlink:title="ID &#45; http://example.org/kb/provenance&#45;record&#45;855f91a2&#45;cc07&#45;4d8e&#45;bb93&#45;d2b6db7672db">
<polygon fill="#cdc673" stroke="#808080" points="690.46,-36 687.46,-40 666.46,-40 663.46,-36 296.46,-36 296.46,0 690.46,0 690.46,-36"/>
<text text-anchor="middle" x="493.46" y="-12.95" font-family="Times,serif" font-size="14.00">ID &#45; kb:provenance&#45;record&#45;855f91a2&#45;cc07&#45;4d8e&#45;bb93&#45;d2b6db7672db</text>
</a>
</g>
</g>
<!-- _04caa700f1a6435ae095937068493d8bfad070989a6c527781d80bfa9343ab46&#45;&gt;_932826a2287c048d0900d9e6dacbffcc0c6fb6ecafe48111ff362f5e8a1d5f08 -->
<g id="edge4" class="edge">
<title>_04caa700f1a6435ae095937068493d8bfad070989a6c527781d80bfa9343ab46&#45;&gt;_932826a2287c048d0900d9e6dacbffcc0c6fb6ecafe48111ff362f5e8a1d5f08</title>
<path fill="none" stroke="black" d="M457.81,-36.33C433.23,-48.28 399.44,-64.71 367.94,-80.03"/>
<polygon fill="black" stroke="black" points="366.64,-76.77 359.17,-84.29 369.7,-83.06 366.64,-76.77"/>
<text text-anchor="middle" x="442.86" y="-55.75" font-family="Times,serif" font-size="10.00">hadMember</text>
</g>
<!-- _04caa700f1a6435ae095937068493d8bfad070989a6c527781d80bfa9343ab46&#45;&gt;_c3ac0d68bc94e8bfc579081a0d401a6fd3e688228d4bb5066854e2a966a55923 -->
<g id="edge5" class="edge">
<title>_04caa700f1a6435ae095937068493d8bfad070989a6c527781d80bfa9343ab46&#45;&gt;_c3ac0d68bc94e8bfc579081a0d401a6fd3e688228d4bb5066854e2a966a55923</title>
<path fill="none" stroke="darkgreen" d="M510.19,-36.47C520.54,-48.56 532.89,-65.59 538.46,-83.25 549.24,-117.42 556.96,-133.18 538.46,-163.86 528.02,-181.19 512.09,-194.72 494.62,-205.21"/>
<polygon fill="darkgreen" stroke="darkgreen" points="493.11,-202.04 486.1,-209.99 496.53,-208.15 493.11,-202.04"/>
<text text-anchor="middle" x="584.5" y="-119.68" font-family="Times,serif" font-size="10.00" fill="darkgreen">wasGeneratedBy</text>
</g>
<!-- _04caa700f1a6435ae095937068493d8bfad070989a6c527781d80bfa9343ab46&#45;&gt;_357f00248bdc728725be43338ec69113a99cec9793681d0accd1f777e4dd5fbf -->
<g id="edge6" class="edge">
<title>_04caa700f1a6435ae095937068493d8bfad070989a6c527781d80bfa9343ab46&#45;&gt;_357f00248bdc728725be43338ec69113a99cec9793681d0accd1f777e4dd5fbf</title>
<path fill="none" stroke="black" d="M296.13,-33.82C175.61,-44.93 41.12,-61.88 22.46,-83.25 -34.38,-148.37 32.28,-256.85 68.75,-306.54"/>
<polygon fill="black" stroke="black" points="65.88,-308.55 74.69,-314.45 71.48,-304.35 65.88,-308.55"/>
<text text-anchor="middle" x="42.33" y="-183.61" font-family="Times,serif" font-size="10.00">wasDerivedFrom</text>
</g>
<!-- _3e79c086c5a73d48794f201821f3b0508cf92e737416812c471811d5a99f5725 -->
<g id="node7" class="node">
<title>_3e79c086c5a73d48794f201821f3b0508cf92e737416812c471811d5a99f5725</title>
<g id="a_node7"><a xlink:title="Generation of http://example.org/kb/provenance&#45;record&#45;855f91a2&#45;cc07&#45;4d8e&#45;bb93&#45;d2b6db7672db">
<ellipse fill="lightgray" stroke="dimgray" cx="695.46" cy="-239.86" rx="1.8" ry="1.8"/>
</a>
</g>
</g>
<!-- _04caa700f1a6435ae095937068493d8bfad070989a6c527781d80bfa9343ab46&#45;&gt;_3e79c086c5a73d48794f201821f3b0508cf92e737416812c471811d5a99f5725 -->
<g id="edge10" class="edge">
<title>_04caa700f1a6435ae095937068493d8bfad070989a6c527781d80bfa9343ab46&#45;&gt;_3e79c086c5a73d48794f201821f3b0508cf92e737416812c471811d5a99f5725</title>
<path fill="none" stroke="dimgray" stroke-dasharray="1,5" d="M593.83,-36.35C622.43,-45.85 651.27,-60.54 671.46,-83.25 711.31,-128.06 700.49,-210.34 696.58,-232.97"/>
<polygon fill="dimgray" stroke="dimgray" points="700.8,-237.61 690.97,-235.79 691.33,-233.83 701.17,-235.65 700.8,-237.61"/>
<polyline fill="none" stroke="dimgray" points="695.71,-237.69 696.61,-232.77"/>
</g>
<!-- _4b9fa4b423a28dd8196eae1d699fc600dbdbd535941e01754b4c8fa389aa8616 -->
<g id="node5" class="node">
<title>_4b9fa4b423a28dd8196eae1d699fc600dbdbd535941e01754b4c8fa389aa8616</title>
<g id="a_node5"><a xlink:title="End of http://example.org/kb/forensic_action&#45;306e44f8&#45;446d&#45;4cff&#45;a2fd&#45;9e54affb1fa3">
<ellipse fill="lightgray" stroke="dimgray" cx="660.46" cy="-123.56" rx="1.8" ry="1.8"/>
</a>
</g>
</g>
<!-- _4b9fa4b423a28dd8196eae1d699fc600dbdbd535941e01754b4c8fa389aa8616&#45;&gt;_c3ac0d68bc94e8bfc579081a0d401a6fd3e688228d4bb5066854e2a966a55923 -->
<g id="edge15" class="edge">
<title>_4b9fa4b423a28dd8196eae1d699fc600dbdbd535941e01754b4c8fa389aa8616&#45;&gt;_c3ac0d68bc94e8bfc579081a0d401a6fd3e688228d4bb5066854e2a966a55923</title>
<path fill="none" stroke="dimgray" stroke-dasharray="1,5" d="M658.67,-130.3C655.82,-138.65 649.51,-154.18 639.46,-163.86 618.1,-184.44 607.34,-182.96 579.46,-193.11 561.77,-199.55 542.79,-205.41 524,-210.62"/>
<polygon fill="dimgray" stroke="dimgray" points="655.08,-125.11 664.61,-128.15 664,-130.06 654.47,-127.02 655.08,-125.11"/>
<polyline fill="none" stroke="dimgray" points="660.15,-125.68 658.63,-130.44"/>
</g>
<!-- _4b9fa4b423a28dd8196eae1d699fc600dbdbd535941e01754b4c8fa389aa8616&#45;&gt;_9df200b9a6acadfcc5d1838496aee74a73f304c13e7a348fd10d1b2919493896 -->
<g id="edge7" class="edge">
<title>_4b9fa4b423a28dd8196eae1d699fc600dbdbd535941e01754b4c8fa389aa8616&#45;&gt;_9df200b9a6acadfcc5d1838496aee74a73f304c13e7a348fd10d1b2919493896</title>
<path fill="none" stroke="dimgray" stroke-dasharray="1,5" d="M660.31,-125.29C658.63,-132.95 644.19,-198.95 638.13,-226.68"/>
<polygon fill="dimgray" stroke="dimgray" points="634.76,-225.7 636.04,-236.21 641.6,-227.19 634.76,-225.7"/>
</g>
<!-- _4b9fa4b423a28dd8196eae1d699fc600dbdbd535941e01754b4c8fa389aa8616&#45;&gt;_3e79c086c5a73d48794f201821f3b0508cf92e737416812c471811d5a99f5725 -->
<g id="edge9" class="edge">
<title>_4b9fa4b423a28dd8196eae1d699fc600dbdbd535941e01754b4c8fa389aa8616&#45;&gt;_3e79c086c5a73d48794f201821f3b0508cf92e737416812c471811d5a99f5725</title>
<path fill="none" stroke="dimgray" stroke-dasharray="1,5" d="M660.69,-125.29C663.05,-132.99 683.43,-199.57 691.85,-227.06"/>
<polygon fill="dimgray" stroke="dimgray" points="688.39,-227.71 694.66,-236.24 695.08,-225.66 688.39,-227.71"/>
</g>
<!-- _4b9fa4b423a28dd8196eae1d699fc600dbdbd535941e01754b4c8fa389aa8616&#45;&gt;_df4f7732f717c26c1499efb644f2346cde441cb8c8c35d1e5e1dc69cbce4c1a7 -->
<g id="edge11" class="edge">
<title>_4b9fa4b423a28dd8196eae1d699fc600dbdbd535941e01754b4c8fa389aa8616&#45;&gt;_df4f7732f717c26c1499efb644f2346cde441cb8c8c35d1e5e1dc69cbce4c1a7</title>
<path fill="none" stroke="dimgray" stroke-dasharray="1,5" d="M660.42,-125.48C659.88,-138.18 653.85,-277.54 652,-320.4"/>
<polygon fill="dimgray" stroke="dimgray" points="648.52,-319.98 651.58,-330.12 655.51,-320.28 648.52,-319.98"/>
</g>
<!-- _9df200b9a6acadfcc5d1838496aee74a73f304c13e7a348fd10d1b2919493896&#45;&gt;_df4f7732f717c26c1499efb644f2346cde441cb8c8c35d1e5e1dc69cbce4c1a7 -->
<g id="edge12" class="edge">
<title>_9df200b9a6acadfcc5d1838496aee74a73f304c13e7a348fd10d1b2919493896&#45;&gt;_df4f7732f717c26c1499efb644f2346cde441cb8c8c35d1e5e1dc69cbce4c1a7</title>
<path fill="none" stroke="dimgray" stroke-dasharray="1,5" d="M635.64,-241.89C636.97,-249.53 645.32,-297.53 649.33,-320.56"/>
<polygon fill="dimgray" stroke="dimgray" points="645.84,-320.97 651.01,-330.22 652.74,-319.77 645.84,-320.97"/>
</g>
<!-- _3e79c086c5a73d48794f201821f3b0508cf92e737416812c471811d5a99f5725&#45;&gt;_df4f7732f717c26c1499efb644f2346cde441cb8c8c35d1e5e1dc69cbce4c1a7 -->
<g id="edge13" class="edge">
<title>_3e79c086c5a73d48794f201821f3b0508cf92e737416812c471811d5a99f5725&#45;&gt;_df4f7732f717c26c1499efb644f2346cde441cb8c8c35d1e5e1dc69cbce4c1a7</title>
<path fill="none" stroke="dimgray" stroke-dasharray="1,5" d="M695.33,-241.71C694.47,-247.05 689.39,-276.54 678.46,-297.86 673.53,-307.49 665.85,-317.12 659.94,-323.84"/>
<polygon fill="dimgray" stroke="dimgray" points="657.74,-321.06 653.49,-330.76 662.87,-325.83 657.74,-321.06"/>
</g>
</g>
</svg>
