<?xml version="1.0" encoding="UTF-8" standalone="no"?>
<!DOCTYPE svg PUBLIC "-//W3C//DTD SVG 1.1//EN"
 "http://www.w3.org/Graphics/SVG/1.1/DTD/svg11.dtd">
<!-- Generated by graphviz version 14.1.1 (20251213.1925)
 -->
<!-- Title: PROV&#45;O render Pages: 1 -->
<svg width="991pt" height="443pt"
 viewBox="0.00 0.00 991.00 443.00" xmlns="http://www.w3.org/2000/svg" xmlns:xlink="http://www.w3.org/1999/xlink">
<g id="graph0" class="graph" transform="scale(1 1) rotate(0) translate(4 439.11)">
<title>PROV&#45;O render</title>
<polygon fill="white" stroke="none" points="-4,4 -4,-439.11 986.67,-439.11 986.67,4 -4,4"/>
<!-- _ea4b51e21131e6583c4894d8a05668a4b427ba124c6c1f28c6a60c0caf27a276 -->
<g id="node1" class="node">
<title>_ea4b51e21131e6583c4894d8a05668a4b427ba124c6c1f28c6a60c0caf27a276</title>
<g id="a_node1"><a xlink:title="ID &#45; http://example.org/kb/annotator_tool&#45;ca41faa8&#45;a59c&#45;4321&#45;b047&#45;4d916f75b1e8">
<polygon fill="#fed37f" stroke="black" points="800.44,-339.42 490.88,-351.86 181.31,-339.42 181.6,-319.3 800.15,-319.3 800.44,-339.42"/>
<text xml:space="preserve" text-anchor="middle" x="490.88" y="-328.81" font-family="Times,serif" font-size="14.00">ID &#45; kb:annotator_tool&#45;ca41faa8&#45;a59c&#45;4321&#45;b047&#45;4d916f75b1e8</text>
</a>
</g>
</g>
<!-- _fef2c7a50aa047afde2c4e41b1d4da1913d582cb18936249b94b4b848662fb84 -->
<g id="node2" class="node">
<title>_fef2c7a50aa047afde2c4e41b1d4da1913d582cb18936249b94b4b848662fb84</title>
<g id="a_node2"><a xlink:title="ID &#45; http://example.org/kb/examiner&#45;88a08acc&#45;dad2&#45;4964&#45;be3b&#45;8b70e11a4f4d">
<polygon fill="#fed37f" stroke="black" points="951.3,-422.67 663.88,-435.11 376.45,-422.67 376.72,-402.55 951.03,-402.55 951.3,-422.67"/>
<text xml:space="preserve" text-anchor="middle" x="663.88" y="-412.06" font-family="Times,serif" font-size="14.00">ID &#45; kb:examiner&#45;88a08acc&#45;dad2&#45;4964&#45;be3b&#45;8b70e11a4f4d</text>
</a>
</g>
</g>
<!-- _ea4b51e21131e6583c4894d8a05668a4b427ba124c6c1f28c6a60c0caf27a276&#45;&gt;_fef2c7a50aa047afde2c4e41b1d4da1913d582cb18936249b94b4b848662fb84 -->
<g id="edge4" class="edge">
<title>_ea4b51e21131e6583c4894d8a05668a4b427ba124c6c1f28c6a60c0caf27a276&#45;&gt;_fef2c7a50aa047afde2c4e41b1d4da1913d582cb18936249b94b4b848662fb84</title>
<path fill="none" stroke="#fed37f" d="M525.05,-350.91C553.51,-364.28 594.05,-383.32 623.99,-397.38"/>
<polygon fill="#fed37f" stroke="#fed37f" points="622.18,-400.4 632.72,-401.48 625.16,-394.06 622.18,-400.4"/>
<text xml:space="preserve" text-anchor="middle" x="623.73" y="-371.61" font-family="Times,serif" font-size="10.00">actedOnBehalfOf</text>
</g>
<!-- _04caa700f1a6435ae095937068493d8bfad070989a6c527781d80bfa9343ab46 -->
<g id="node3" class="node">
<title>_04caa700f1a6435ae095937068493d8bfad070989a6c527781d80bfa9343ab46</title>
<g id="a_node3"><a xlink:title="ID &#45; http://example.org/kb/provenance&#45;record&#45;855f91a2&#45;cc07&#45;4d8e&#45;bb93&#45;d2b6db7672db">
<polygon fill="#cdc673" stroke="#808080" points="656.88,-36 653.88,-40 632.88,-40 629.88,-36 262.88,-36 262.88,0 656.88,0 656.88,-36"/>
<text xml:space="preserve" text-anchor="middle" x="459.88" y="-12.95" font-family="Times,serif" font-size="14.00">ID &#45; kb:provenance&#45;record&#45;855f91a2&#45;cc07&#45;4d8e&#45;bb93&#45;d2b6db7672db</text>
</a>
</g>
</g>
<!-- _04caa700f1a6435ae095937068493d8bfad070989a6c527781d80bfa9343ab46&#45;&gt;_ea4b51e21131e6583c4894d8a05668a4b427ba124c6c1f28c6a60c0caf27a276 -->
<g id="edge9" class="edge">
<title>_04caa700f1a6435ae095937068493d8bfad070989a6c527781d80bfa9343ab46&#45;&gt;_ea4b51e21131e6583c4894d8a05668a4b427ba124c6c1f28c6a60c0caf27a276</title>
<path fill="none" stroke="#fed37f" d="M328.99,-36.44C273.82,-46.72 218.5,-61.97 201.88,-83.25 191.67,-96.31 199.3,-260.71 205.88,-268.61 225.03,-291.65 287.22,-307.11 348.63,-317.08"/>
<polygon fill="#fed37f" stroke="#fed37f" points="347.76,-320.48 358.18,-318.58 348.85,-313.57 347.76,-320.48"/>
<text xml:space="preserve" text-anchor="middle" x="232.62" y="-183.61" font-family="Times,serif" font-size="10.00">wasAttributedTo</text>
</g>
<!-- _357f00248bdc728725be43338ec69113a99cec9793681d0accd1f777e4dd5fbf -->
<g id="node4" class="node">
<title>_357f00248bdc728725be43338ec69113a99cec9793681d0accd1f777e4dd5fbf</title>
<g id="a_node4"><a xlink:title="ID &#45; http://www.w3.org/ns/prov#EmptyCollection">
<polygon fill="#cdc673" stroke="#808080" points="163.75,-351.86 160.75,-355.86 139.75,-355.86 136.75,-351.86 0,-351.86 0,-315.86 163.75,-315.86 163.75,-351.86"/>
<text xml:space="preserve" text-anchor="middle" x="81.88" y="-328.81" font-family="Times,serif" font-size="14.00">ID &#45; prov:EmptyCollection</text>
</a>
</g>
</g>
<!-- _04caa700f1a6435ae095937068493d8bfad070989a6c527781d80bfa9343ab46&#45;&gt;_357f00248bdc728725be43338ec69113a99cec9793681d0accd1f777e4dd5fbf -->
<g id="edge11" class="edge">
<title>_04caa700f1a6435ae095937068493d8bfad070989a6c527781d80bfa9343ab46&#45;&gt;_357f00248bdc728725be43338ec69113a99cec9793681d0accd1f777e4dd5fbf</title>
<path fill="none" stroke="black" d="M296.3,-36.49C265.84,-41.37 239.12,-47.22 224.88,-54 127.23,-100.47 95.01,-242.87 85.48,-304.23"/>
<polygon fill="black" stroke="black" points="82.05,-303.47 84.08,-313.87 88.98,-304.48 82.05,-303.47"/>
<text xml:space="preserve" text-anchor="middle" x="152.66" y="-183.61" font-family="Times,serif" font-size="10.00">wasDerivedFrom</text>
</g>
<!-- _932826a2287c048d0900d9e6dacbffcc0c6fb6ecafe48111ff362f5e8a1d5f08 -->
<g id="node5" class="node">
<title>_932826a2287c048d0900d9e6dacbffcc0c6fb6ecafe48111ff362f5e8a1d5f08</title>
<g id="a_node5"><a xlink:title="ID &#45; http://example.org/kb/annotation&#45;b8258799&#45;b465&#45;4182&#45;904b&#45;c0aa73a35b0b">
<ellipse fill="#fff68f" stroke="#808080" cx="459.88" cy="-123.56" rx="248.9" ry="40.31"/>
<text xml:space="preserve" text-anchor="middle" x="459.88" y="-134.76" font-family="Times,serif" font-size="14.00">ID &#45; kb:annotation&#45;b8258799&#45;b465&#45;4182&#45;904b&#45;c0aa73a35b0b</text>
<text xml:space="preserve" text-anchor="middle" x="459.88" y="-102.26" font-family="Times,serif" font-size="14.00">Photo was taken by a Canon digital camera.</text>
</a>
</g>
</g>
<!-- _04caa700f1a6435ae095937068493d8bfad070989a6c527781d80bfa9343ab46&#45;&gt;_932826a2287c048d0900d9e6dacbffcc0c6fb6ecafe48111ff362f5e8a1d5f08 -->
<g id="edge8" class="edge">
<title>_04caa700f1a6435ae095937068493d8bfad070989a6c527781d80bfa9343ab46&#45;&gt;_932826a2287c048d0900d9e6dacbffcc0c6fb6ecafe48111ff362f5e8a1d5f08</title>
<path fill="none" stroke="black" d="M459.88,-36.1C459.88,-45.96 459.88,-58.93 459.88,-71.82"/>
<polygon fill="black" stroke="black" points="456.38,-71.53 459.88,-81.53 463.38,-71.53 456.38,-71.53"/>
<text xml:space="preserve" text-anchor="middle" x="484.25" y="-55.75" font-family="Times,serif" font-size="10.00">hadMember</text>
</g>
<!-- _c3ac0d68bc94e8bfc579081a0d401a6fd3e688228d4bb5066854e2a966a55923 -->
<g id="node6" class="node">
<title>_c3ac0d68bc94e8bfc579081a0d401a6fd3e688228d4bb5066854e2a966a55923</title>
<g id="a_node6"><a xlink:title="ID &#45; http://example.org/kb/forensic_action&#45;306e44f8&#45;446d&#45;4cff&#45;a2fd&#45;9e54affb1fa3">
<polygon fill="#9fb1fc" stroke="#0000ff" points="875.62,-268.61 438.12,-268.61 438.12,-211.11 875.62,-211.11 875.62,-268.61"/>
<text xml:space="preserve" text-anchor="middle" x="656.88" y="-251.31" font-family="Times,serif" font-size="14.00">ID &#45; kb:forensic_action&#45;306e44f8&#45;446d&#45;4cff&#45;a2fd&#45;9e54affb1fa3</text>
<text xml:space="preserve" text-anchor="middle" x="656.88" y="-234.81" font-family="Times,serif" font-size="14.00">[2010&#45;01&#45;15T17:59:43.250000+00:00, 2010&#45;01&#45;15T18:59:43.250000+00:00]</text>
<text xml:space="preserve" text-anchor="middle" x="656.88" y="-218.31" font-family="Times,serif" font-size="14.00">annotated</text>
</a>
</g>
</g>
<!-- _04caa700f1a6435ae095937068493d8bfad070989a6c527781d80bfa9343ab46&#45;&gt;_c3ac0d68bc94e8bfc579081a0d401a6fd3e688228d4bb5066854e2a966a55923 -->
<g id="edge10" class="edge">
<title>_04caa700f1a6435ae095937068493d8bfad070989a6c527781d80bfa9343ab46&#45;&gt;_c3ac0d68bc94e8bfc579081a0d401a6fd3e688228d4bb5066854e2a966a55923</title>
<path fill="none" stroke="darkgreen" d="M590.76,-36.44C645.93,-46.72 701.25,-61.97 717.88,-83.25 739.94,-111.48 729.87,-130.1 717.88,-163.86 712.95,-177.71 704.26,-190.86 694.95,-202.18"/>
<polygon fill="darkgreen" stroke="darkgreen" points="692.33,-199.85 688.41,-209.69 697.61,-204.45 692.33,-199.85"/>
<text xml:space="preserve" text-anchor="middle" x="765.79" y="-119.68" font-family="Times,serif" font-size="10.00" fill="darkgreen">wasGeneratedBy</text>
</g>
<!-- _3e79c086c5a73d48794f201821f3b0508cf92e737416812c471811d5a99f5725 -->
<g id="node9" class="node">
<title>_3e79c086c5a73d48794f201821f3b0508cf92e737416812c471811d5a99f5725</title>
<g id="a_node9"><a xlink:title="ID &#45; http://example.org/kb/Generation&#45;abb403d8&#45;3fde&#45;5f17&#45;a74d&#45;d721eb0b3423&#10;&#10;Generation of http://example.org/kb/provenance&#45;record&#45;855f91a2&#45;cc07&#45;4d8e&#45;bb93&#45;d2b6db7672db">
<ellipse fill="lightgray" stroke="dimgray" cx="980.88" cy="-239.86" rx="1.8" ry="1.8"/>
</a>
</g>
</g>
<!-- _04caa700f1a6435ae095937068493d8bfad070989a6c527781d80bfa9343ab46&#45;&gt;_3e79c086c5a73d48794f201821f3b0508cf92e737416812c471811d5a99f5725 -->
<g id="edge15" class="edge">
<title>_04caa700f1a6435ae095937068493d8bfad070989a6c527781d80bfa9343ab46&#45;&gt;_3e79c086c5a73d48794f201821f3b0508cf92e737416812c471811d5a99f5725</title>
<path fill="none" stroke="dimgray" stroke-dasharray="1,5" d="M657.13,-24.8C769.7,-32 896.77,-47.97 939.88,-83.25 987.5,-122.23 983.52,-209.37 981.48,-232.9"/>
<polygon fill="dimgray" stroke="dimgray" points="986.1,-237.1 976.14,-236.13 976.34,-234.14 986.29,-235.11 986.1,-237.1"/>
<polyline fill="none" stroke="dimgray" points="981.02,-237.61 981.51,-232.63"/>
</g>
<!-- _932826a2287c048d0900d9e6dacbffcc0c6fb6ecafe48111ff362f5e8a1d5f08&#45;&gt;_ea4b51e21131e6583c4894d8a05668a4b427ba124c6c1f28c6a60c0caf27a276 -->
<g id="edge1" class="edge">
<title>_932826a2287c048d0900d9e6dacbffcc0c6fb6ecafe48111ff362f5e8a1d5f08&#45;&gt;_ea4b51e21131e6583c4894d8a05668a4b427ba124c6c1f28c6a60c0caf27a276</title>
<path fill="none" stroke="#fed37f" d="M398.84,-163.05C383.21,-176.22 368.42,-192.42 359.88,-211.11 349.25,-234.35 357.71,-243.15 359.88,-268.61 360.99,-281.75 356.04,-288.07 364.88,-297.86 370.65,-304.26 377.49,-309.53 384.94,-313.86"/>
<polygon fill="#fed37f" stroke="#fed37f" points="382.84,-316.72 393.33,-318.18 386.04,-310.49 382.84,-316.72"/>
<text xml:space="preserve" text-anchor="middle" x="394.38" y="-235.99" font-family="Times,serif" font-size="10.00">wasAttributedTo</text>
</g>
<!-- _932826a2287c048d0900d9e6dacbffcc0c6fb6ecafe48111ff362f5e8a1d5f08&#45;&gt;_357f00248bdc728725be43338ec69113a99cec9793681d0accd1f777e4dd5fbf -->
<g id="edge3" class="edge">
<title>_932826a2287c048d0900d9e6dacbffcc0c6fb6ecafe48111ff362f5e8a1d5f08&#45;&gt;_357f00248bdc728725be43338ec69113a99cec9793681d0accd1f777e4dd5fbf</title>
<path fill="none" stroke="black" d="M378.5,-161.9C347.66,-176.59 312.45,-194.01 281.12,-211.11 222.74,-242.99 157.34,-284.02 117.9,-309.38"/>
<polygon fill="black" stroke="black" points="116.23,-306.29 109.73,-314.65 120.03,-312.17 116.23,-306.29"/>
<text xml:space="preserve" text-anchor="middle" x="316" y="-235.99" font-family="Times,serif" font-size="10.00">wasDerivedFrom</text>
</g>
<!-- _932826a2287c048d0900d9e6dacbffcc0c6fb6ecafe48111ff362f5e8a1d5f08&#45;&gt;_c3ac0d68bc94e8bfc579081a0d401a6fd3e688228d4bb5066854e2a966a55923 -->
<g id="edge2" class="edge">
<title>_932826a2287c048d0900d9e6dacbffcc0c6fb6ecafe48111ff362f5e8a1d5f08&#45;&gt;_c3ac0d68bc94e8bfc579081a0d401a6fd3e688228d4bb5066854e2a966a55923</title>
<path fill="none" stroke="darkgreen" d="M525.75,-162.78C549.23,-176.4 575.5,-191.64 598.32,-204.89"/>
<polygon fill="darkgreen" stroke="darkgreen" points="596.5,-207.87 606.9,-209.86 600.01,-201.82 596.5,-207.87"/>
<text xml:space="preserve" text-anchor="middle" x="610.89" y="-183.61" font-family="Times,serif" font-size="10.00" fill="darkgreen">wasGeneratedBy</text>
</g>
<!-- _9df200b9a6acadfcc5d1838496aee74a73f304c13e7a348fd10d1b2919493896 -->
<g id="node8" class="node">
<title>_9df200b9a6acadfcc5d1838496aee74a73f304c13e7a348fd10d1b2919493896</title>
<g id="a_node8"><a xlink:title="ID &#45; http://example.org/kb/Generation&#45;a19bfc2d&#45;0682&#45;5023&#45;8046&#45;4a4b0fe6c3f3&#10;&#10;Generation of http://example.org/kb/annotation&#45;b8258799&#45;b465&#45;4182&#45;904b&#45;c0aa73a35b0b">
<ellipse fill="lightgray" stroke="dimgray" cx="933.88" cy="-239.86" rx="1.8" ry="1.8"/>
</a>
</g>
</g>
<!-- _932826a2287c048d0900d9e6dacbffcc0c6fb6ecafe48111ff362f5e8a1d5f08&#45;&gt;_9df200b9a6acadfcc5d1838496aee74a73f304c13e7a348fd10d1b2919493896 -->
<g id="edge13" class="edge">
<title>_932826a2287c048d0900d9e6dacbffcc0c6fb6ecafe48111ff362f5e8a1d5f08&#45;&gt;_9df200b9a6acadfcc5d1838496aee74a73f304c13e7a348fd10d1b2919493896</title>
<path fill="none" stroke="dimgray" stroke-dasharray="1,5" d="M649.36,-150.02C724.21,-163.44 810.03,-183.1 884.88,-211.11 902.18,-217.59 920.64,-229.63 929.12,-235.48"/>
<polygon fill="dimgray" stroke="dimgray" points="934.79,-233.36 929.03,-241.54 927.4,-240.39 933.16,-232.21 934.79,-233.36"/>
<polyline fill="none" stroke="dimgray" points="932.73,-238.03 928.64,-235.15"/>
</g>
<!-- _c3ac0d68bc94e8bfc579081a0d401a6fd3e688228d4bb5066854e2a966a55923&#45;&gt;_ea4b51e21131e6583c4894d8a05668a4b427ba124c6c1f28c6a60c0caf27a276 -->
<g id="edge5" class="edge">
<title>_c3ac0d68bc94e8bfc579081a0d401a6fd3e688228d4bb5066854e2a966a55923&#45;&gt;_ea4b51e21131e6583c4894d8a05668a4b427ba124c6c1f28c6a60c0caf27a276</title>
<path fill="none" stroke="#fed37f" d="M606.17,-268.96C580.09,-283.42 548.97,-300.66 525.64,-313.59"/>
<polygon fill="#fed37f" stroke="#fed37f" points="524.21,-310.39 517.16,-318.29 527.6,-316.51 524.21,-310.39"/>
<text xml:space="preserve" text-anchor="middle" x="614" y="-288.36" font-family="Times,serif" font-size="10.00">wasAssociatedWith</text>
</g>
<!-- _c3ac0d68bc94e8bfc579081a0d401a6fd3e688228d4bb5066854e2a966a55923&#45;&gt;_fef2c7a50aa047afde2c4e41b1d4da1913d582cb18936249b94b4b848662fb84 -->
<g id="edge6" class="edge">
<title>_c3ac0d68bc94e8bfc579081a0d401a6fd3e688228d4bb5066854e2a966a55923&#45;&gt;_fef2c7a50aa047afde2c4e41b1d4da1913d582cb18936249b94b4b848662fb84</title>
<path fill="none" stroke="#fed37f" d="M754.65,-268.98C776.48,-280 796.96,-295.15 809.88,-315.86 834.2,-354.87 780.3,-382.51 731.25,-398.76"/>
<polygon fill="#fed37f" stroke="#fed37f" points="730.49,-395.33 722.01,-401.69 732.6,-402 730.49,-395.33"/>
<text xml:space="preserve" text-anchor="middle" x="856.03" y="-329.99" font-family="Times,serif" font-size="10.00">wasAssociatedWith</text>
</g>
<!-- _c3ac0d68bc94e8bfc579081a0d401a6fd3e688228d4bb5066854e2a966a55923&#45;&gt;_357f00248bdc728725be43338ec69113a99cec9793681d0accd1f777e4dd5fbf -->
<g id="edge7" class="edge">
<title>_c3ac0d68bc94e8bfc579081a0d401a6fd3e688228d4bb5066854e2a966a55923&#45;&gt;_357f00248bdc728725be43338ec69113a99cec9793681d0accd1f777e4dd5fbf</title>
<path fill="none" stroke="#8b0000" d="M464.57,-269.09C378.64,-282.08 275.86,-298.12 175.09,-315.33"/>
<polygon fill="#8b0000" stroke="#8b0000" points="174.53,-311.88 165.26,-317.02 175.71,-318.78 174.53,-311.88"/>
<text xml:space="preserve" text-anchor="middle" x="354.38" y="-288.36" font-family="Times,serif" font-size="10.00" fill="red">used</text>
</g>
<!-- _df4f7732f717c26c1499efb644f2346cde441cb8c8c35d1e5e1dc69cbce4c1a7 -->
<g id="node10" class="node">
<title>_df4f7732f717c26c1499efb644f2346cde441cb8c8c35d1e5e1dc69cbce4c1a7</title>
<g id="a_node10"><a xlink:title="ID &#45; http://example.org/kb/Start&#45;1f683eec&#45;81dd&#45;5dad&#45;a2fb&#45;0937aa55b9d4&#10;&#10;2010&#45;01&#45;15T17:59:43.250000+00:00&#10;&#10;Start of http://example.org/kb/forensic_action&#45;306e44f8&#45;446d&#45;4cff&#45;a2fd&#45;9e54affb1fa3">
<ellipse fill="lightgray" stroke="dimgray" cx="936.88" cy="-333.86" rx="1.8" ry="1.8"/>
</a>
</g>
</g>
<!-- _c3ac0d68bc94e8bfc579081a0d401a6fd3e688228d4bb5066854e2a966a55923&#45;&gt;_df4f7732f717c26c1499efb644f2346cde441cb8c8c35d1e5e1dc69cbce4c1a7 -->
<g id="edge20" class="edge">
<title>_c3ac0d68bc94e8bfc579081a0d401a6fd3e688228d4bb5066854e2a966a55923&#45;&gt;_df4f7732f717c26c1499efb644f2346cde441cb8c8c35d1e5e1dc69cbce4c1a7</title>
<path fill="none" stroke="dimgray" stroke-dasharray="1,5" d="M789.43,-269.05C810.15,-274.34 831.21,-280.23 850.88,-286.61 882.95,-297.01 893.16,-296.66 920.88,-315.86 925.86,-319.31 930.48,-324.53 933.46,-328.27"/>
<polygon fill="dimgray" stroke="dimgray" points="939.51,-327.98 931.54,-334.02 930.33,-332.43 938.3,-326.39 939.51,-327.98"/>
<polyline fill="none" stroke="dimgray" points="936.13,-331.8 933.11,-327.81"/>
</g>
<!-- _4b9fa4b423a28dd8196eae1d699fc600dbdbd535941e01754b4c8fa389aa8616 -->
<g id="node7" class="node">
<title>_4b9fa4b423a28dd8196eae1d699fc600dbdbd535941e01754b4c8fa389aa8616</title>
<g id="a_node7"><a xlink:title="ID &#45; http://example.org/kb/End&#45;64e0bccb&#45;5337&#45;5c04&#45;8000&#45;e58afcb6af1d&#10;&#10;2010&#45;01&#45;15T18:59:43.250000+00:00&#10;&#10;End of http://example.org/kb/forensic_action&#45;306e44f8&#45;446d&#45;4cff&#45;a2fd&#45;9e54affb1fa3">
<ellipse fill="lightgray" stroke="dimgray" cx="928.88" cy="-123.56" rx="1.8" ry="1.8"/>
</a>
</g>
</g>
<!-- _4b9fa4b423a28dd8196eae1d699fc600dbdbd535941e01754b4c8fa389aa8616&#45;&gt;_c3ac0d68bc94e8bfc579081a0d401a6fd3e688228d4bb5066854e2a966a55923 -->
<g id="edge22" class="edge">
<title>_4b9fa4b423a28dd8196eae1d699fc600dbdbd535941e01754b4c8fa389aa8616&#45;&gt;_c3ac0d68bc94e8bfc579081a0d401a6fd3e688228d4bb5066854e2a966a55923</title>
<path fill="none" stroke="dimgray" stroke-dasharray="1,5" d="M922.99,-127.03C897.4,-137.78 793.93,-181.26 723.81,-210.73"/>
<polygon fill="dimgray" stroke="dimgray" points="924.55,-120.95 928.43,-130.17 926.58,-130.94 922.71,-121.72 924.55,-120.95"/>
<polyline fill="none" stroke="dimgray" points="927.41,-125.17 922.8,-127.11"/>
</g>
<!-- _4b9fa4b423a28dd8196eae1d699fc600dbdbd535941e01754b4c8fa389aa8616&#45;&gt;_9df200b9a6acadfcc5d1838496aee74a73f304c13e7a348fd10d1b2919493896 -->
<g id="edge12" class="edge">
<title>_4b9fa4b423a28dd8196eae1d699fc600dbdbd535941e01754b4c8fa389aa8616&#45;&gt;_9df200b9a6acadfcc5d1838496aee74a73f304c13e7a348fd10d1b2919493896</title>
<path fill="none" stroke="dimgray" stroke-dasharray="1,5" d="M928.93,-125.84C929.36,-135.63 932.13,-198.92 933.32,-226.28"/>
<polygon fill="dimgray" stroke="dimgray" points="929.83,-226.38 933.76,-236.22 936.82,-226.07 929.83,-226.38"/>
</g>
<!-- _4b9fa4b423a28dd8196eae1d699fc600dbdbd535941e01754b4c8fa389aa8616&#45;&gt;_3e79c086c5a73d48794f201821f3b0508cf92e737416812c471811d5a99f5725 -->
<g id="edge14" class="edge">
<title>_4b9fa4b423a28dd8196eae1d699fc600dbdbd535941e01754b4c8fa389aa8616&#45;&gt;_3e79c086c5a73d48794f201821f3b0508cf92e737416812c471811d5a99f5725</title>
<path fill="none" stroke="dimgray" stroke-dasharray="1,5" d="M929.31,-125.35C932.05,-130.38 947.19,-158.3 957.88,-181.86 964.91,-197.36 972.11,-215.67 976.53,-227.28"/>
<polygon fill="dimgray" stroke="dimgray" points="973.25,-228.5 980.04,-236.63 979.81,-226.04 973.25,-228.5"/>
</g>
<!-- _4b9fa4b423a28dd8196eae1d699fc600dbdbd535941e01754b4c8fa389aa8616&#45;&gt;_df4f7732f717c26c1499efb644f2346cde441cb8c8c35d1e5e1dc69cbce4c1a7 -->
<g id="edge16" class="edge">
<title>_4b9fa4b423a28dd8196eae1d699fc600dbdbd535941e01754b4c8fa389aa8616&#45;&gt;_df4f7732f717c26c1499efb644f2346cde441cb8c8c35d1e5e1dc69cbce4c1a7</title>
<path fill="none" stroke="dimgray" stroke-dasharray="1,5" d="M928.7,-125.71C927.16,-135.77 916.5,-209.38 922.88,-268.61 924.87,-287.13 930.01,-308.13 933.47,-320.94"/>
<polygon fill="dimgray" stroke="dimgray" points="930.09,-321.85 936.19,-330.51 936.82,-319.93 930.09,-321.85"/>
</g>
<!-- _24d91372dc0999bcc8c6a91bce1cbb4f23f8eea91ad4c4a7d36d6107dcbbb9d2 -->
<g id="node11" class="node">
<title>_24d91372dc0999bcc8c6a91bce1cbb4f23f8eea91ad4c4a7d36d6107dcbbb9d2</title>
<g id="a_node11"><a xlink:title="ID &#45; http://example.org/kb/Usage&#45;00a4f357&#45;3e85&#45;52a1&#45;857e&#45;9cc8e3c6e124&#10;&#10;Usage of http://www.w3.org/ns/prov#EmptyCollection in http://example.org/kb/forensic_action&#45;306e44f8&#45;446d&#45;4cff&#45;a2fd&#45;9e54affb1fa3">
<ellipse fill="lightgray" stroke="dimgray" cx="955.88" cy="-239.86" rx="1.8" ry="1.8"/>
</a>
</g>
</g>
<!-- _4b9fa4b423a28dd8196eae1d699fc600dbdbd535941e01754b4c8fa389aa8616&#45;&gt;_24d91372dc0999bcc8c6a91bce1cbb4f23f8eea91ad4c4a7d36d6107dcbbb9d2 -->
<g id="edge21" class="edge">
<title>_4b9fa4b423a28dd8196eae1d699fc600dbdbd535941e01754b4c8fa389aa8616&#45;&gt;_24d91372dc0999bcc8c6a91bce1cbb4f23f8eea91ad4c4a7d36d6107dcbbb9d2</title>
<path fill="none" stroke="dimgray" stroke-dasharray="1,5" d="M929.05,-125.29C930.86,-132.95 946.45,-198.95 953,-226.68"/>
<polygon fill="dimgray" stroke="dimgray" points="949.55,-227.29 955.25,-236.22 956.36,-225.68 949.55,-227.29"/>
</g>
<!-- _9df200b9a6acadfcc5d1838496aee74a73f304c13e7a348fd10d1b2919493896&#45;&gt;_df4f7732f717c26c1499efb644f2346cde441cb8c8c35d1e5e1dc69cbce4c1a7 -->
<g id="edge17" class="edge">
<title>_9df200b9a6acadfcc5d1838496aee74a73f304c13e7a348fd10d1b2919493896&#45;&gt;_df4f7732f717c26c1499efb644f2346cde441cb8c8c35d1e5e1dc69cbce4c1a7</title>
<path fill="none" stroke="dimgray" stroke-dasharray="1,5" d="M933.91,-241.89C934.16,-249.49 935.71,-297.07 936.46,-320.23"/>
<polygon fill="dimgray" stroke="dimgray" points="932.96,-320.32 936.79,-330.2 939.96,-320.09 932.96,-320.32"/>
</g>
<!-- _3e79c086c5a73d48794f201821f3b0508cf92e737416812c471811d5a99f5725&#45;&gt;_df4f7732f717c26c1499efb644f2346cde441cb8c8c35d1e5e1dc69cbce4c1a7 -->
<g id="edge18" class="edge">
<title>_3e79c086c5a73d48794f201821f3b0508cf92e737416812c471811d5a99f5725&#45;&gt;_df4f7732f717c26c1499efb644f2346cde441cb8c8c35d1e5e1dc69cbce4c1a7</title>
<path fill="none" stroke="dimgray" stroke-dasharray="1,5" d="M980.62,-241.69C979.01,-246.92 969.9,-275.86 958.88,-297.86 954.56,-306.46 948.73,-315.65 944.16,-322.46"/>
<polygon fill="dimgray" stroke="dimgray" points="941.35,-320.37 938.5,-330.57 947.09,-324.37 941.35,-320.37"/>
</g>
<!-- _24d91372dc0999bcc8c6a91bce1cbb4f23f8eea91ad4c4a7d36d6107dcbbb9d2&#45;&gt;_df4f7732f717c26c1499efb644f2346cde441cb8c8c35d1e5e1dc69cbce4c1a7 -->
<g id="edge19" class="edge">
<title>_24d91372dc0999bcc8c6a91bce1cbb4f23f8eea91ad4c4a7d36d6107dcbbb9d2&#45;&gt;_df4f7732f717c26c1499efb644f2346cde441cb8c8c35d1e5e1dc69cbce4c1a7</title>
<path fill="none" stroke="dimgray" stroke-dasharray="1,5" d="M955.66,-241.89C954.08,-249.53 944.17,-297.53 939.41,-320.56"/>
<polygon fill="dimgray" stroke="dimgray" points="936.01,-319.73 937.42,-330.23 942.87,-321.15 936.01,-319.73"/>
</g>
</g>
</svg>
