<?xml version="1.0" encoding="UTF-8" standalone="no"?>
<!DOCTYPE svg PUBLIC "-//W3C//DTD SVG 1.1//EN"
 "http://www.w3.org/Graphics/SVG/1.1/DTD/svg11.dtd">
<!-- Generated by graphviz version 14.0.5 (20251129.0259)
 -->
<!-- Title: PROV&#45;O render Pages: 1 -->
<svg width="707pt" height="360pt"
 viewBox="0.00 0.00 707.00 360.00" xmlns="http://www.w3.org/2000/svg" xmlns:xlink="http://www.w3.org/1999/xlink">
<g id="graph0" class="graph" transform="scale(1 1) rotate(0) translate(4 355.86)">
<title>PROV&#45;O render</title>
<polygon fill="white" stroke="none" points="-4,4 -4,-355.86 703.25,-355.86 703.25,4 -4,4"/>
<!-- _04caa700f1a6435ae095937068493d8bfad070989a6c527781d80bfa9343ab46 -->
<g id="node1" class="node">
<title>_04caa700f1a6435ae095937068493d8bfad070989a6c527781d80bfa9343ab46</title>
<g id="a_node1"><a xlink:title="ID &#45; http://example.org/kb/provenance&#45;record&#45;855f91a2&#45;cc07&#45;4d8e&#45;bb93&#45;d2b6db7672db">
<polygon fill="#cdc673" stroke="#808080" points="419.88,-36 416.88,-40 395.88,-40 392.88,-36 25.87,-36 25.87,0 419.88,0 419.88,-36"/>
<text xml:space="preserve" text-anchor="middle" x="222.88" y="-12.95" font-family="Times,serif" font-size="14.00">ID &#45; kb:provenance&#45;record&#45;855f91a2&#45;cc07&#45;4d8e&#45;bb93&#45;d2b6db7672db</text>
</a>
</g>
</g>
<!-- _357f00248bdc728725be43338ec69113a99cec9793681d0accd1f777e4dd5fbf -->
<g id="node2" class="node">
<title>_357f00248bdc728725be43338ec69113a99cec9793681d0accd1f777e4dd5fbf</title>
<g id="a_node2"><a xlink:title="ID &#45; http://www.w3.org/ns/prov#EmptyCollection">
<polygon fill="#cdc673" stroke="#808080" points="163.75,-351.86 160.75,-355.86 139.75,-355.86 136.75,-351.86 0,-351.86 0,-315.86 163.75,-315.86 163.75,-351.86"/>
<text xml:space="preserve" text-anchor="middle" x="81.88" y="-328.81" font-family="Times,serif" font-size="14.00">ID &#45; prov:EmptyCollection</text>
</a>
</g>
</g>
<!-- _04caa700f1a6435ae095937068493d8bfad070989a6c527781d80bfa9343ab46&#45;&gt;_357f00248bdc728725be43338ec69113a99cec9793681d0accd1f777e4dd5fbf -->
<g id="edge6" class="edge">
<title>_04caa700f1a6435ae095937068493d8bfad070989a6c527781d80bfa9343ab46&#45;&gt;_357f00248bdc728725be43338ec69113a99cec9793681d0accd1f777e4dd5fbf</title>
<path fill="none" stroke="black" d="M105.6,-36.34C80.78,-45.93 57.89,-60.66 43.88,-83.25 17.38,-125.95 6.31,-144.03 17.12,-193.11 26.31,-234.79 49.21,-278.82 65.16,-306.07"/>
<polygon fill="black" stroke="black" points="61.97,-307.56 70.11,-314.35 67.98,-303.97 61.97,-307.56"/>
<text xml:space="preserve" text-anchor="middle" x="52" y="-183.61" font-family="Times,serif" font-size="10.00">wasDerivedFrom</text>
</g>
<!-- _932826a2287c048d0900d9e6dacbffcc0c6fb6ecafe48111ff362f5e8a1d5f08 -->
<g id="node3" class="node">
<title>_932826a2287c048d0900d9e6dacbffcc0c6fb6ecafe48111ff362f5e8a1d5f08</title>
<g id="a_node3"><a xlink:title="ID &#45; http://example.org/kb/annotation&#45;b8258799&#45;b465&#45;4182&#45;904b&#45;c0aa73a35b0b">
<ellipse fill="#fff68f" stroke="#808080" cx="391.88" cy="-123.56" rx="248.9" ry="40.31"/>
<text xml:space="preserve" text-anchor="middle" x="391.88" y="-134.76" font-family="Times,serif" font-size="14.00">ID &#45; kb:annotation&#45;b8258799&#45;b465&#45;4182&#45;904b&#45;c0aa73a35b0b</text>
<text xml:space="preserve" text-anchor="middle" x="391.88" y="-102.26" font-family="Times,serif" font-size="14.00">Photo was taken by a Canon digital camera.</text>
</a>
</g>
</g>
<!-- _04caa700f1a6435ae095937068493d8bfad070989a6c527781d80bfa9343ab46&#45;&gt;_932826a2287c048d0900d9e6dacbffcc0c6fb6ecafe48111ff362f5e8a1d5f08 -->
<g id="edge4" class="edge">
<title>_04caa700f1a6435ae095937068493d8bfad070989a6c527781d80bfa9343ab46&#45;&gt;_932826a2287c048d0900d9e6dacbffcc0c6fb6ecafe48111ff362f5e8a1d5f08</title>
<path fill="none" stroke="black" d="M251.16,-36.33C269.91,-47.82 295.41,-63.45 319.56,-78.24"/>
<polygon fill="black" stroke="black" points="317.44,-81.05 327.8,-83.29 321.1,-75.08 317.44,-81.05"/>
<text xml:space="preserve" text-anchor="middle" x="321.63" y="-55.75" font-family="Times,serif" font-size="10.00">hadMember</text>
</g>
<!-- _c3ac0d68bc94e8bfc579081a0d401a6fd3e688228d4bb5066854e2a966a55923 -->
<g id="node4" class="node">
<title>_c3ac0d68bc94e8bfc579081a0d401a6fd3e688228d4bb5066854e2a966a55923</title>
<g id="a_node4"><a xlink:title="ID &#45; http://example.org/kb/forensic_action&#45;306e44f8&#45;446d&#45;4cff&#45;a2fd&#45;9e54affb1fa3">
<polygon fill="#9fb1fc" stroke="#0000ff" points="607.62,-268.61 170.13,-268.61 170.13,-211.11 607.62,-211.11 607.62,-268.61"/>
<text xml:space="preserve" text-anchor="middle" x="388.88" y="-251.31" font-family="Times,serif" font-size="14.00">ID &#45; kb:forensic_action&#45;306e44f8&#45;446d&#45;4cff&#45;a2fd&#45;9e54affb1fa3</text>
<text xml:space="preserve" text-anchor="middle" x="388.88" y="-234.81" font-family="Times,serif" font-size="14.00">[2010&#45;01&#45;15T17:59:43.250000+00:00, 2010&#45;01&#45;15T18:59:43.250000+00:00]</text>
<text xml:space="preserve" text-anchor="middle" x="388.88" y="-218.31" font-family="Times,serif" font-size="14.00">annotated</text>
</a>
</g>
</g>
<!-- _04caa700f1a6435ae095937068493d8bfad070989a6c527781d80bfa9343ab46&#45;&gt;_c3ac0d68bc94e8bfc579081a0d401a6fd3e688228d4bb5066854e2a966a55923 -->
<g id="edge5" class="edge">
<title>_04caa700f1a6435ae095937068493d8bfad070989a6c527781d80bfa9343ab46&#45;&gt;_c3ac0d68bc94e8bfc579081a0d401a6fd3e688228d4bb5066854e2a966a55923</title>
<path fill="none" stroke="darkgreen" d="M129.72,-36.39C104.22,-45.89 79.41,-60.57 64.12,-83.25 44.1,-112.96 41.82,-135.82 64.12,-163.86 79.08,-182.66 118.5,-197.16 164.93,-208.16"/>
<polygon fill="darkgreen" stroke="darkgreen" points="163.9,-211.51 174.43,-210.33 165.46,-204.69 163.9,-211.51"/>
<text xml:space="preserve" text-anchor="middle" x="99" y="-119.68" font-family="Times,serif" font-size="10.00" fill="darkgreen">wasGeneratedBy</text>
</g>
<!-- _3e79c086c5a73d48794f201821f3b0508cf92e737416812c471811d5a99f5725 -->
<g id="node7" class="node">
<title>_3e79c086c5a73d48794f201821f3b0508cf92e737416812c471811d5a99f5725</title>
<g id="a_node7"><a xlink:title="ID &#45; http://example.org/kb/Generation&#45;abb403d8&#45;3fde&#45;5f17&#45;a74d&#45;d721eb0b3423&#10;&#10;Generation of http://example.org/kb/provenance&#45;record&#45;855f91a2&#45;cc07&#45;4d8e&#45;bb93&#45;d2b6db7672db">
<ellipse fill="lightgray" stroke="dimgray" cx="687.88" cy="-239.86" rx="1.8" ry="1.8"/>
</a>
</g>
</g>
<!-- _04caa700f1a6435ae095937068493d8bfad070989a6c527781d80bfa9343ab46&#45;&gt;_3e79c086c5a73d48794f201821f3b0508cf92e737416812c471811d5a99f5725 -->
<g id="edge10" class="edge">
<title>_04caa700f1a6435ae095937068493d8bfad070989a6c527781d80bfa9343ab46&#45;&gt;_3e79c086c5a73d48794f201821f3b0508cf92e737416812c471811d5a99f5725</title>
<path fill="none" stroke="dimgray" stroke-dasharray="1,5" d="M420.14,-24.92C523.31,-32.24 635.56,-48.3 671.88,-83.25 714.99,-124.74 695.75,-210.07 689.54,-233.05"/>
<polygon fill="dimgray" stroke="dimgray" points="693.33,-238.04 683.71,-235.32 684.25,-233.4 693.87,-236.11 693.33,-238.04"/>
<polyline fill="none" stroke="dimgray" points="688.25,-237.64 689.6,-232.83"/>
</g>
<!-- _932826a2287c048d0900d9e6dacbffcc0c6fb6ecafe48111ff362f5e8a1d5f08&#45;&gt;_357f00248bdc728725be43338ec69113a99cec9793681d0accd1f777e4dd5fbf -->
<g id="edge2" class="edge">
<title>_932826a2287c048d0900d9e6dacbffcc0c6fb6ecafe48111ff362f5e8a1d5f08&#45;&gt;_357f00248bdc728725be43338ec69113a99cec9793681d0accd1f777e4dd5fbf</title>
<path fill="none" stroke="black" d="M228.4,-154.29C168.17,-168.69 109.99,-187.93 91.12,-211.11 69.91,-237.17 71.42,-277.65 75.65,-304.69"/>
<polygon fill="black" stroke="black" points="72.15,-305.01 77.37,-314.23 79.04,-303.77 72.15,-305.01"/>
<text xml:space="preserve" text-anchor="middle" x="126" y="-235.99" font-family="Times,serif" font-size="10.00">wasDerivedFrom</text>
</g>
<!-- _932826a2287c048d0900d9e6dacbffcc0c6fb6ecafe48111ff362f5e8a1d5f08&#45;&gt;_c3ac0d68bc94e8bfc579081a0d401a6fd3e688228d4bb5066854e2a966a55923 -->
<g id="edge1" class="edge">
<title>_932826a2287c048d0900d9e6dacbffcc0c6fb6ecafe48111ff362f5e8a1d5f08&#45;&gt;_c3ac0d68bc94e8bfc579081a0d401a6fd3e688228d4bb5066854e2a966a55923</title>
<path fill="none" stroke="darkgreen" d="M390.83,-164.21C390.54,-175.6 390.21,-188.02 389.91,-199.4"/>
<polygon fill="darkgreen" stroke="darkgreen" points="386.42,-199.19 389.65,-209.28 393.41,-199.37 386.42,-199.19"/>
<text xml:space="preserve" text-anchor="middle" x="425.16" y="-183.61" font-family="Times,serif" font-size="10.00" fill="darkgreen">wasGeneratedBy</text>
</g>
<!-- _9df200b9a6acadfcc5d1838496aee74a73f304c13e7a348fd10d1b2919493896 -->
<g id="node6" class="node">
<title>_9df200b9a6acadfcc5d1838496aee74a73f304c13e7a348fd10d1b2919493896</title>
<g id="a_node6"><a xlink:title="ID &#45; http://example.org/kb/Generation&#45;a19bfc2d&#45;0682&#45;5023&#45;8046&#45;4a4b0fe6c3f3&#10;&#10;Generation of http://example.org/kb/annotation&#45;b8258799&#45;b465&#45;4182&#45;904b&#45;c0aa73a35b0b">
<ellipse fill="lightgray" stroke="dimgray" cx="627.88" cy="-239.86" rx="1.8" ry="1.8"/>
</a>
</g>
</g>
<!-- _932826a2287c048d0900d9e6dacbffcc0c6fb6ecafe48111ff362f5e8a1d5f08&#45;&gt;_9df200b9a6acadfcc5d1838496aee74a73f304c13e7a348fd10d1b2919493896 -->
<g id="edge8" class="edge">
<title>_932826a2287c048d0900d9e6dacbffcc0c6fb6ecafe48111ff362f5e8a1d5f08&#45;&gt;_9df200b9a6acadfcc5d1838496aee74a73f304c13e7a348fd10d1b2919493896</title>
<path fill="none" stroke="dimgray" stroke-dasharray="1,5" d="M530.36,-157.4C561.8,-170.05 592.93,-187.41 616.88,-211.11 622.84,-217.02 625.66,-226.56 626.93,-232.77"/>
<polygon fill="dimgray" stroke="dimgray" points="632.5,-235.81 622.64,-237.45 622.31,-235.48 632.17,-233.83 632.5,-235.81"/>
<polyline fill="none" stroke="dimgray" points="627.74,-237.62 626.91,-232.68"/>
</g>
<!-- _c3ac0d68bc94e8bfc579081a0d401a6fd3e688228d4bb5066854e2a966a55923&#45;&gt;_357f00248bdc728725be43338ec69113a99cec9793681d0accd1f777e4dd5fbf -->
<g id="edge3" class="edge">
<title>_c3ac0d68bc94e8bfc579081a0d401a6fd3e688228d4bb5066854e2a966a55923&#45;&gt;_357f00248bdc728725be43338ec69113a99cec9793681d0accd1f777e4dd5fbf</title>
<path fill="none" stroke="#8b0000" d="M294.68,-269.09C248.31,-282.99 193.4,-299.44 150.97,-312.15"/>
<polygon fill="#8b0000" stroke="#8b0000" points="150.22,-308.73 141.64,-314.95 152.23,-315.43 150.22,-308.73"/>
<text xml:space="preserve" text-anchor="middle" x="244.75" y="-288.36" font-family="Times,serif" font-size="10.00" fill="red">used</text>
</g>
<!-- _df4f7732f717c26c1499efb644f2346cde441cb8c8c35d1e5e1dc69cbce4c1a7 -->
<g id="node8" class="node">
<title>_df4f7732f717c26c1499efb644f2346cde441cb8c8c35d1e5e1dc69cbce4c1a7</title>
<g id="a_node8"><a xlink:title="ID &#45; http://example.org/kb/Start&#45;1f683eec&#45;81dd&#45;5dad&#45;a2fb&#45;0937aa55b9d4&#10;&#10;2010&#45;01&#45;15T17:59:43.250000+00:00&#10;&#10;Start of http://example.org/kb/forensic_action&#45;306e44f8&#45;446d&#45;4cff&#45;a2fd&#45;9e54affb1fa3">
<ellipse fill="lightgray" stroke="dimgray" cx="643.88" cy="-333.86" rx="1.8" ry="1.8"/>
</a>
</g>
</g>
<!-- _c3ac0d68bc94e8bfc579081a0d401a6fd3e688228d4bb5066854e2a966a55923&#45;&gt;_df4f7732f717c26c1499efb644f2346cde441cb8c8c35d1e5e1dc69cbce4c1a7 -->
<g id="edge14" class="edge">
<title>_c3ac0d68bc94e8bfc579081a0d401a6fd3e688228d4bb5066854e2a966a55923&#45;&gt;_df4f7732f717c26c1499efb644f2346cde441cb8c8c35d1e5e1dc69cbce4c1a7</title>
<path fill="none" stroke="dimgray" stroke-dasharray="1,5" d="M467.12,-269.09C531.09,-292.17 614.61,-322.3 637.72,-330.64"/>
<polygon fill="dimgray" stroke="dimgray" points="643.17,-327.29 639.77,-336.7 637.89,-336.02 641.28,-326.61 643.17,-327.29"/>
<polyline fill="none" stroke="dimgray" points="642.41,-332.33 637.71,-330.63"/>
</g>
<!-- _4b9fa4b423a28dd8196eae1d699fc600dbdbd535941e01754b4c8fa389aa8616 -->
<g id="node5" class="node">
<title>_4b9fa4b423a28dd8196eae1d699fc600dbdbd535941e01754b4c8fa389aa8616</title>
<g id="a_node5"><a xlink:title="ID &#45; http://example.org/kb/End&#45;64e0bccb&#45;5337&#45;5c04&#45;8000&#45;e58afcb6af1d&#10;&#10;2010&#45;01&#45;15T18:59:43.250000+00:00&#10;&#10;End of http://example.org/kb/forensic_action&#45;306e44f8&#45;446d&#45;4cff&#45;a2fd&#45;9e54affb1fa3">
<ellipse fill="lightgray" stroke="dimgray" cx="660.88" cy="-123.56" rx="1.8" ry="1.8"/>
</a>
</g>
</g>
<!-- _4b9fa4b423a28dd8196eae1d699fc600dbdbd535941e01754b4c8fa389aa8616&#45;&gt;_c3ac0d68bc94e8bfc579081a0d401a6fd3e688228d4bb5066854e2a966a55923 -->
<g id="edge15" class="edge">
<title>_4b9fa4b423a28dd8196eae1d699fc600dbdbd535941e01754b4c8fa389aa8616&#45;&gt;_c3ac0d68bc94e8bfc579081a0d401a6fd3e688228d4bb5066854e2a966a55923</title>
<path fill="none" stroke="dimgray" stroke-dasharray="1,5" d="M660.91,-130.71C660.62,-139.32 658.79,-154.89 649.88,-163.86 629.28,-184.6 603.35,-199.69 575.88,-210.66"/>
<polygon fill="dimgray" stroke="dimgray" points="655.92,-126.7 665.92,-126.73 665.92,-128.73 655.92,-128.7 655.92,-126.7"/>
<polyline fill="none" stroke="dimgray" points="660.93,-125.72 660.91,-130.72"/>
</g>
<!-- _4b9fa4b423a28dd8196eae1d699fc600dbdbd535941e01754b4c8fa389aa8616&#45;&gt;_9df200b9a6acadfcc5d1838496aee74a73f304c13e7a348fd10d1b2919493896 -->
<g id="edge7" class="edge">
<title>_4b9fa4b423a28dd8196eae1d699fc600dbdbd535941e01754b4c8fa389aa8616&#45;&gt;_9df200b9a6acadfcc5d1838496aee74a73f304c13e7a348fd10d1b2919493896</title>
<path fill="none" stroke="dimgray" stroke-dasharray="1,5" d="M660.55,-125.78C659.28,-130.64 654.44,-148.95 649.88,-163.86 647.4,-171.92 646.35,-173.8 643.88,-181.86 639.12,-197.35 634.15,-215.39 631.04,-226.95"/>
<polygon fill="dimgray" stroke="dimgray" points="627.66,-226.03 628.48,-236.59 634.43,-227.83 627.66,-226.03"/>
</g>
<!-- _4b9fa4b423a28dd8196eae1d699fc600dbdbd535941e01754b4c8fa389aa8616&#45;&gt;_3e79c086c5a73d48794f201821f3b0508cf92e737416812c471811d5a99f5725 -->
<g id="edge9" class="edge">
<title>_4b9fa4b423a28dd8196eae1d699fc600dbdbd535941e01754b4c8fa389aa8616&#45;&gt;_3e79c086c5a73d48794f201821f3b0508cf92e737416812c471811d5a99f5725</title>
<path fill="none" stroke="dimgray" stroke-dasharray="1,5" d="M661.05,-125.29C662.86,-132.95 678.45,-198.95 685,-226.68"/>
<polygon fill="dimgray" stroke="dimgray" points="681.55,-227.29 687.25,-236.22 688.36,-225.68 681.55,-227.29"/>
</g>
<!-- _4b9fa4b423a28dd8196eae1d699fc600dbdbd535941e01754b4c8fa389aa8616&#45;&gt;_df4f7732f717c26c1499efb644f2346cde441cb8c8c35d1e5e1dc69cbce4c1a7 -->
<g id="edge11" class="edge">
<title>_4b9fa4b423a28dd8196eae1d699fc600dbdbd535941e01754b4c8fa389aa8616&#45;&gt;_df4f7732f717c26c1499efb644f2346cde441cb8c8c35d1e5e1dc69cbce4c1a7</title>
<path fill="none" stroke="dimgray" stroke-dasharray="1,5" d="M660.8,-125.48C659.76,-138.18 648.39,-277.54 644.89,-320.4"/>
<polygon fill="dimgray" stroke="dimgray" points="641.42,-319.87 644.1,-330.12 648.4,-320.44 641.42,-319.87"/>
</g>
<!-- _9df200b9a6acadfcc5d1838496aee74a73f304c13e7a348fd10d1b2919493896&#45;&gt;_df4f7732f717c26c1499efb644f2346cde441cb8c8c35d1e5e1dc69cbce4c1a7 -->
<g id="edge12" class="edge">
<title>_9df200b9a6acadfcc5d1838496aee74a73f304c13e7a348fd10d1b2919493896&#45;&gt;_df4f7732f717c26c1499efb644f2346cde441cb8c8c35d1e5e1dc69cbce4c1a7</title>
<path fill="none" stroke="dimgray" stroke-dasharray="1,5" d="M628.05,-241.89C629.38,-249.53 637.73,-297.53 641.74,-320.56"/>
<polygon fill="dimgray" stroke="dimgray" points="638.25,-320.97 643.42,-330.22 645.15,-319.77 638.25,-320.97"/>
</g>
<!-- _3e79c086c5a73d48794f201821f3b0508cf92e737416812c471811d5a99f5725&#45;&gt;_df4f7732f717c26c1499efb644f2346cde441cb8c8c35d1e5e1dc69cbce4c1a7 -->
<g id="edge13" class="edge">
<title>_3e79c086c5a73d48794f201821f3b0508cf92e737416812c471811d5a99f5725&#45;&gt;_df4f7732f717c26c1499efb644f2346cde441cb8c8c35d1e5e1dc69cbce4c1a7</title>
<path fill="none" stroke="dimgray" stroke-dasharray="1,5" d="M687.74,-241.71C686.89,-247.05 681.8,-276.54 670.88,-297.86 665.94,-307.49 658.26,-317.12 652.35,-323.84"/>
<polygon fill="dimgray" stroke="dimgray" points="650.15,-321.06 645.9,-330.76 655.28,-325.83 650.15,-321.06"/>
</g>
</g>
</svg>
