<?xml version="1.0" encoding="UTF-8" standalone="no"?>
<!DOCTYPE svg PUBLIC "-//W3C//DTD SVG 1.1//EN"
 "http://www.w3.org/Graphics/SVG/1.1/DTD/svg11.dtd">
<!-- Generated by graphviz version 12.2.1 (20241206.2353)
 -->
<!-- Title: PROV&#45;O render Pages: 1 -->
<svg width="1200pt" height="443pt"
 viewBox="0.00 0.00 1200.37 443.11" xmlns="http://www.w3.org/2000/svg" xmlns:xlink="http://www.w3.org/1999/xlink">
<g id="graph0" class="graph" transform="scale(1 1) rotate(0) translate(4 439.11)">
<title>PROV&#45;O render</title>
<polygon fill="white" stroke="none" points="-4,4 -4,-439.11 1196.37,-439.11 1196.37,4 -4,4"/>
<!-- _932826a2287c048d0900d9e6dacbffcc0c6fb6ecafe48111ff362f5e8a1d5f08 -->
<g id="node1" class="node">
<title>_932826a2287c048d0900d9e6dacbffcc0c6fb6ecafe48111ff362f5e8a1d5f08</title>
<g id="a_node1"><a xlink:title="ID &#45; http://example.org/kb/annotation&#45;b8258799&#45;b465&#45;4182&#45;904b&#45;c0aa73a35b0b">
<ellipse fill="#fff68f" stroke="#808080" cx="627.57" cy="-123.56" rx="248.9" ry="40.31"/>
<text text-anchor="middle" x="627.57" y="-134.76" font-family="Times,serif" font-size="14.00">ID &#45; kb:annotation&#45;b8258799&#45;b465&#45;4182&#45;904b&#45;c0aa73a35b0b</text>
<text text-anchor="middle" x="627.57" y="-102.26" font-family="Times,serif" font-size="14.00">Photo was taken by a Canon digital camera.</text>
</a>
</g>
</g>
<!-- _ea4b51e21131e6583c4894d8a05668a4b427ba124c6c1f28c6a60c0caf27a276 -->
<g id="node2" class="node">
<title>_ea4b51e21131e6583c4894d8a05668a4b427ba124c6c1f28c6a60c0caf27a276</title>
<g id="a_node2"><a xlink:title="ID &#45; http://example.org/kb/annotator_tool&#45;ca41faa8&#45;a59c&#45;4321&#45;b047&#45;4d916f75b1e8">
<polygon fill="#fed37f" stroke="black" points="619.13,-339.42 309.57,-351.86 0,-339.42 0.29,-319.3 618.84,-319.3 619.13,-339.42"/>
<text text-anchor="middle" x="309.57" y="-328.81" font-family="Times,serif" font-size="14.00">ID &#45; kb:annotator_tool&#45;ca41faa8&#45;a59c&#45;4321&#45;b047&#45;4d916f75b1e8</text>
</a>
</g>
</g>
<!-- _932826a2287c048d0900d9e6dacbffcc0c6fb6ecafe48111ff362f5e8a1d5f08&#45;&gt;_ea4b51e21131e6583c4894d8a05668a4b427ba124c6c1f28c6a60c0caf27a276 -->
<g id="edge1" class="edge">
<title>_932826a2287c048d0900d9e6dacbffcc0c6fb6ecafe48111ff362f5e8a1d5f08&#45;&gt;_ea4b51e21131e6583c4894d8a05668a4b427ba124c6c1f28c6a60c0caf27a276</title>
<path fill="none" stroke="#fed37f" d="M540.49,-161.66C511.04,-175.63 478.54,-192.64 450.57,-211.11 404.74,-241.37 357.67,-285.05 331.17,-311.04"/>
<polygon fill="#fed37f" stroke="#fed37f" points="328.72,-308.54 324.08,-318.06 333.65,-313.51 328.72,-308.54"/>
<text text-anchor="middle" x="485.07" y="-235.99" font-family="Times,serif" font-size="10.00">wasAttributedTo</text>
</g>
<!-- _c3ac0d68bc94e8bfc579081a0d401a6fd3e688228d4bb5066854e2a966a55923 -->
<g id="node4" class="node">
<title>_c3ac0d68bc94e8bfc579081a0d401a6fd3e688228d4bb5066854e2a966a55923</title>
<g id="a_node4"><a xlink:title="ID &#45; http://example.org/kb/forensic_action&#45;306e44f8&#45;446d&#45;4cff&#45;a2fd&#45;9e54affb1fa3">
<polygon fill="#9fb1fc" stroke="#0000ff" points="1050.32,-268.61 612.82,-268.61 612.82,-211.11 1050.32,-211.11 1050.32,-268.61"/>
<text text-anchor="middle" x="831.57" y="-251.31" font-family="Times,serif" font-size="14.00">ID &#45; kb:forensic_action&#45;306e44f8&#45;446d&#45;4cff&#45;a2fd&#45;9e54affb1fa3</text>
<text text-anchor="middle" x="831.57" y="-234.81" font-family="Times,serif" font-size="14.00">[2010&#45;01&#45;15T17:59:43.250000+00:00, 2010&#45;01&#45;15T18:59:43.250000+00:00]</text>
<text text-anchor="middle" x="831.57" y="-218.31" font-family="Times,serif" font-size="14.00">annotated</text>
</a>
</g>
</g>
<!-- _932826a2287c048d0900d9e6dacbffcc0c6fb6ecafe48111ff362f5e8a1d5f08&#45;&gt;_c3ac0d68bc94e8bfc579081a0d401a6fd3e688228d4bb5066854e2a966a55923 -->
<g id="edge2" class="edge">
<title>_932826a2287c048d0900d9e6dacbffcc0c6fb6ecafe48111ff362f5e8a1d5f08&#45;&gt;_c3ac0d68bc94e8bfc579081a0d401a6fd3e688228d4bb5066854e2a966a55923</title>
<path fill="none" stroke="darkgreen" d="M695.78,-162.78C720.2,-176.46 747.54,-191.78 771.25,-205.07"/>
<polygon fill="darkgreen" stroke="darkgreen" points="769.42,-208.05 779.85,-209.88 772.84,-201.94 769.42,-208.05"/>
<text text-anchor="middle" x="782.71" y="-183.61" font-family="Times,serif" font-size="10.00" fill="darkgreen">wasGeneratedBy</text>
</g>
<!-- _357f00248bdc728725be43338ec69113a99cec9793681d0accd1f777e4dd5fbf -->
<g id="node6" class="node">
<title>_357f00248bdc728725be43338ec69113a99cec9793681d0accd1f777e4dd5fbf</title>
<g id="a_node6"><a xlink:title="ID &#45; http://www.w3.org/ns/prov#EmptyCollection">
<polygon fill="#cdc673" stroke="#808080" points="917.44,-351.86 914.44,-355.86 893.44,-355.86 890.44,-351.86 753.69,-351.86 753.69,-315.86 917.44,-315.86 917.44,-351.86"/>
<text text-anchor="middle" x="835.57" y="-328.81" font-family="Times,serif" font-size="14.00">ID &#45; prov:EmptyCollection</text>
</a>
</g>
</g>
<!-- _932826a2287c048d0900d9e6dacbffcc0c6fb6ecafe48111ff362f5e8a1d5f08&#45;&gt;_357f00248bdc728725be43338ec69113a99cec9793681d0accd1f777e4dd5fbf -->
<g id="edge3" class="edge">
<title>_932826a2287c048d0900d9e6dacbffcc0c6fb6ecafe48111ff362f5e8a1d5f08&#45;&gt;_357f00248bdc728725be43338ec69113a99cec9793681d0accd1f777e4dd5fbf</title>
<path fill="none" stroke="black" d="M574.87,-163.12C540.03,-193.25 505.57,-235.45 533.82,-268.61 550.13,-287.76 620.91,-281.63 645.57,-286.61 682.95,-294.16 724.11,-303.99 758.54,-312.64"/>
<polygon fill="black" stroke="black" points="757.45,-315.98 768,-315.04 759.16,-309.19 757.45,-315.98"/>
<text text-anchor="middle" x="568.69" y="-235.99" font-family="Times,serif" font-size="10.00">wasDerivedFrom</text>
</g>
<!-- _9df200b9a6acadfcc5d1838496aee74a73f304c13e7a348fd10d1b2919493896 -->
<g id="node8" class="node">
<title>_9df200b9a6acadfcc5d1838496aee74a73f304c13e7a348fd10d1b2919493896</title>
<g id="a_node8"><a xlink:title="Generation of http://example.org/kb/annotation&#45;b8258799&#45;b465&#45;4182&#45;904b&#45;c0aa73a35b0b">
<ellipse fill="lightgray" stroke="dimgray" cx="1108.57" cy="-239.86" rx="1.8" ry="1.8"/>
</a>
</g>
</g>
<!-- _932826a2287c048d0900d9e6dacbffcc0c6fb6ecafe48111ff362f5e8a1d5f08&#45;&gt;_9df200b9a6acadfcc5d1838496aee74a73f304c13e7a348fd10d1b2919493896 -->
<g id="edge13" class="edge">
<title>_932826a2287c048d0900d9e6dacbffcc0c6fb6ecafe48111ff362f5e8a1d5f08&#45;&gt;_9df200b9a6acadfcc5d1838496aee74a73f304c13e7a348fd10d1b2919493896</title>
<path fill="none" stroke="dimgray" stroke-dasharray="1,5" d="M798.74,-153.15C897.81,-170.82 1012.03,-193.41 1059.57,-211.11 1076.88,-217.56 1095.34,-229.61 1103.81,-235.48"/>
<polygon fill="dimgray" stroke="dimgray" points="1109.49,-233.36 1103.72,-241.53 1102.09,-240.38 1107.86,-232.21 1109.49,-233.36"/>
<polyline fill="none" stroke="dimgray" points="1107.42,-238.03 1103.34,-235.14"/>
</g>
<!-- _fef2c7a50aa047afde2c4e41b1d4da1913d582cb18936249b94b4b848662fb84 -->
<g id="node3" class="node">
<title>_fef2c7a50aa047afde2c4e41b1d4da1913d582cb18936249b94b4b848662fb84</title>
<g id="a_node3"><a xlink:title="ID &#45; http://example.org/kb/examiner&#45;88a08acc&#45;dad2&#45;4964&#45;be3b&#45;8b70e11a4f4d">
<polygon fill="#fed37f" stroke="black" points="769.99,-422.67 482.57,-435.11 195.14,-422.67 195.41,-402.55 769.72,-402.55 769.99,-422.67"/>
<text text-anchor="middle" x="482.57" y="-412.06" font-family="Times,serif" font-size="14.00">ID &#45; kb:examiner&#45;88a08acc&#45;dad2&#45;4964&#45;be3b&#45;8b70e11a4f4d</text>
</a>
</g>
</g>
<!-- _ea4b51e21131e6583c4894d8a05668a4b427ba124c6c1f28c6a60c0caf27a276&#45;&gt;_fef2c7a50aa047afde2c4e41b1d4da1913d582cb18936249b94b4b848662fb84 -->
<g id="edge4" class="edge">
<title>_ea4b51e21131e6583c4894d8a05668a4b427ba124c6c1f28c6a60c0caf27a276&#45;&gt;_fef2c7a50aa047afde2c4e41b1d4da1913d582cb18936249b94b4b848662fb84</title>
<path fill="none" stroke="#fed37f" d="M343.75,-350.91C372.2,-364.28 412.75,-383.32 442.68,-397.38"/>
<polygon fill="#fed37f" stroke="#fed37f" points="440.88,-400.4 451.42,-401.48 443.85,-394.06 440.88,-400.4"/>
<text text-anchor="middle" x="442.42" y="-371.61" font-family="Times,serif" font-size="10.00">actedOnBehalfOf</text>
</g>
<!-- _c3ac0d68bc94e8bfc579081a0d401a6fd3e688228d4bb5066854e2a966a55923&#45;&gt;_ea4b51e21131e6583c4894d8a05668a4b427ba124c6c1f28c6a60c0caf27a276 -->
<g id="edge5" class="edge">
<title>_c3ac0d68bc94e8bfc579081a0d401a6fd3e688228d4bb5066854e2a966a55923&#45;&gt;_ea4b51e21131e6583c4894d8a05668a4b427ba124c6c1f28c6a60c0caf27a276</title>
<path fill="none" stroke="#fed37f" d="M662.83,-269.05C629.19,-274.78 594.12,-280.82 561.32,-286.61 506.1,-296.36 444.16,-307.73 395.54,-316.76"/>
<polygon fill="#fed37f" stroke="#fed37f" points="395.1,-313.28 385.91,-318.55 396.38,-320.16 395.1,-313.28"/>
<text text-anchor="middle" x="601.44" y="-288.36" font-family="Times,serif" font-size="10.00">wasAssociatedWith</text>
</g>
<!-- _c3ac0d68bc94e8bfc579081a0d401a6fd3e688228d4bb5066854e2a966a55923&#45;&gt;_fef2c7a50aa047afde2c4e41b1d4da1913d582cb18936249b94b4b848662fb84 -->
<g id="edge6" class="edge">
<title>_c3ac0d68bc94e8bfc579081a0d401a6fd3e688228d4bb5066854e2a966a55923&#45;&gt;_fef2c7a50aa047afde2c4e41b1d4da1913d582cb18936249b94b4b848662fb84</title>
<path fill="none" stroke="#fed37f" d="M753.06,-269.05C723.93,-281.28 691.4,-297.12 664.32,-315.86 645.77,-328.69 647.16,-339.1 628.57,-351.86 600.13,-371.39 564.79,-387.13 536,-398.14"/>
<polygon fill="#fed37f" stroke="#fed37f" points="534.88,-394.82 526.74,-401.6 537.33,-401.38 534.88,-394.82"/>
<text text-anchor="middle" x="704.44" y="-329.99" font-family="Times,serif" font-size="10.00">wasAssociatedWith</text>
</g>
<!-- _c3ac0d68bc94e8bfc579081a0d401a6fd3e688228d4bb5066854e2a966a55923&#45;&gt;_357f00248bdc728725be43338ec69113a99cec9793681d0accd1f777e4dd5fbf -->
<g id="edge7" class="edge">
<title>_c3ac0d68bc94e8bfc579081a0d401a6fd3e688228d4bb5066854e2a966a55923&#45;&gt;_357f00248bdc728725be43338ec69113a99cec9793681d0accd1f777e4dd5fbf</title>
<path fill="none" stroke="#8b0000" d="M832.79,-268.96C833.27,-280.14 833.83,-292.99 834.32,-304.21"/>
<polygon fill="#8b0000" stroke="#8b0000" points="830.82,-304.26 834.75,-314.1 837.81,-303.95 830.82,-304.26"/>
<text text-anchor="middle" x="843.42" y="-288.36" font-family="Times,serif" font-size="10.00" fill="red">used</text>
</g>
<!-- _df4f7732f717c26c1499efb644f2346cde441cb8c8c35d1e5e1dc69cbce4c1a7 -->
<g id="node10" class="node">
<title>_df4f7732f717c26c1499efb644f2346cde441cb8c8c35d1e5e1dc69cbce4c1a7</title>
<g id="a_node10"><a xlink:title="Start of http://example.org/kb/forensic_action&#45;306e44f8&#45;446d&#45;4cff&#45;a2fd&#45;9e54affb1fa3">
<ellipse fill="lightgray" stroke="dimgray" cx="1133.57" cy="-333.86" rx="1.8" ry="1.8"/>
</a>
</g>
</g>
<!-- _c3ac0d68bc94e8bfc579081a0d401a6fd3e688228d4bb5066854e2a966a55923&#45;&gt;_df4f7732f717c26c1499efb644f2346cde441cb8c8c35d1e5e1dc69cbce4c1a7 -->
<g id="edge20" class="edge">
<title>_c3ac0d68bc94e8bfc579081a0d401a6fd3e688228d4bb5066854e2a966a55923&#45;&gt;_df4f7732f717c26c1499efb644f2346cde441cb8c8c35d1e5e1dc69cbce4c1a7</title>
<path fill="none" stroke="dimgray" stroke-dasharray="1,5" d="M924.23,-269.09C1001.28,-292.56 1102.27,-323.33 1127.61,-331.04"/>
<polygon fill="dimgray" stroke="dimgray" points="1132.69,-327.37 1129.78,-336.93 1127.86,-336.35 1130.78,-326.78 1132.69,-327.37"/>
<polyline fill="none" stroke="dimgray" points="1132.19,-332.44 1127.41,-330.98"/>
</g>
<!-- _04caa700f1a6435ae095937068493d8bfad070989a6c527781d80bfa9343ab46 -->
<g id="node5" class="node">
<title>_04caa700f1a6435ae095937068493d8bfad070989a6c527781d80bfa9343ab46</title>
<g id="a_node5"><a xlink:title="ID &#45; http://example.org/kb/provenance&#45;record&#45;855f91a2&#45;cc07&#45;4d8e&#45;bb93&#45;d2b6db7672db">
<polygon fill="#cdc673" stroke="#808080" points="1109.57,-36 1106.57,-40 1085.57,-40 1082.57,-36 715.57,-36 715.57,0 1109.57,0 1109.57,-36"/>
<text text-anchor="middle" x="912.57" y="-12.95" font-family="Times,serif" font-size="14.00">ID &#45; kb:provenance&#45;record&#45;855f91a2&#45;cc07&#45;4d8e&#45;bb93&#45;d2b6db7672db</text>
</a>
</g>
</g>
<!-- _04caa700f1a6435ae095937068493d8bfad070989a6c527781d80bfa9343ab46&#45;&gt;_932826a2287c048d0900d9e6dacbffcc0c6fb6ecafe48111ff362f5e8a1d5f08 -->
<g id="edge8" class="edge">
<title>_04caa700f1a6435ae095937068493d8bfad070989a6c527781d80bfa9343ab46&#45;&gt;_932826a2287c048d0900d9e6dacbffcc0c6fb6ecafe48111ff362f5e8a1d5f08</title>
<path fill="none" stroke="black" d="M864.54,-36.45C830.03,-48.99 782.06,-66.42 738.3,-82.32"/>
<polygon fill="black" stroke="black" points="737.2,-79 728.99,-85.7 739.59,-85.58 737.2,-79"/>
<text text-anchor="middle" x="836.62" y="-55.75" font-family="Times,serif" font-size="10.00">hadMember</text>
</g>
<!-- _04caa700f1a6435ae095937068493d8bfad070989a6c527781d80bfa9343ab46&#45;&gt;_ea4b51e21131e6583c4894d8a05668a4b427ba124c6c1f28c6a60c0caf27a276 -->
<g id="edge9" class="edge">
<title>_04caa700f1a6435ae095937068493d8bfad070989a6c527781d80bfa9343ab46&#45;&gt;_ea4b51e21131e6583c4894d8a05668a4b427ba124c6c1f28c6a60c0caf27a276</title>
<path fill="none" stroke="#fed37f" d="M715.26,-31.42C570.82,-42.34 395.65,-60.08 369.57,-83.25 304.31,-141.22 303.78,-256.59 307.14,-307.6"/>
<polygon fill="#fed37f" stroke="#fed37f" points="303.63,-307.63 307.9,-317.33 310.61,-307.08 303.63,-307.63"/>
<text text-anchor="middle" x="350.19" y="-183.61" font-family="Times,serif" font-size="10.00">wasAttributedTo</text>
</g>
<!-- _04caa700f1a6435ae095937068493d8bfad070989a6c527781d80bfa9343ab46&#45;&gt;_c3ac0d68bc94e8bfc579081a0d401a6fd3e688228d4bb5066854e2a966a55923 -->
<g id="edge10" class="edge">
<title>_04caa700f1a6435ae095937068493d8bfad070989a6c527781d80bfa9343ab46&#45;&gt;_c3ac0d68bc94e8bfc579081a0d401a6fd3e688228d4bb5066854e2a966a55923</title>
<path fill="none" stroke="darkgreen" d="M911.78,-36.21C909.99,-64.07 904.18,-120.35 885.57,-163.86 879.89,-177.13 871.54,-190.33 863.09,-201.88"/>
<polygon fill="darkgreen" stroke="darkgreen" points="860.52,-199.47 857.26,-209.55 866.09,-203.71 860.52,-199.47"/>
<text text-anchor="middle" x="941.39" y="-119.68" font-family="Times,serif" font-size="10.00" fill="darkgreen">wasGeneratedBy</text>
</g>
<!-- _04caa700f1a6435ae095937068493d8bfad070989a6c527781d80bfa9343ab46&#45;&gt;_357f00248bdc728725be43338ec69113a99cec9793681d0accd1f777e4dd5fbf -->
<g id="edge11" class="edge">
<title>_04caa700f1a6435ae095937068493d8bfad070989a6c527781d80bfa9343ab46&#45;&gt;_357f00248bdc728725be43338ec69113a99cec9793681d0accd1f777e4dd5fbf</title>
<path fill="none" stroke="black" d="M933.97,-36.48C948.17,-48.7 966.66,-65.88 980.57,-83.25 1016.05,-127.59 1014.03,-146.05 1045.82,-193.11 1051.45,-201.45 1056.34,-201.57 1059.57,-211.11 1067.76,-235.32 1074.95,-248.2 1059.57,-268.61 1043.28,-290.22 982.84,-306.79 928.85,-317.69"/>
<polygon fill="black" stroke="black" points="928.42,-314.21 919.28,-319.57 929.77,-321.08 928.42,-314.21"/>
<text text-anchor="middle" x="1080.69" y="-183.61" font-family="Times,serif" font-size="10.00">wasDerivedFrom</text>
</g>
<!-- _3e79c086c5a73d48794f201821f3b0508cf92e737416812c471811d5a99f5725 -->
<g id="node9" class="node">
<title>_3e79c086c5a73d48794f201821f3b0508cf92e737416812c471811d5a99f5725</title>
<g id="a_node9"><a xlink:title="Generation of http://example.org/kb/provenance&#45;record&#45;855f91a2&#45;cc07&#45;4d8e&#45;bb93&#45;d2b6db7672db">
<ellipse fill="lightgray" stroke="dimgray" cx="1190.57" cy="-239.86" rx="1.8" ry="1.8"/>
</a>
</g>
</g>
<!-- _04caa700f1a6435ae095937068493d8bfad070989a6c527781d80bfa9343ab46&#45;&gt;_3e79c086c5a73d48794f201821f3b0508cf92e737416812c471811d5a99f5725 -->
<g id="edge15" class="edge">
<title>_04caa700f1a6435ae095937068493d8bfad070989a6c527781d80bfa9343ab46&#45;&gt;_3e79c086c5a73d48794f201821f3b0508cf92e737416812c471811d5a99f5725</title>
<path fill="none" stroke="dimgray" stroke-dasharray="1,5" d="M1055.53,-36.48C1088.34,-46.06 1121.04,-60.76 1146.57,-83.25 1192.77,-123.97 1192.1,-209.17 1190.96,-232.72"/>
<polygon fill="dimgray" stroke="dimgray" points="1195.72,-236.94 1185.73,-236.34 1185.85,-234.34 1195.84,-234.94 1195.72,-236.94"/>
<polyline fill="none" stroke="dimgray" points="1190.67,-237.63 1190.96,-232.64"/>
</g>
<!-- _4b9fa4b423a28dd8196eae1d699fc600dbdbd535941e01754b4c8fa389aa8616 -->
<g id="node7" class="node">
<title>_4b9fa4b423a28dd8196eae1d699fc600dbdbd535941e01754b4c8fa389aa8616</title>
<g id="a_node7"><a xlink:title="End of http://example.org/kb/forensic_action&#45;306e44f8&#45;446d&#45;4cff&#45;a2fd&#45;9e54affb1fa3">
<ellipse fill="lightgray" stroke="dimgray" cx="1135.57" cy="-123.56" rx="1.8" ry="1.8"/>
</a>
</g>
</g>
<!-- _4b9fa4b423a28dd8196eae1d699fc600dbdbd535941e01754b4c8fa389aa8616&#45;&gt;_c3ac0d68bc94e8bfc579081a0d401a6fd3e688228d4bb5066854e2a966a55923 -->
<g id="edge22" class="edge">
<title>_4b9fa4b423a28dd8196eae1d699fc600dbdbd535941e01754b4c8fa389aa8616&#45;&gt;_c3ac0d68bc94e8bfc579081a0d401a6fd3e688228d4bb5066854e2a966a55923</title>
<path fill="none" stroke="dimgray" stroke-dasharray="1,5" d="M1129.34,-126.89C1101.36,-137.42 985.07,-181.14 906.37,-210.73"/>
<polygon fill="dimgray" stroke="dimgray" points="1131.24,-120.84 1134.75,-130.2 1132.88,-130.91 1129.36,-121.55 1131.24,-120.84"/>
<polyline fill="none" stroke="dimgray" points="1133.93,-125.17 1129.25,-126.93"/>
</g>
<!-- _4b9fa4b423a28dd8196eae1d699fc600dbdbd535941e01754b4c8fa389aa8616&#45;&gt;_9df200b9a6acadfcc5d1838496aee74a73f304c13e7a348fd10d1b2919493896 -->
<g id="edge12" class="edge">
<title>_4b9fa4b423a28dd8196eae1d699fc600dbdbd535941e01754b4c8fa389aa8616&#45;&gt;_9df200b9a6acadfcc5d1838496aee74a73f304c13e7a348fd10d1b2919493896</title>
<path fill="none" stroke="dimgray" stroke-dasharray="1,5" d="M1135.39,-125.29C1133.58,-132.95 1117.99,-198.95 1111.44,-226.68"/>
<polygon fill="dimgray" stroke="dimgray" points="1108.08,-225.68 1109.19,-236.22 1114.9,-227.29 1108.08,-225.68"/>
</g>
<!-- _4b9fa4b423a28dd8196eae1d699fc600dbdbd535941e01754b4c8fa389aa8616&#45;&gt;_3e79c086c5a73d48794f201821f3b0508cf92e737416812c471811d5a99f5725 -->
<g id="edge14" class="edge">
<title>_4b9fa4b423a28dd8196eae1d699fc600dbdbd535941e01754b4c8fa389aa8616&#45;&gt;_3e79c086c5a73d48794f201821f3b0508cf92e737416812c471811d5a99f5725</title>
<path fill="none" stroke="dimgray" stroke-dasharray="1,5" d="M1136.15,-125.32C1139.82,-130.17 1159.92,-157.21 1171.57,-181.86 1178.67,-196.9 1184.3,-215.33 1187.53,-227.08"/>
<polygon fill="dimgray" stroke="dimgray" points="1184.09,-227.76 1189.99,-236.56 1190.87,-226 1184.09,-227.76"/>
</g>
<!-- _4b9fa4b423a28dd8196eae1d699fc600dbdbd535941e01754b4c8fa389aa8616&#45;&gt;_df4f7732f717c26c1499efb644f2346cde441cb8c8c35d1e5e1dc69cbce4c1a7 -->
<g id="edge16" class="edge">
<title>_4b9fa4b423a28dd8196eae1d699fc600dbdbd535941e01754b4c8fa389aa8616&#45;&gt;_df4f7732f717c26c1499efb644f2346cde441cb8c8c35d1e5e1dc69cbce4c1a7</title>
<path fill="none" stroke="dimgray" stroke-dasharray="1,5" d="M1135.78,-125.35C1137.12,-130.41 1144.34,-158.46 1146.57,-181.86 1151.45,-233.18 1155.69,-247.12 1146.57,-297.86 1145.09,-306.08 1141.8,-314.9 1138.9,-321.63"/>
<polygon fill="dimgray" stroke="dimgray" points="1135.85,-319.9 1134.76,-330.44 1142.18,-322.88 1135.85,-319.9"/>
</g>
<!-- _24d91372dc0999bcc8c6a91bce1cbb4f23f8eea91ad4c4a7d36d6107dcbbb9d2 -->
<g id="node11" class="node">
<title>_24d91372dc0999bcc8c6a91bce1cbb4f23f8eea91ad4c4a7d36d6107dcbbb9d2</title>
<g id="a_node11"><a xlink:title="Usage of http://www.w3.org/ns/prov#EmptyCollection in http://example.org/kb/forensic_action&#45;306e44f8&#45;446d&#45;4cff&#45;a2fd&#45;9e54affb1fa3">
<ellipse fill="lightgray" stroke="dimgray" cx="1130.57" cy="-239.86" rx="1.8" ry="1.8"/>
</a>
</g>
</g>
<!-- _4b9fa4b423a28dd8196eae1d699fc600dbdbd535941e01754b4c8fa389aa8616&#45;&gt;_24d91372dc0999bcc8c6a91bce1cbb4f23f8eea91ad4c4a7d36d6107dcbbb9d2 -->
<g id="edge21" class="edge">
<title>_4b9fa4b423a28dd8196eae1d699fc600dbdbd535941e01754b4c8fa389aa8616&#45;&gt;_24d91372dc0999bcc8c6a91bce1cbb4f23f8eea91ad4c4a7d36d6107dcbbb9d2</title>
<path fill="none" stroke="dimgray" stroke-dasharray="1,5" d="M1135.51,-125.84C1135.08,-135.63 1132.31,-198.92 1131.12,-226.28"/>
<polygon fill="dimgray" stroke="dimgray" points="1127.62,-226.07 1130.68,-236.22 1134.62,-226.38 1127.62,-226.07"/>
</g>
<!-- _9df200b9a6acadfcc5d1838496aee74a73f304c13e7a348fd10d1b2919493896&#45;&gt;_df4f7732f717c26c1499efb644f2346cde441cb8c8c35d1e5e1dc69cbce4c1a7 -->
<g id="edge17" class="edge">
<title>_9df200b9a6acadfcc5d1838496aee74a73f304c13e7a348fd10d1b2919493896&#45;&gt;_df4f7732f717c26c1499efb644f2346cde441cb8c8c35d1e5e1dc69cbce4c1a7</title>
<path fill="none" stroke="dimgray" stroke-dasharray="1,5" d="M1108.85,-241.89C1110.93,-249.56 1124.09,-298 1130.31,-320.89"/>
<polygon fill="dimgray" stroke="dimgray" points="1126.86,-321.52 1132.86,-330.25 1133.61,-319.69 1126.86,-321.52"/>
</g>
<!-- _3e79c086c5a73d48794f201821f3b0508cf92e737416812c471811d5a99f5725&#45;&gt;_df4f7732f717c26c1499efb644f2346cde441cb8c8c35d1e5e1dc69cbce4c1a7 -->
<g id="edge18" class="edge">
<title>_3e79c086c5a73d48794f201821f3b0508cf92e737416812c471811d5a99f5725&#45;&gt;_df4f7732f717c26c1499efb644f2346cde441cb8c8c35d1e5e1dc69cbce4c1a7</title>
<path fill="none" stroke="dimgray" stroke-dasharray="1,5" d="M1190.49,-241.74C1189.96,-247.27 1186.51,-277.7 1173.57,-297.86 1165.97,-309.68 1153.27,-319.82 1144.21,-326.1"/>
<polygon fill="dimgray" stroke="dimgray" points="1142.55,-323 1136.04,-331.35 1146.34,-328.89 1142.55,-323"/>
</g>
<!-- _24d91372dc0999bcc8c6a91bce1cbb4f23f8eea91ad4c4a7d36d6107dcbbb9d2&#45;&gt;_df4f7732f717c26c1499efb644f2346cde441cb8c8c35d1e5e1dc69cbce4c1a7 -->
<g id="edge19" class="edge">
<title>_24d91372dc0999bcc8c6a91bce1cbb4f23f8eea91ad4c4a7d36d6107dcbbb9d2&#45;&gt;_df4f7732f717c26c1499efb644f2346cde441cb8c8c35d1e5e1dc69cbce4c1a7</title>
<path fill="none" stroke="dimgray" stroke-dasharray="1,5" d="M1130.6,-241.89C1130.85,-249.49 1132.4,-297.07 1133.15,-320.23"/>
<polygon fill="dimgray" stroke="dimgray" points="1129.66,-320.32 1133.48,-330.2 1136.65,-320.09 1129.66,-320.32"/>
</g>
</g>
</svg>
