<?xml version="1.0" encoding="UTF-8" standalone="no"?>
<!DOCTYPE svg PUBLIC "-//W3C//DTD SVG 1.1//EN"
 "http://www.w3.org/Graphics/SVG/1.1/DTD/svg11.dtd">
<!-- Generated by graphviz version 14.1.1 (20251213.1925)
 -->
<!-- Title: PROV&#45;O render Pages: 1 -->
<svg width="649pt" height="296pt"
 viewBox="0.00 0.00 649.00 296.00" xmlns="http://www.w3.org/2000/svg" xmlns:xlink="http://www.w3.org/1999/xlink">
<g id="graph0" class="graph" transform="scale(1 1) rotate(0) translate(4 291.71)">
<title>PROV&#45;O render</title>
<polygon fill="white" stroke="none" points="-4,4 -4,-291.71 644.6,-291.71 644.6,4 -4,4"/>
<!-- _04caa700f1a6435ae095937068493d8bfad070989a6c527781d80bfa9343ab46 -->
<g id="node1" class="node">
<title>_04caa700f1a6435ae095937068493d8bfad070989a6c527781d80bfa9343ab46</title>
<g id="a_node1"><a xlink:title="ID &#45; http://example.org/kb/provenance&#45;record&#45;855f91a2&#45;cc07&#45;4d8e&#45;bb93&#45;d2b6db7672db">
<polygon fill="#cdc673" stroke="#808080" points="539.42,-36 536.42,-40 515.42,-40 512.42,-36 145.42,-36 145.42,0 539.42,0 539.42,-36"/>
<text xml:space="preserve" text-anchor="middle" x="342.42" y="-12.95" font-family="Times,serif" font-size="14.00">ID &#45; kb:provenance&#45;record&#45;855f91a2&#45;cc07&#45;4d8e&#45;bb93&#45;d2b6db7672db</text>
</a>
</g>
</g>
<!-- _357f00248bdc728725be43338ec69113a99cec9793681d0accd1f777e4dd5fbf -->
<g id="node2" class="node">
<title>_357f00248bdc728725be43338ec69113a99cec9793681d0accd1f777e4dd5fbf</title>
<g id="a_node2"><a xlink:title="ID &#45; http://www.w3.org/ns/prov#EmptyCollection">
<polygon fill="#cdc673" stroke="#808080" points="172.29,-247.11 169.29,-251.11 148.29,-251.11 145.29,-247.11 8.54,-247.11 8.54,-211.11 172.29,-211.11 172.29,-247.11"/>
<text xml:space="preserve" text-anchor="middle" x="90.42" y="-224.06" font-family="Times,serif" font-size="14.00">ID &#45; prov:EmptyCollection</text>
</a>
</g>
</g>
<!-- _04caa700f1a6435ae095937068493d8bfad070989a6c527781d80bfa9343ab46&#45;&gt;_357f00248bdc728725be43338ec69113a99cec9793681d0accd1f777e4dd5fbf -->
<g id="edge3" class="edge">
<title>_04caa700f1a6435ae095937068493d8bfad070989a6c527781d80bfa9343ab46&#45;&gt;_357f00248bdc728725be43338ec69113a99cec9793681d0accd1f777e4dd5fbf</title>
<path fill="none" stroke="black" d="M146.59,-36.49C87.4,-46.09 33.13,-60.81 14.67,-83.25 -8.1,-110.91 -0.39,-131.35 14.67,-163.86 22.21,-180.16 36.16,-193.84 50.05,-204.32"/>
<polygon fill="black" stroke="black" points="47.69,-206.94 57.87,-209.87 51.74,-201.23 47.69,-206.94"/>
<text xml:space="preserve" text-anchor="middle" x="49.54" y="-119.68" font-family="Times,serif" font-size="10.00">wasDerivedFrom</text>
</g>
<!-- _932826a2287c048d0900d9e6dacbffcc0c6fb6ecafe48111ff362f5e8a1d5f08 -->
<g id="node3" class="node">
<title>_932826a2287c048d0900d9e6dacbffcc0c6fb6ecafe48111ff362f5e8a1d5f08</title>
<g id="a_node3"><a xlink:title="ID &#45; http://example.org/kb/annotation&#45;b8258799&#45;b465&#45;4182&#45;904b&#45;c0aa73a35b0b">
<ellipse fill="#fff68f" stroke="#808080" cx="342.42" cy="-123.56" rx="248.9" ry="40.31"/>
<text xml:space="preserve" text-anchor="middle" x="342.42" y="-134.76" font-family="Times,serif" font-size="14.00">ID &#45; kb:annotation&#45;b8258799&#45;b465&#45;4182&#45;904b&#45;c0aa73a35b0b</text>
<text xml:space="preserve" text-anchor="middle" x="342.42" y="-102.26" font-family="Times,serif" font-size="14.00">Photo was taken by a Canon digital camera.</text>
</a>
</g>
</g>
<!-- _04caa700f1a6435ae095937068493d8bfad070989a6c527781d80bfa9343ab46&#45;&gt;_932826a2287c048d0900d9e6dacbffcc0c6fb6ecafe48111ff362f5e8a1d5f08 -->
<g id="edge2" class="edge">
<title>_04caa700f1a6435ae095937068493d8bfad070989a6c527781d80bfa9343ab46&#45;&gt;_932826a2287c048d0900d9e6dacbffcc0c6fb6ecafe48111ff362f5e8a1d5f08</title>
<path fill="none" stroke="black" d="M342.42,-36.1C342.42,-45.96 342.42,-58.93 342.42,-71.82"/>
<polygon fill="black" stroke="black" points="338.92,-71.53 342.42,-81.53 345.92,-71.53 338.92,-71.53"/>
<text xml:space="preserve" text-anchor="middle" x="366.79" y="-55.75" font-family="Times,serif" font-size="10.00">hadMember</text>
</g>
<!-- _3e79c086c5a73d48794f201821f3b0508cf92e737416812c471811d5a99f5725 -->
<g id="node6" class="node">
<title>_3e79c086c5a73d48794f201821f3b0508cf92e737416812c471811d5a99f5725</title>
<g id="a_node6"><a xlink:title="ID &#45; http://example.org/kb/Generation&#45;abb403d8&#45;3fde&#45;5f17&#45;a74d&#45;d721eb0b3423&#10;&#10;Generation of http://example.org/kb/provenance&#45;record&#45;855f91a2&#45;cc07&#45;4d8e&#45;bb93&#45;d2b6db7672db">
<ellipse fill="lightgray" stroke="dimgray" cx="621.42" cy="-229.11" rx="1.8" ry="1.8"/>
</a>
</g>
</g>
<!-- _04caa700f1a6435ae095937068493d8bfad070989a6c527781d80bfa9343ab46&#45;&gt;_3e79c086c5a73d48794f201821f3b0508cf92e737416812c471811d5a99f5725 -->
<g id="edge7" class="edge">
<title>_04caa700f1a6435ae095937068493d8bfad070989a6c527781d80bfa9343ab46&#45;&gt;_3e79c086c5a73d48794f201821f3b0508cf92e737416812c471811d5a99f5725</title>
<path fill="none" stroke="dimgray" stroke-dasharray="1,5" d="M489.58,-36.47C547.38,-46.55 604.27,-61.61 622.42,-83.25 657.87,-125.52 631.83,-201.72 623.65,-222.66"/>
<polygon fill="dimgray" stroke="dimgray" points="626.89,-227.97 617.62,-224.22 618.37,-222.37 627.64,-226.12 626.89,-227.97"/>
<polyline fill="none" stroke="dimgray" points="621.88,-227.03 623.76,-222.39"/>
</g>
<!-- _932826a2287c048d0900d9e6dacbffcc0c6fb6ecafe48111ff362f5e8a1d5f08&#45;&gt;_357f00248bdc728725be43338ec69113a99cec9793681d0accd1f777e4dd5fbf -->
<g id="edge1" class="edge">
<title>_932826a2287c048d0900d9e6dacbffcc0c6fb6ecafe48111ff362f5e8a1d5f08&#45;&gt;_357f00248bdc728725be43338ec69113a99cec9793681d0accd1f777e4dd5fbf</title>
<path fill="none" stroke="black" d="M252.5,-161.5C215.93,-176.53 174.93,-193.38 143.31,-206.37"/>
<polygon fill="black" stroke="black" points="142.29,-203.01 134.37,-210.05 144.95,-209.49 142.29,-203.01"/>
<text xml:space="preserve" text-anchor="middle" x="236.2" y="-183.61" font-family="Times,serif" font-size="10.00">wasDerivedFrom</text>
</g>
<!-- _9df200b9a6acadfcc5d1838496aee74a73f304c13e7a348fd10d1b2919493896 -->
<g id="node5" class="node">
<title>_9df200b9a6acadfcc5d1838496aee74a73f304c13e7a348fd10d1b2919493896</title>
<g id="a_node5"><a xlink:title="ID &#45; http://example.org/kb/Generation&#45;a19bfc2d&#45;0682&#45;5023&#45;8046&#45;4a4b0fe6c3f3&#10;&#10;Generation of http://example.org/kb/annotation&#45;b8258799&#45;b465&#45;4182&#45;904b&#45;c0aa73a35b0b">
<ellipse fill="lightgray" stroke="dimgray" cx="561.42" cy="-229.11" rx="1.8" ry="1.8"/>
</a>
</g>
</g>
<!-- _932826a2287c048d0900d9e6dacbffcc0c6fb6ecafe48111ff362f5e8a1d5f08&#45;&gt;_9df200b9a6acadfcc5d1838496aee74a73f304c13e7a348fd10d1b2919493896 -->
<g id="edge5" class="edge">
<title>_932826a2287c048d0900d9e6dacbffcc0c6fb6ecafe48111ff362f5e8a1d5f08&#45;&gt;_9df200b9a6acadfcc5d1838496aee74a73f304c13e7a348fd10d1b2919493896</title>
<path fill="none" stroke="dimgray" stroke-dasharray="1,5" d="M421.79,-162.09C474.15,-186.85 536.48,-216.32 555.57,-225.35"/>
<polygon fill="dimgray" stroke="dimgray" points="561.28,-222.52 557.01,-231.56 555.2,-230.7 559.47,-221.66 561.28,-222.52"/>
<polyline fill="none" stroke="dimgray" points="560.05,-227.46 555.53,-225.33"/>
</g>
<!-- _4b9fa4b423a28dd8196eae1d699fc600dbdbd535941e01754b4c8fa389aa8616 -->
<g id="node4" class="node">
<title>_4b9fa4b423a28dd8196eae1d699fc600dbdbd535941e01754b4c8fa389aa8616</title>
<g id="a_node4"><a xlink:title="ID &#45; http://example.org/kb/End&#45;64e0bccb&#45;5337&#45;5c04&#45;8000&#45;e58afcb6af1d&#10;&#10;2010&#45;01&#45;15T18:59:43.250000+00:00&#10;&#10;End of http://example.org/kb/forensic_action&#45;306e44f8&#45;446d&#45;4cff&#45;a2fd&#45;9e54affb1fa3">
<ellipse fill="lightgray" stroke="dimgray" cx="611.42" cy="-123.56" rx="1.8" ry="1.8"/>
</a>
</g>
</g>
<!-- _4b9fa4b423a28dd8196eae1d699fc600dbdbd535941e01754b4c8fa389aa8616&#45;&gt;_9df200b9a6acadfcc5d1838496aee74a73f304c13e7a348fd10d1b2919493896 -->
<g id="edge4" class="edge">
<title>_4b9fa4b423a28dd8196eae1d699fc600dbdbd535941e01754b4c8fa389aa8616&#45;&gt;_9df200b9a6acadfcc5d1838496aee74a73f304c13e7a348fd10d1b2919493896</title>
<path fill="none" stroke="dimgray" stroke-dasharray="1,5" d="M611.35,-125.62C611.01,-130.45 609.1,-150.57 600.42,-163.86 593.5,-174.43 585.74,-171.57 578.42,-181.86 571.12,-192.1 566.6,-205.83 564.07,-215.67"/>
<polygon fill="dimgray" stroke="dimgray" points="560.66,-214.86 561.95,-225.38 567.5,-216.35 560.66,-214.86"/>
</g>
<!-- _4b9fa4b423a28dd8196eae1d699fc600dbdbd535941e01754b4c8fa389aa8616&#45;&gt;_3e79c086c5a73d48794f201821f3b0508cf92e737416812c471811d5a99f5725 -->
<g id="edge6" class="edge">
<title>_4b9fa4b423a28dd8196eae1d699fc600dbdbd535941e01754b4c8fa389aa8616&#45;&gt;_3e79c086c5a73d48794f201821f3b0508cf92e737416812c471811d5a99f5725</title>
<path fill="none" stroke="dimgray" stroke-dasharray="1,5" d="M611.53,-125.72C612.37,-134.44 617.73,-189.91 620.18,-215.37"/>
<polygon fill="dimgray" stroke="dimgray" points="616.7,-215.7 621.14,-225.31 623.67,-215.02 616.7,-215.7"/>
</g>
<!-- _df4f7732f717c26c1499efb644f2346cde441cb8c8c35d1e5e1dc69cbce4c1a7 -->
<g id="node7" class="node">
<title>_df4f7732f717c26c1499efb644f2346cde441cb8c8c35d1e5e1dc69cbce4c1a7</title>
<g id="a_node7"><a xlink:title="ID &#45; http://example.org/kb/Start&#45;1f683eec&#45;81dd&#45;5dad&#45;a2fb&#45;0937aa55b9d4&#10;&#10;2010&#45;01&#45;15T17:59:43.250000+00:00&#10;&#10;Start of http://example.org/kb/forensic_action&#45;306e44f8&#45;446d&#45;4cff&#45;a2fd&#45;9e54affb1fa3">
<ellipse fill="lightgray" stroke="dimgray" cx="591.42" cy="-285.91" rx="1.8" ry="1.8"/>
</a>
</g>
</g>
<!-- _4b9fa4b423a28dd8196eae1d699fc600dbdbd535941e01754b4c8fa389aa8616&#45;&gt;_df4f7732f717c26c1499efb644f2346cde441cb8c8c35d1e5e1dc69cbce4c1a7 -->
<g id="edge8" class="edge">
<title>_4b9fa4b423a28dd8196eae1d699fc600dbdbd535941e01754b4c8fa389aa8616&#45;&gt;_df4f7732f717c26c1499efb644f2346cde441cb8c8c35d1e5e1dc69cbce4c1a7</title>
<path fill="none" stroke="dimgray" stroke-dasharray="1,5" d="M611.29,-125.58C609.89,-136.77 597.43,-236.69 592.98,-272.34"/>
<polygon fill="dimgray" stroke="dimgray" points="589.52,-271.79 591.76,-282.15 596.47,-272.66 589.52,-271.79"/>
</g>
<!-- _9df200b9a6acadfcc5d1838496aee74a73f304c13e7a348fd10d1b2919493896&#45;&gt;_df4f7732f717c26c1499efb644f2346cde441cb8c8c35d1e5e1dc69cbce4c1a7 -->
<g id="edge9" class="edge">
<title>_9df200b9a6acadfcc5d1838496aee74a73f304c13e7a348fd10d1b2919493896&#45;&gt;_df4f7732f717c26c1499efb644f2346cde441cb8c8c35d1e5e1dc69cbce4c1a7</title>
<path fill="none" stroke="dimgray" stroke-dasharray="1,5" d="M561.88,-231.26C563.72,-235.82 570.82,-252.94 578.42,-266.11 580.09,-269.01 582.08,-272.05 583.98,-274.81"/>
<polygon fill="dimgray" stroke="dimgray" points="581.03,-276.7 589.76,-282.71 586.68,-272.57 581.03,-276.7"/>
</g>
<!-- _3e79c086c5a73d48794f201821f3b0508cf92e737416812c471811d5a99f5725&#45;&gt;_df4f7732f717c26c1499efb644f2346cde441cb8c8c35d1e5e1dc69cbce4c1a7 -->
<g id="edge10" class="edge">
<title>_3e79c086c5a73d48794f201821f3b0508cf92e737416812c471811d5a99f5725&#45;&gt;_df4f7732f717c26c1499efb644f2346cde441cb8c8c35d1e5e1dc69cbce4c1a7</title>
<path fill="none" stroke="dimgray" stroke-dasharray="1,5" d="M620.95,-231.26C619.11,-235.82 612.01,-252.94 604.42,-266.11 602.74,-269.01 600.75,-272.05 598.85,-274.81"/>
<polygon fill="dimgray" stroke="dimgray" points="596.15,-272.57 593.07,-282.71 601.8,-276.7 596.15,-272.57"/>
</g>
</g>
</svg>
