<?xml version="1.0" encoding="UTF-8" standalone="no"?>
<!DOCTYPE svg PUBLIC "-//W3C//DTD SVG 1.1//EN"
 "http://www.w3.org/Graphics/SVG/1.1/DTD/svg11.dtd">
<!-- Generated by graphviz version 9.0.0 (20230911.1827)
 -->
<!-- Title: PROV&#45;O render Pages: 1 -->
<svg width="977pt" height="360pt"
 viewBox="0.00 0.00 976.67 359.86" xmlns="http://www.w3.org/2000/svg" xmlns:xlink="http://www.w3.org/1999/xlink">
<g id="graph0" class="graph" transform="scale(1 1) rotate(0) translate(4 355.86)">
<title>PROV&#45;O render</title>
<polygon fill="white" stroke="none" points="-4,4 -4,-355.86 972.67,-355.86 972.67,4 -4,4"/>
<!-- _932826a2287c048d0900d9e6dacbffcc0c6fb6ecafe48111ff362f5e8a1d5f08 -->
<g id="node1" class="node">
<title>_932826a2287c048d0900d9e6dacbffcc0c6fb6ecafe48111ff362f5e8a1d5f08</title>
<g id="a_node1"><a xlink:title="ID &#45; http://example.org/kb/annotation&#45;b8258799&#45;b465&#45;4182&#45;904b&#45;c0aa73a35b0b">
<ellipse fill="#fff68f" stroke="#808080" cx="505.88" cy="-40.31" rx="248.9" ry="40.31"/>
<text text-anchor="middle" x="505.88" y="-51.51" font-family="Times,serif" font-size="14.00">ID &#45; kb:annotation&#45;b8258799&#45;b465&#45;4182&#45;904b&#45;c0aa73a35b0b</text>
<text text-anchor="middle" x="505.88" y="-19.01" font-family="Times,serif" font-size="14.00">Photo was taken by a Canon digital camera.</text>
</a>
</g>
</g>
<!-- _ea4b51e21131e6583c4894d8a05668a4b427ba124c6c1f28c6a60c0caf27a276 -->
<g id="node2" class="node">
<title>_ea4b51e21131e6583c4894d8a05668a4b427ba124c6c1f28c6a60c0caf27a276</title>
<g id="a_node2"><a xlink:title="ID &#45; http://example.org/kb/annotator_tool&#45;ca41faa8&#45;a59c&#45;4321&#45;b047&#45;4d916f75b1e8">
<polygon fill="#fed37f" stroke="black" points="800.44,-256.17 490.88,-268.61 181.31,-256.17 181.6,-236.05 800.15,-236.05 800.44,-256.17"/>
<text text-anchor="middle" x="490.88" y="-245.56" font-family="Times,serif" font-size="14.00">ID &#45; kb:annotator_tool&#45;ca41faa8&#45;a59c&#45;4321&#45;b047&#45;4d916f75b1e8</text>
</a>
</g>
</g>
<!-- _932826a2287c048d0900d9e6dacbffcc0c6fb6ecafe48111ff362f5e8a1d5f08&#45;&gt;_ea4b51e21131e6583c4894d8a05668a4b427ba124c6c1f28c6a60c0caf27a276 -->
<g id="edge1" class="edge">
<title>_932826a2287c048d0900d9e6dacbffcc0c6fb6ecafe48111ff362f5e8a1d5f08&#45;&gt;_ea4b51e21131e6583c4894d8a05668a4b427ba124c6c1f28c6a60c0caf27a276</title>
<path fill="none" stroke="#fed37f" d="M419.78,-78.46C400.27,-91.16 382.03,-107.46 370.88,-127.86 352.35,-161.75 350.34,-185.64 375.88,-214.61 381.42,-220.91 388.07,-226.09 395.33,-230.35"/>
<polygon fill="#fed37f" stroke="#fed37f" points="393.72,-233.46 404.21,-234.92 396.92,-227.24 393.72,-233.46"/>
<text text-anchor="middle" x="405.38" y="-152.74" font-family="Times,serif" font-size="10.00">wasAttributedTo</text>
</g>
<!-- _c3ac0d68bc94e8bfc579081a0d401a6fd3e688228d4bb5066854e2a966a55923 -->
<g id="node4" class="node">
<title>_c3ac0d68bc94e8bfc579081a0d401a6fd3e688228d4bb5066854e2a966a55923</title>
<g id="a_node4"><a xlink:title="ID &#45; http://example.org/kb/forensic_action&#45;306e44f8&#45;446d&#45;4cff&#45;a2fd&#45;9e54affb1fa3">
<polygon fill="#9fb1fc" stroke="#0000ff" points="886.62,-185.36 449.12,-185.36 449.12,-127.86 886.62,-127.86 886.62,-185.36"/>
<text text-anchor="middle" x="667.88" y="-168.06" font-family="Times,serif" font-size="14.00">ID &#45; kb:forensic_action&#45;306e44f8&#45;446d&#45;4cff&#45;a2fd&#45;9e54affb1fa3</text>
<text text-anchor="middle" x="667.88" y="-151.56" font-family="Times,serif" font-size="14.00">[2010&#45;01&#45;15T17:59:43.250000+00:00, 2010&#45;01&#45;15T18:59:43.250000+00:00]</text>
<text text-anchor="middle" x="667.88" y="-135.06" font-family="Times,serif" font-size="14.00">annotated</text>
</a>
</g>
</g>
<!-- _932826a2287c048d0900d9e6dacbffcc0c6fb6ecafe48111ff362f5e8a1d5f08&#45;&gt;_c3ac0d68bc94e8bfc579081a0d401a6fd3e688228d4bb5066854e2a966a55923 -->
<g id="edge2" class="edge">
<title>_932826a2287c048d0900d9e6dacbffcc0c6fb6ecafe48111ff362f5e8a1d5f08&#45;&gt;_c3ac0d68bc94e8bfc579081a0d401a6fd3e688228d4bb5066854e2a966a55923</title>
<path fill="none" stroke="darkgreen" d="M560.72,-80C579.48,-93.24 600.34,-107.96 618.63,-120.86"/>
<polygon fill="darkgreen" stroke="darkgreen" points="616.51,-123.65 626.7,-126.56 620.54,-117.93 616.51,-123.65"/>
<text text-anchor="middle" x="636.75" y="-100.36" font-family="Times,serif" font-size="10.00" fill="darkgreen">wasGeneratedBy</text>
</g>
<!-- _357f00248bdc728725be43338ec69113a99cec9793681d0accd1f777e4dd5fbf -->
<g id="node5" class="node">
<title>_357f00248bdc728725be43338ec69113a99cec9793681d0accd1f777e4dd5fbf</title>
<g id="a_node5"><a xlink:title="ID &#45; http://www.w3.org/ns/prov#EmptyCollection">
<polygon fill="#cdc673" stroke="#808080" points="163.75,-268.61 160.75,-272.61 139.75,-272.61 136.75,-268.61 0,-268.61 0,-232.61 163.75,-232.61 163.75,-268.61"/>
<text text-anchor="middle" x="81.88" y="-245.56" font-family="Times,serif" font-size="14.00">ID &#45; prov:EmptyCollection</text>
</a>
</g>
</g>
<!-- _932826a2287c048d0900d9e6dacbffcc0c6fb6ecafe48111ff362f5e8a1d5f08&#45;&gt;_357f00248bdc728725be43338ec69113a99cec9793681d0accd1f777e4dd5fbf -->
<g id="edge3" class="edge">
<title>_932826a2287c048d0900d9e6dacbffcc0c6fb6ecafe48111ff362f5e8a1d5f08&#45;&gt;_357f00248bdc728725be43338ec69113a99cec9793681d0accd1f777e4dd5fbf</title>
<path fill="none" stroke="black" d="M402.25,-77.3C364.17,-91.64 321.09,-109.17 283.12,-127.86 222.5,-157.7 156.16,-199.83 116.83,-225.9"/>
<polygon fill="black" stroke="black" points="115.07,-222.86 108.69,-231.32 118.95,-228.69 115.07,-222.86"/>
<text text-anchor="middle" x="318.75" y="-152.74" font-family="Times,serif" font-size="10.00">wasDerivedFrom</text>
</g>
<!-- _9df200b9a6acadfcc5d1838496aee74a73f304c13e7a348fd10d1b2919493896 -->
<g id="node7" class="node">
<title>_9df200b9a6acadfcc5d1838496aee74a73f304c13e7a348fd10d1b2919493896</title>
<g id="a_node7"><a xlink:title="Generation of http://example.org/kb/annotation&#45;b8258799&#45;b465&#45;4182&#45;904b&#45;c0aa73a35b0b">
<ellipse fill="lightgray" stroke="dimgray" cx="906.88" cy="-156.61" rx="1.8" ry="1.8"/>
</a>
</g>
</g>
<!-- _932826a2287c048d0900d9e6dacbffcc0c6fb6ecafe48111ff362f5e8a1d5f08&#45;&gt;_9df200b9a6acadfcc5d1838496aee74a73f304c13e7a348fd10d1b2919493896 -->
<g id="edge9" class="edge">
<title>_932826a2287c048d0900d9e6dacbffcc0c6fb6ecafe48111ff362f5e8a1d5f08&#45;&gt;_9df200b9a6acadfcc5d1838496aee74a73f304c13e7a348fd10d1b2919493896</title>
<path fill="none" stroke="dimgray" stroke-dasharray="1,5" d="M696.8,-66.55C779.62,-80.89 864.77,-101.34 895.88,-127.86 902.4,-133.42 905.08,-143.38 906.17,-149.73"/>
<polygon fill="dimgray" stroke="dimgray" points="911.6,-152.67 901.69,-153.99 901.43,-152.01 911.34,-150.69 911.6,-152.67"/>
<polyline fill="none" stroke="dimgray" points="906.78,-154.32 906.12,-149.36"/>
</g>
<!-- _fef2c7a50aa047afde2c4e41b1d4da1913d582cb18936249b94b4b848662fb84 -->
<g id="node3" class="node">
<title>_fef2c7a50aa047afde2c4e41b1d4da1913d582cb18936249b94b4b848662fb84</title>
<g id="a_node3"><a xlink:title="ID &#45; http://example.org/kb/examiner&#45;88a08acc&#45;dad2&#45;4964&#45;be3b&#45;8b70e11a4f4d">
<polygon fill="#fed37f" stroke="black" points="951.3,-339.42 663.88,-351.86 376.45,-339.42 376.72,-319.3 951.03,-319.3 951.3,-339.42"/>
<text text-anchor="middle" x="663.88" y="-328.81" font-family="Times,serif" font-size="14.00">ID &#45; kb:examiner&#45;88a08acc&#45;dad2&#45;4964&#45;be3b&#45;8b70e11a4f4d</text>
</a>
</g>
</g>
<!-- _ea4b51e21131e6583c4894d8a05668a4b427ba124c6c1f28c6a60c0caf27a276&#45;&gt;_fef2c7a50aa047afde2c4e41b1d4da1913d582cb18936249b94b4b848662fb84 -->
<g id="edge4" class="edge">
<title>_ea4b51e21131e6583c4894d8a05668a4b427ba124c6c1f28c6a60c0caf27a276&#45;&gt;_fef2c7a50aa047afde2c4e41b1d4da1913d582cb18936249b94b4b848662fb84</title>
<path fill="none" stroke="#fed37f" d="M525.05,-267.66C553.51,-281.03 594.05,-300.07 623.99,-314.13"/>
<polygon fill="#fed37f" stroke="#fed37f" points="622.18,-317.15 632.72,-318.23 625.16,-310.81 622.18,-317.15"/>
<text text-anchor="middle" x="623.88" y="-288.36" font-family="Times,serif" font-size="10.00">actedOnBehalfOf</text>
</g>
<!-- _c3ac0d68bc94e8bfc579081a0d401a6fd3e688228d4bb5066854e2a966a55923&#45;&gt;_ea4b51e21131e6583c4894d8a05668a4b427ba124c6c1f28c6a60c0caf27a276 -->
<g id="edge5" class="edge">
<title>_c3ac0d68bc94e8bfc579081a0d401a6fd3e688228d4bb5066854e2a966a55923&#45;&gt;_ea4b51e21131e6583c4894d8a05668a4b427ba124c6c1f28c6a60c0caf27a276</title>
<path fill="none" stroke="#fed37f" d="M613.81,-185.71C585.87,-200.23 552.52,-217.57 527.61,-230.52"/>
<polygon fill="#fed37f" stroke="#fed37f" points="526.09,-227.36 518.83,-235.08 529.32,-233.57 526.09,-227.36"/>
<text text-anchor="middle" x="620" y="-205.11" font-family="Times,serif" font-size="10.00">wasAssociatedWith</text>
</g>
<!-- _c3ac0d68bc94e8bfc579081a0d401a6fd3e688228d4bb5066854e2a966a55923&#45;&gt;_fef2c7a50aa047afde2c4e41b1d4da1913d582cb18936249b94b4b848662fb84 -->
<g id="edge6" class="edge">
<title>_c3ac0d68bc94e8bfc579081a0d401a6fd3e688228d4bb5066854e2a966a55923&#45;&gt;_fef2c7a50aa047afde2c4e41b1d4da1913d582cb18936249b94b4b848662fb84</title>
<path fill="none" stroke="#fed37f" d="M750.47,-185.72C793.4,-205.16 832.62,-233.76 809.88,-268.61 795.31,-290.93 771.06,-305.55 746.46,-315.11"/>
<polygon fill="#fed37f" stroke="#fed37f" points="745.58,-311.7 737.35,-318.38 747.95,-318.29 745.58,-311.7"/>
<text text-anchor="middle" x="856" y="-246.74" font-family="Times,serif" font-size="10.00">wasAssociatedWith</text>
</g>
<!-- _c3ac0d68bc94e8bfc579081a0d401a6fd3e688228d4bb5066854e2a966a55923&#45;&gt;_357f00248bdc728725be43338ec69113a99cec9793681d0accd1f777e4dd5fbf -->
<g id="edge7" class="edge">
<title>_c3ac0d68bc94e8bfc579081a0d401a6fd3e688228d4bb5066854e2a966a55923&#45;&gt;_357f00248bdc728725be43338ec69113a99cec9793681d0accd1f777e4dd5fbf</title>
<path fill="none" stroke="#8b0000" d="M469.99,-185.84C382.25,-198.77 277.52,-214.78 174.97,-232.11"/>
<polygon fill="#8b0000" stroke="#8b0000" points="174.53,-228.63 165.26,-233.76 175.71,-235.54 174.53,-228.63"/>
<text text-anchor="middle" x="359.25" y="-205.11" font-family="Times,serif" font-size="10.00" fill="red">used</text>
</g>
<!-- _df4f7732f717c26c1499efb644f2346cde441cb8c8c35d1e5e1dc69cbce4c1a7 -->
<g id="node8" class="node">
<title>_df4f7732f717c26c1499efb644f2346cde441cb8c8c35d1e5e1dc69cbce4c1a7</title>
<g id="a_node8"><a xlink:title="Start of http://example.org/kb/forensic_action&#45;306e44f8&#45;446d&#45;4cff&#45;a2fd&#45;9e54affb1fa3">
<ellipse fill="lightgray" stroke="dimgray" cx="936.88" cy="-250.61" rx="1.8" ry="1.8"/>
</a>
</g>
</g>
<!-- _c3ac0d68bc94e8bfc579081a0d401a6fd3e688228d4bb5066854e2a966a55923&#45;&gt;_df4f7732f717c26c1499efb644f2346cde441cb8c8c35d1e5e1dc69cbce4c1a7 -->
<g id="edge13" class="edge">
<title>_c3ac0d68bc94e8bfc579081a0d401a6fd3e688228d4bb5066854e2a966a55923&#45;&gt;_df4f7732f717c26c1499efb644f2346cde441cb8c8c35d1e5e1dc69cbce4c1a7</title>
<path fill="none" stroke="dimgray" stroke-dasharray="1,5" d="M791.65,-185.85C811.6,-191.18 831.91,-197.07 850.88,-203.36 882.88,-213.98 893.16,-213.41 920.88,-232.61 925.86,-236.06 930.48,-241.28 933.46,-245.02"/>
<polygon fill="dimgray" stroke="dimgray" points="939.51,-244.73 931.54,-250.77 930.33,-249.18 938.3,-243.14 939.51,-244.73"/>
<polyline fill="none" stroke="dimgray" points="936.13,-248.55 933.11,-244.56"/>
</g>
<!-- _4b9fa4b423a28dd8196eae1d699fc600dbdbd535941e01754b4c8fa389aa8616 -->
<g id="node6" class="node">
<title>_4b9fa4b423a28dd8196eae1d699fc600dbdbd535941e01754b4c8fa389aa8616</title>
<g id="a_node6"><a xlink:title="End of http://example.org/kb/forensic_action&#45;306e44f8&#45;446d&#45;4cff&#45;a2fd&#45;9e54affb1fa3">
<ellipse fill="lightgray" stroke="dimgray" cx="921.88" cy="-40.31" rx="1.8" ry="1.8"/>
</a>
</g>
</g>
<!-- _4b9fa4b423a28dd8196eae1d699fc600dbdbd535941e01754b4c8fa389aa8616&#45;&gt;_c3ac0d68bc94e8bfc579081a0d401a6fd3e688228d4bb5066854e2a966a55923 -->
<g id="edge15" class="edge">
<title>_4b9fa4b423a28dd8196eae1d699fc600dbdbd535941e01754b4c8fa389aa8616&#45;&gt;_c3ac0d68bc94e8bfc579081a0d401a6fd3e688228d4bb5066854e2a966a55923</title>
<path fill="none" stroke="dimgray" stroke-dasharray="1,5" d="M916.22,-43.85C892.06,-54.72 795.84,-98.02 730.51,-127.42"/>
<polygon fill="dimgray" stroke="dimgray" points="917.78,-37.67 921.88,-46.78 920.06,-47.61 915.95,-38.49 917.78,-37.67"/>
<polyline fill="none" stroke="dimgray" points="920.74,-41.81 916.18,-43.87"/>
</g>
<!-- _4b9fa4b423a28dd8196eae1d699fc600dbdbd535941e01754b4c8fa389aa8616&#45;&gt;_9df200b9a6acadfcc5d1838496aee74a73f304c13e7a348fd10d1b2919493896 -->
<g id="edge8" class="edge">
<title>_4b9fa4b423a28dd8196eae1d699fc600dbdbd535941e01754b4c8fa389aa8616&#45;&gt;_9df200b9a6acadfcc5d1838496aee74a73f304c13e7a348fd10d1b2919493896</title>
<path fill="none" stroke="dimgray" stroke-dasharray="1,5" d="M921.71,-42.59C920.42,-52.43 912.04,-116.26 908.48,-143.41"/>
<polygon fill="dimgray" stroke="dimgray" points="905.05,-142.61 907.22,-152.98 911.99,-143.52 905.05,-142.61"/>
</g>
<!-- _4b9fa4b423a28dd8196eae1d699fc600dbdbd535941e01754b4c8fa389aa8616&#45;&gt;_df4f7732f717c26c1499efb644f2346cde441cb8c8c35d1e5e1dc69cbce4c1a7 -->
<g id="edge10" class="edge">
<title>_4b9fa4b423a28dd8196eae1d699fc600dbdbd535941e01754b4c8fa389aa8616&#45;&gt;_df4f7732f717c26c1499efb644f2346cde441cb8c8c35d1e5e1dc69cbce4c1a7</title>
<path fill="none" stroke="dimgray" stroke-dasharray="1,5" d="M921.94,-42.23C922.86,-54.93 932.89,-194.29 935.98,-237.15"/>
<polygon fill="dimgray" stroke="dimgray" points="932.47,-237.15 936.68,-246.87 939.45,-236.65 932.47,-237.15"/>
</g>
<!-- _24d91372dc0999bcc8c6a91bce1cbb4f23f8eea91ad4c4a7d36d6107dcbbb9d2 -->
<g id="node9" class="node">
<title>_24d91372dc0999bcc8c6a91bce1cbb4f23f8eea91ad4c4a7d36d6107dcbbb9d2</title>
<g id="a_node9"><a xlink:title="Usage of http://www.w3.org/ns/prov#EmptyCollection in http://example.org/kb/forensic_action&#45;306e44f8&#45;446d&#45;4cff&#45;a2fd&#45;9e54affb1fa3">
<ellipse fill="lightgray" stroke="dimgray" cx="966.88" cy="-156.61" rx="1.8" ry="1.8"/>
</a>
</g>
</g>
<!-- _4b9fa4b423a28dd8196eae1d699fc600dbdbd535941e01754b4c8fa389aa8616&#45;&gt;_24d91372dc0999bcc8c6a91bce1cbb4f23f8eea91ad4c4a7d36d6107dcbbb9d2 -->
<g id="edge14" class="edge">
<title>_4b9fa4b423a28dd8196eae1d699fc600dbdbd535941e01754b4c8fa389aa8616&#45;&gt;_24d91372dc0999bcc8c6a91bce1cbb4f23f8eea91ad4c4a7d36d6107dcbbb9d2</title>
<path fill="none" stroke="dimgray" stroke-dasharray="1,5" d="M922.32,-42.09C925.13,-47.06 940.53,-74.68 949.88,-98.61 955.86,-113.95 960.99,-132.3 964,-143.96"/>
<polygon fill="dimgray" stroke="dimgray" points="960.52,-144.45 966.32,-153.32 967.31,-142.77 960.52,-144.45"/>
</g>
<!-- _9df200b9a6acadfcc5d1838496aee74a73f304c13e7a348fd10d1b2919493896&#45;&gt;_df4f7732f717c26c1499efb644f2346cde441cb8c8c35d1e5e1dc69cbce4c1a7 -->
<g id="edge11" class="edge">
<title>_9df200b9a6acadfcc5d1838496aee74a73f304c13e7a348fd10d1b2919493896&#45;&gt;_df4f7732f717c26c1499efb644f2346cde441cb8c8c35d1e5e1dc69cbce4c1a7</title>
<path fill="none" stroke="dimgray" stroke-dasharray="1,5" d="M907.09,-158.42C908.49,-163.54 916.28,-191.89 923.88,-214.61 926.49,-222.43 929.72,-231.12 932.3,-237.88"/>
<polygon fill="dimgray" stroke="dimgray" points="929.01,-239.07 935.9,-247.12 935.53,-236.53 929.01,-239.07"/>
</g>
<!-- _24d91372dc0999bcc8c6a91bce1cbb4f23f8eea91ad4c4a7d36d6107dcbbb9d2&#45;&gt;_df4f7732f717c26c1499efb644f2346cde441cb8c8c35d1e5e1dc69cbce4c1a7 -->
<g id="edge12" class="edge">
<title>_24d91372dc0999bcc8c6a91bce1cbb4f23f8eea91ad4c4a7d36d6107dcbbb9d2&#45;&gt;_df4f7732f717c26c1499efb644f2346cde441cb8c8c35d1e5e1dc69cbce4c1a7</title>
<path fill="none" stroke="dimgray" stroke-dasharray="1,5" d="M966.66,-158.42C965.26,-163.54 957.47,-191.89 949.88,-214.61 947.26,-222.43 944.03,-231.12 941.45,-237.88"/>
<polygon fill="dimgray" stroke="dimgray" points="938.22,-236.53 937.85,-247.12 944.74,-239.07 938.22,-236.53"/>
</g>
</g>
</svg>
